G04*
G04 #@! TF.GenerationSoftware,Altium Limited,Altium Designer,24.7.2 (38)*
G04*
G04 Layer_Color=2752767*
%FSLAX44Y44*%
%MOMM*%
G71*
G04*
G04 #@! TF.SameCoordinates,60CCB1E2-045B-4953-842A-C3EC13AC8E9E*
G04*
G04*
G04 #@! TF.FilePolarity,Positive*
G04*
G01*
G75*
%ADD16C,0.1270*%
%ADD79C,0.1693*%
D16*
X754480Y637540D02*
Y647700D01*
X764640D01*
Y637540D01*
X754480D01*
X728980D02*
Y647700D01*
X739140D01*
Y637540D01*
X728980D01*
X703480D02*
Y647700D01*
X713640D01*
Y637540D01*
X703480D01*
X754380Y688340D02*
Y698500D01*
X764540D01*
Y688340D01*
X754380D01*
X728880D02*
Y698500D01*
X739040D01*
Y688340D01*
X728880D01*
X703380D02*
Y698500D01*
X713540D01*
Y688340D01*
X703380D01*
X886460Y1090930D02*
X889000Y1093470D01*
X891540D01*
X889000Y1096010D01*
X891540Y1098550D01*
X889000D01*
X886460Y1101090D01*
X883920Y1098550D01*
X881380D01*
X883920Y1096010D01*
X881380Y1093470D01*
X883920D01*
X886460Y1090930D01*
X868680D02*
X871220Y1093470D01*
X873760D01*
X871220Y1096010D01*
X873760Y1098550D01*
X871220D01*
X868680Y1101090D01*
X866140Y1098550D01*
X863600D01*
X866140Y1096010D01*
X863600Y1093470D01*
X866140D01*
X868680Y1090930D01*
X850900D02*
X853440Y1093470D01*
X855980D01*
X853440Y1096010D01*
X855980Y1098550D01*
X853440D01*
X850900Y1101090D01*
X848360Y1098550D01*
X845820D01*
X848360Y1096010D01*
X845820Y1093470D01*
X848360D01*
X850900Y1090930D01*
X833120D02*
X835660Y1093470D01*
X838200D01*
X835660Y1096010D01*
X838200Y1098550D01*
X835660D01*
X833120Y1101090D01*
X830580Y1098550D01*
X828040D01*
X830580Y1096010D01*
X828040Y1093470D01*
X830580D01*
X833120Y1090930D01*
X815340D02*
X817880Y1093470D01*
X820420D01*
X817880Y1096010D01*
X820420Y1098550D01*
X817880D01*
X815340Y1101090D01*
X812800Y1098550D01*
X810260D01*
X812800Y1096010D01*
X810260Y1093470D01*
X812800D01*
X815340Y1090930D01*
X797560D02*
X800100Y1093470D01*
X802640D01*
X800100Y1096010D01*
X802640Y1098550D01*
X800100D01*
X797560Y1101090D01*
X795020Y1098550D01*
X792480D01*
X795020Y1096010D01*
X792480Y1093470D01*
X795020D01*
X797560Y1090930D01*
X779780D02*
X782320Y1093470D01*
X784860D01*
X782320Y1096010D01*
X784860Y1098550D01*
X782320D01*
X779780Y1101090D01*
X777240Y1098550D01*
X774700D01*
X777240Y1096010D01*
X774700Y1093470D01*
X777240D01*
X779780Y1090930D01*
X886460Y1073150D02*
X889000Y1075690D01*
X891540D01*
X889000Y1078230D01*
X891540Y1080770D01*
X889000D01*
X886460Y1083310D01*
X883920Y1080770D01*
X881380D01*
X883920Y1078230D01*
X881380Y1075690D01*
X883920D01*
X886460Y1073150D01*
X868680D02*
X871220Y1075690D01*
X873760D01*
X871220Y1078230D01*
X873760Y1080770D01*
X871220D01*
X868680Y1083310D01*
X866140Y1080770D01*
X863600D01*
X866140Y1078230D01*
X863600Y1075690D01*
X866140D01*
X868680Y1073150D01*
X850900D02*
X853440Y1075690D01*
X855980D01*
X853440Y1078230D01*
X855980Y1080770D01*
X853440D01*
X850900Y1083310D01*
X848360Y1080770D01*
X845820D01*
X848360Y1078230D01*
X845820Y1075690D01*
X848360D01*
X850900Y1073150D01*
X833120D02*
X835660Y1075690D01*
X838200D01*
X835660Y1078230D01*
X838200Y1080770D01*
X835660D01*
X833120Y1083310D01*
X830580Y1080770D01*
X828040D01*
X830580Y1078230D01*
X828040Y1075690D01*
X830580D01*
X833120Y1073150D01*
X815340D02*
X817880Y1075690D01*
X820420D01*
X817880Y1078230D01*
X820420Y1080770D01*
X817880D01*
X815340Y1083310D01*
X812800Y1080770D01*
X810260D01*
X812800Y1078230D01*
X810260Y1075690D01*
X812800D01*
X815340Y1073150D01*
X797560D02*
X800100Y1075690D01*
X802640D01*
X800100Y1078230D01*
X802640Y1080770D01*
X800100D01*
X797560Y1083310D01*
X795020Y1080770D01*
X792480D01*
X795020Y1078230D01*
X792480Y1075690D01*
X795020D01*
X797560Y1073150D01*
X779780D02*
X782320Y1075690D01*
X784860D01*
X782320Y1078230D01*
X784860Y1080770D01*
X782320D01*
X779780Y1083310D01*
X777240Y1080770D01*
X774700D01*
X777240Y1078230D01*
X774700Y1075690D01*
X777240D01*
X779780Y1073150D01*
X972820Y1010920D02*
Y1008380D01*
X977900D01*
Y1010920D01*
X980440D01*
Y1016000D01*
X977900D01*
Y1018540D01*
X972820D01*
Y1016000D01*
X970280D01*
Y1010920D01*
X972820D01*
X981710Y993140D02*
Y990600D01*
X986790D01*
Y993140D01*
X989330D01*
Y998220D01*
X986790D01*
Y1000760D01*
X981710D01*
Y998220D01*
X979170D01*
Y993140D01*
X981710D01*
X972820Y975360D02*
Y972820D01*
X977900D01*
Y975360D01*
X980440D01*
Y980440D01*
X977900D01*
Y982980D01*
X972820D01*
Y980440D01*
X970280D01*
Y975360D01*
X972820D01*
X981710Y957580D02*
Y955040D01*
X986790D01*
Y957580D01*
X989330D01*
Y962660D01*
X986790D01*
Y965200D01*
X981710D01*
Y962660D01*
X979170D01*
Y957580D01*
X981710D01*
X972820Y939800D02*
Y937260D01*
X977900D01*
Y939800D01*
X980440D01*
Y944880D01*
X977900D01*
Y947420D01*
X972820D01*
Y944880D01*
X970280D01*
Y939800D01*
X972820D01*
X981710Y922020D02*
Y919480D01*
X986790D01*
Y922020D01*
X989330D01*
Y927100D01*
X986790D01*
Y929640D01*
X981710D01*
Y927100D01*
X979170D01*
Y922020D01*
X981710D01*
X972820Y904240D02*
Y901700D01*
X977900D01*
Y904240D01*
X980440D01*
Y909320D01*
X977900D01*
Y911860D01*
X972820D01*
Y909320D01*
X970280D01*
Y904240D01*
X972820D01*
X981710Y886460D02*
Y883920D01*
X986790D01*
Y886460D01*
X989330D01*
Y891540D01*
X986790D01*
Y894080D01*
X981710D01*
Y891540D01*
X979170D01*
Y886460D01*
X981710D01*
X972820Y868680D02*
Y866140D01*
X977900D01*
Y868680D01*
X980440D01*
Y873760D01*
X977900D01*
Y876300D01*
X972820D01*
Y873760D01*
X970280D01*
Y868680D01*
X972820D01*
X981710Y850900D02*
Y848360D01*
X986790D01*
Y850900D01*
X989330D01*
Y855980D01*
X986790D01*
Y858520D01*
X981710D01*
Y855980D01*
X979170D01*
Y850900D01*
X981710D01*
Y637540D02*
Y635000D01*
X986790D01*
Y637540D01*
X989330D01*
Y642620D01*
X986790D01*
Y645160D01*
X981710D01*
Y642620D01*
X979170D01*
Y637540D01*
X981710D01*
X972820Y619760D02*
Y617220D01*
X977900D01*
Y619760D01*
X980440D01*
Y624840D01*
X977900D01*
Y627380D01*
X972820D01*
Y624840D01*
X970280D01*
Y619760D01*
X972820D01*
X981710Y601980D02*
Y599440D01*
X986790D01*
Y601980D01*
X989330D01*
Y607060D01*
X986790D01*
Y609600D01*
X981710D01*
Y607060D01*
X979170D01*
Y601980D01*
X981710D01*
X972820Y584200D02*
Y581660D01*
X977900D01*
Y584200D01*
X980440D01*
Y589280D01*
X977900D01*
Y591820D01*
X972820D01*
Y589280D01*
X970280D01*
Y584200D01*
X972820D01*
X981710Y566420D02*
Y563880D01*
X986790D01*
Y566420D01*
X989330D01*
Y571500D01*
X986790D01*
Y574040D01*
X981710D01*
Y571500D01*
X979170D01*
Y566420D01*
X981710D01*
X955040Y1046480D02*
Y1043940D01*
X960120D01*
Y1046480D01*
X962660D01*
Y1051560D01*
X960120D01*
Y1054100D01*
X955040D01*
Y1051560D01*
X952500D01*
Y1046480D01*
X955040D01*
X963930Y993140D02*
Y990600D01*
X969010D01*
Y993140D01*
X971550D01*
Y998220D01*
X969010D01*
Y1000760D01*
X963930D01*
Y998220D01*
X961390D01*
Y993140D01*
X963930D01*
Y957580D02*
Y955040D01*
X969010D01*
Y957580D01*
X971550D01*
Y962660D01*
X969010D01*
Y965200D01*
X963930D01*
Y962660D01*
X961390D01*
Y957580D01*
X963930D01*
X955040Y939800D02*
Y937260D01*
X960120D01*
Y939800D01*
X962660D01*
Y944880D01*
X960120D01*
Y947420D01*
X955040D01*
Y944880D01*
X952500D01*
Y939800D01*
X955040D01*
X963930Y922020D02*
Y919480D01*
X969010D01*
Y922020D01*
X971550D01*
Y927100D01*
X969010D01*
Y929640D01*
X963930D01*
Y927100D01*
X961390D01*
Y922020D01*
X963930D01*
X955040Y904240D02*
Y901700D01*
X960120D01*
Y904240D01*
X962660D01*
Y909320D01*
X960120D01*
Y911860D01*
X955040D01*
Y909320D01*
X952500D01*
Y904240D01*
X955040D01*
X963930Y886460D02*
Y883920D01*
X969010D01*
Y886460D01*
X971550D01*
Y891540D01*
X969010D01*
Y894080D01*
X963930D01*
Y891540D01*
X961390D01*
Y886460D01*
X963930D01*
X955040Y868680D02*
Y866140D01*
X960120D01*
Y868680D01*
X962660D01*
Y873760D01*
X960120D01*
Y876300D01*
X955040D01*
Y873760D01*
X952500D01*
Y868680D01*
X955040D01*
Y797560D02*
Y795020D01*
X960120D01*
Y797560D01*
X962660D01*
Y802640D01*
X960120D01*
Y805180D01*
X955040D01*
Y802640D01*
X952500D01*
Y797560D01*
X955040D01*
Y762000D02*
Y759460D01*
X960120D01*
Y762000D01*
X962660D01*
Y767080D01*
X960120D01*
Y769620D01*
X955040D01*
Y767080D01*
X952500D01*
Y762000D01*
X955040D01*
Y726440D02*
Y723900D01*
X960120D01*
Y726440D01*
X962660D01*
Y731520D01*
X960120D01*
Y734060D01*
X955040D01*
Y731520D01*
X952500D01*
Y726440D01*
X955040D01*
X963930Y601980D02*
Y599440D01*
X969010D01*
Y601980D01*
X971550D01*
Y607060D01*
X969010D01*
Y609600D01*
X963930D01*
Y607060D01*
X961390D01*
Y601980D01*
X963930D01*
X955040Y584200D02*
Y581660D01*
X960120D01*
Y584200D01*
X962660D01*
Y589280D01*
X960120D01*
Y591820D01*
X955040D01*
Y589280D01*
X952500D01*
Y584200D01*
X955040D01*
X963930Y566420D02*
Y563880D01*
X969010D01*
Y566420D01*
X971550D01*
Y571500D01*
X969010D01*
Y574040D01*
X963930D01*
Y571500D01*
X961390D01*
Y566420D01*
X963930D01*
Y495300D02*
Y492760D01*
X969010D01*
Y495300D01*
X971550D01*
Y500380D01*
X969010D01*
Y502920D01*
X963930D01*
Y500380D01*
X961390D01*
Y495300D01*
X963930D01*
X937260Y1046480D02*
Y1043940D01*
X942340D01*
Y1046480D01*
X944880D01*
Y1051560D01*
X942340D01*
Y1054100D01*
X937260D01*
Y1051560D01*
X934720D01*
Y1046480D01*
X937260D01*
X946150Y779780D02*
Y777240D01*
X951230D01*
Y779780D01*
X953770D01*
Y784860D01*
X951230D01*
Y787400D01*
X946150D01*
Y784860D01*
X943610D01*
Y779780D01*
X946150D01*
Y744220D02*
Y741680D01*
X951230D01*
Y744220D01*
X953770D01*
Y749300D01*
X951230D01*
Y751840D01*
X946150D01*
Y749300D01*
X943610D01*
Y744220D01*
X946150D01*
Y601980D02*
Y599440D01*
X951230D01*
Y601980D01*
X953770D01*
Y607060D01*
X951230D01*
Y609600D01*
X946150D01*
Y607060D01*
X943610D01*
Y601980D01*
X946150D01*
X937260Y584200D02*
Y581660D01*
X942340D01*
Y584200D01*
X944880D01*
Y589280D01*
X942340D01*
Y591820D01*
X937260D01*
Y589280D01*
X934720D01*
Y584200D01*
X937260D01*
X946150Y566420D02*
Y563880D01*
X951230D01*
Y566420D01*
X953770D01*
Y571500D01*
X951230D01*
Y574040D01*
X946150D01*
Y571500D01*
X943610D01*
Y566420D01*
X946150D01*
Y495300D02*
Y492760D01*
X951230D01*
Y495300D01*
X953770D01*
Y500380D01*
X951230D01*
Y502920D01*
X946150D01*
Y500380D01*
X943610D01*
Y495300D01*
X946150D01*
X919480Y1082040D02*
Y1079500D01*
X924560D01*
Y1082040D01*
X927100D01*
Y1087120D01*
X924560D01*
Y1089660D01*
X919480D01*
Y1087120D01*
X916940D01*
Y1082040D01*
X919480D01*
X928370Y1064260D02*
Y1061720D01*
X933450D01*
Y1064260D01*
X935990D01*
Y1069340D01*
X933450D01*
Y1071880D01*
X928370D01*
Y1069340D01*
X925830D01*
Y1064260D01*
X928370D01*
Y708660D02*
Y706120D01*
X933450D01*
Y708660D01*
X935990D01*
Y713740D01*
X933450D01*
Y716280D01*
X928370D01*
Y713740D01*
X925830D01*
Y708660D01*
X928370D01*
X919480Y584200D02*
Y581660D01*
X924560D01*
Y584200D01*
X927100D01*
Y589280D01*
X924560D01*
Y591820D01*
X919480D01*
Y589280D01*
X916940D01*
Y584200D01*
X919480D01*
X928370Y566420D02*
Y563880D01*
X933450D01*
Y566420D01*
X935990D01*
Y571500D01*
X933450D01*
Y574040D01*
X928370D01*
Y571500D01*
X925830D01*
Y566420D01*
X928370D01*
X919480Y548640D02*
Y546100D01*
X924560D01*
Y548640D01*
X927100D01*
Y553720D01*
X924560D01*
Y556260D01*
X919480D01*
Y553720D01*
X916940D01*
Y548640D01*
X919480D01*
Y441960D02*
Y439420D01*
X924560D01*
Y441960D01*
X927100D01*
Y447040D01*
X924560D01*
Y449580D01*
X919480D01*
Y447040D01*
X916940D01*
Y441960D01*
X919480D01*
X901700Y1082040D02*
Y1079500D01*
X906780D01*
Y1082040D01*
X909320D01*
Y1087120D01*
X906780D01*
Y1089660D01*
X901700D01*
Y1087120D01*
X899160D01*
Y1082040D01*
X901700D01*
X910590Y1064260D02*
Y1061720D01*
X915670D01*
Y1064260D01*
X918210D01*
Y1069340D01*
X915670D01*
Y1071880D01*
X910590D01*
Y1069340D01*
X908050D01*
Y1064260D01*
X910590D01*
X901700Y904240D02*
Y901700D01*
X906780D01*
Y904240D01*
X909320D01*
Y909320D01*
X906780D01*
Y911860D01*
X901700D01*
Y909320D01*
X899160D01*
Y904240D01*
X901700D01*
Y762000D02*
Y759460D01*
X906780D01*
Y762000D01*
X909320D01*
Y767080D01*
X906780D01*
Y769620D01*
X901700D01*
Y767080D01*
X899160D01*
Y762000D01*
X901700D01*
X910590Y708660D02*
Y706120D01*
X915670D01*
Y708660D01*
X918210D01*
Y713740D01*
X915670D01*
Y716280D01*
X910590D01*
Y713740D01*
X908050D01*
Y708660D01*
X910590D01*
Y566420D02*
Y563880D01*
X915670D01*
Y566420D01*
X918210D01*
Y571500D01*
X915670D01*
Y574040D01*
X910590D01*
Y571500D01*
X908050D01*
Y566420D01*
X910590D01*
X901700Y548640D02*
Y546100D01*
X906780D01*
Y548640D01*
X909320D01*
Y553720D01*
X906780D01*
Y556260D01*
X901700D01*
Y553720D01*
X899160D01*
Y548640D01*
X901700D01*
X910590Y530860D02*
Y528320D01*
X915670D01*
Y530860D01*
X918210D01*
Y535940D01*
X915670D01*
Y538480D01*
X910590D01*
Y535940D01*
X908050D01*
Y530860D01*
X910590D01*
X901700Y441960D02*
Y439420D01*
X906780D01*
Y441960D01*
X909320D01*
Y447040D01*
X906780D01*
Y449580D01*
X901700D01*
Y447040D01*
X899160D01*
Y441960D01*
X901700D01*
X892810Y1064260D02*
Y1061720D01*
X897890D01*
Y1064260D01*
X900430D01*
Y1069340D01*
X897890D01*
Y1071880D01*
X892810D01*
Y1069340D01*
X890270D01*
Y1064260D01*
X892810D01*
X883920Y1046480D02*
Y1043940D01*
X889000D01*
Y1046480D01*
X891540D01*
Y1051560D01*
X889000D01*
Y1054100D01*
X883920D01*
Y1051560D01*
X881380D01*
Y1046480D01*
X883920D01*
Y904240D02*
Y901700D01*
X889000D01*
Y904240D01*
X891540D01*
Y909320D01*
X889000D01*
Y911860D01*
X883920D01*
Y909320D01*
X881380D01*
Y904240D01*
X883920D01*
Y833120D02*
Y830580D01*
X889000D01*
Y833120D01*
X891540D01*
Y838200D01*
X889000D01*
Y840740D01*
X883920D01*
Y838200D01*
X881380D01*
Y833120D01*
X883920D01*
Y762000D02*
Y759460D01*
X889000D01*
Y762000D01*
X891540D01*
Y767080D01*
X889000D01*
Y769620D01*
X883920D01*
Y767080D01*
X881380D01*
Y762000D01*
X883920D01*
X892810Y744220D02*
Y741680D01*
X897890D01*
Y744220D01*
X900430D01*
Y749300D01*
X897890D01*
Y751840D01*
X892810D01*
Y749300D01*
X890270D01*
Y744220D01*
X892810D01*
Y637540D02*
Y635000D01*
X897890D01*
Y637540D01*
X900430D01*
Y642620D01*
X897890D01*
Y645160D01*
X892810D01*
Y642620D01*
X890270D01*
Y637540D01*
X892810D01*
Y566420D02*
Y563880D01*
X897890D01*
Y566420D01*
X900430D01*
Y571500D01*
X897890D01*
Y574040D01*
X892810D01*
Y571500D01*
X890270D01*
Y566420D01*
X892810D01*
X883920Y548640D02*
Y546100D01*
X889000D01*
Y548640D01*
X891540D01*
Y553720D01*
X889000D01*
Y556260D01*
X883920D01*
Y553720D01*
X881380D01*
Y548640D01*
X883920D01*
X892810Y530860D02*
Y528320D01*
X897890D01*
Y530860D01*
X900430D01*
Y535940D01*
X897890D01*
Y538480D01*
X892810D01*
Y535940D01*
X890270D01*
Y530860D01*
X892810D01*
X883920Y513080D02*
Y510540D01*
X889000D01*
Y513080D01*
X891540D01*
Y518160D01*
X889000D01*
Y520700D01*
X883920D01*
Y518160D01*
X881380D01*
Y513080D01*
X883920D01*
X892810Y495300D02*
Y492760D01*
X897890D01*
Y495300D01*
X900430D01*
Y500380D01*
X897890D01*
Y502920D01*
X892810D01*
Y500380D01*
X890270D01*
Y495300D01*
X892810D01*
X883920Y441960D02*
Y439420D01*
X889000D01*
Y441960D01*
X891540D01*
Y447040D01*
X889000D01*
Y449580D01*
X883920D01*
Y447040D01*
X881380D01*
Y441960D01*
X883920D01*
X875030Y1064260D02*
Y1061720D01*
X880110D01*
Y1064260D01*
X882650D01*
Y1069340D01*
X880110D01*
Y1071880D01*
X875030D01*
Y1069340D01*
X872490D01*
Y1064260D01*
X875030D01*
X866140Y904240D02*
Y901700D01*
X871220D01*
Y904240D01*
X873760D01*
Y909320D01*
X871220D01*
Y911860D01*
X866140D01*
Y909320D01*
X863600D01*
Y904240D01*
X866140D01*
X875030Y850900D02*
Y848360D01*
X880110D01*
Y850900D01*
X882650D01*
Y855980D01*
X880110D01*
Y858520D01*
X875030D01*
Y855980D01*
X872490D01*
Y850900D01*
X875030D01*
X866140Y833120D02*
Y830580D01*
X871220D01*
Y833120D01*
X873760D01*
Y838200D01*
X871220D01*
Y840740D01*
X866140D01*
Y838200D01*
X863600D01*
Y833120D01*
X866140D01*
Y762000D02*
Y759460D01*
X871220D01*
Y762000D01*
X873760D01*
Y767080D01*
X871220D01*
Y769620D01*
X866140D01*
Y767080D01*
X863600D01*
Y762000D01*
X866140D01*
X875030Y744220D02*
Y741680D01*
X880110D01*
Y744220D01*
X882650D01*
Y749300D01*
X880110D01*
Y751840D01*
X875030D01*
Y749300D01*
X872490D01*
Y744220D01*
X875030D01*
X866140Y584200D02*
Y581660D01*
X871220D01*
Y584200D01*
X873760D01*
Y589280D01*
X871220D01*
Y591820D01*
X866140D01*
Y589280D01*
X863600D01*
Y584200D01*
X866140D01*
Y548640D02*
Y546100D01*
X871220D01*
Y548640D01*
X873760D01*
Y553720D01*
X871220D01*
Y556260D01*
X866140D01*
Y553720D01*
X863600D01*
Y548640D01*
X866140D01*
X875030Y495300D02*
Y492760D01*
X880110D01*
Y495300D01*
X882650D01*
Y500380D01*
X880110D01*
Y502920D01*
X875030D01*
Y500380D01*
X872490D01*
Y495300D01*
X875030D01*
X866140Y441960D02*
Y439420D01*
X871220D01*
Y441960D01*
X873760D01*
Y447040D01*
X871220D01*
Y449580D01*
X866140D01*
Y447040D01*
X863600D01*
Y441960D01*
X866140D01*
X848360Y1010920D02*
Y1008380D01*
X853440D01*
Y1010920D01*
X855980D01*
Y1016000D01*
X853440D01*
Y1018540D01*
X848360D01*
Y1016000D01*
X845820D01*
Y1010920D01*
X848360D01*
X857250Y993140D02*
Y990600D01*
X862330D01*
Y993140D01*
X864870D01*
Y998220D01*
X862330D01*
Y1000760D01*
X857250D01*
Y998220D01*
X854710D01*
Y993140D01*
X857250D01*
X848360Y904240D02*
Y901700D01*
X853440D01*
Y904240D01*
X855980D01*
Y909320D01*
X853440D01*
Y911860D01*
X848360D01*
Y909320D01*
X845820D01*
Y904240D01*
X848360D01*
X857250Y850900D02*
Y848360D01*
X862330D01*
Y850900D01*
X864870D01*
Y855980D01*
X862330D01*
Y858520D01*
X857250D01*
Y855980D01*
X854710D01*
Y850900D01*
X857250D01*
X848360Y833120D02*
Y830580D01*
X853440D01*
Y833120D01*
X855980D01*
Y838200D01*
X853440D01*
Y840740D01*
X848360D01*
Y838200D01*
X845820D01*
Y833120D01*
X848360D01*
Y762000D02*
Y759460D01*
X853440D01*
Y762000D01*
X855980D01*
Y767080D01*
X853440D01*
Y769620D01*
X848360D01*
Y767080D01*
X845820D01*
Y762000D01*
X848360D01*
X857250Y744220D02*
Y741680D01*
X862330D01*
Y744220D01*
X864870D01*
Y749300D01*
X862330D01*
Y751840D01*
X857250D01*
Y749300D01*
X854710D01*
Y744220D01*
X857250D01*
Y708660D02*
Y706120D01*
X862330D01*
Y708660D01*
X864870D01*
Y713740D01*
X862330D01*
Y716280D01*
X857250D01*
Y713740D01*
X854710D01*
Y708660D01*
X857250D01*
X848360Y548640D02*
Y546100D01*
X853440D01*
Y548640D01*
X855980D01*
Y553720D01*
X853440D01*
Y556260D01*
X848360D01*
Y553720D01*
X845820D01*
Y548640D01*
X848360D01*
X857250Y495300D02*
Y492760D01*
X862330D01*
Y495300D01*
X864870D01*
Y500380D01*
X862330D01*
Y502920D01*
X857250D01*
Y500380D01*
X854710D01*
Y495300D01*
X857250D01*
X848360Y441960D02*
Y439420D01*
X853440D01*
Y441960D01*
X855980D01*
Y447040D01*
X853440D01*
Y449580D01*
X848360D01*
Y447040D01*
X845820D01*
Y441960D01*
X848360D01*
X830580Y1010920D02*
Y1008380D01*
X835660D01*
Y1010920D01*
X838200D01*
Y1016000D01*
X835660D01*
Y1018540D01*
X830580D01*
Y1016000D01*
X828040D01*
Y1010920D01*
X830580D01*
X839470Y993140D02*
Y990600D01*
X844550D01*
Y993140D01*
X847090D01*
Y998220D01*
X844550D01*
Y1000760D01*
X839470D01*
Y998220D01*
X836930D01*
Y993140D01*
X839470D01*
X830580Y904240D02*
Y901700D01*
X835660D01*
Y904240D01*
X838200D01*
Y909320D01*
X835660D01*
Y911860D01*
X830580D01*
Y909320D01*
X828040D01*
Y904240D01*
X830580D01*
X839470Y886460D02*
Y883920D01*
X844550D01*
Y886460D01*
X847090D01*
Y891540D01*
X844550D01*
Y894080D01*
X839470D01*
Y891540D01*
X836930D01*
Y886460D01*
X839470D01*
Y850900D02*
Y848360D01*
X844550D01*
Y850900D01*
X847090D01*
Y855980D01*
X844550D01*
Y858520D01*
X839470D01*
Y855980D01*
X836930D01*
Y850900D01*
X839470D01*
X830580Y833120D02*
Y830580D01*
X835660D01*
Y833120D01*
X838200D01*
Y838200D01*
X835660D01*
Y840740D01*
X830580D01*
Y838200D01*
X828040D01*
Y833120D01*
X830580D01*
Y762000D02*
Y759460D01*
X835660D01*
Y762000D01*
X838200D01*
Y767080D01*
X835660D01*
Y769620D01*
X830580D01*
Y767080D01*
X828040D01*
Y762000D01*
X830580D01*
X839470Y744220D02*
Y741680D01*
X844550D01*
Y744220D01*
X847090D01*
Y749300D01*
X844550D01*
Y751840D01*
X839470D01*
Y749300D01*
X836930D01*
Y744220D01*
X839470D01*
X830580Y726440D02*
Y723900D01*
X835660D01*
Y726440D01*
X838200D01*
Y731520D01*
X835660D01*
Y734060D01*
X830580D01*
Y731520D01*
X828040D01*
Y726440D01*
X830580D01*
X839470Y566420D02*
Y563880D01*
X844550D01*
Y566420D01*
X847090D01*
Y571500D01*
X844550D01*
Y574040D01*
X839470D01*
Y571500D01*
X836930D01*
Y566420D01*
X839470D01*
X830580Y548640D02*
Y546100D01*
X835660D01*
Y548640D01*
X838200D01*
Y553720D01*
X835660D01*
Y556260D01*
X830580D01*
Y553720D01*
X828040D01*
Y548640D01*
X830580D01*
X839470Y530860D02*
Y528320D01*
X844550D01*
Y530860D01*
X847090D01*
Y535940D01*
X844550D01*
Y538480D01*
X839470D01*
Y535940D01*
X836930D01*
Y530860D01*
X839470D01*
X830580Y441960D02*
Y439420D01*
X835660D01*
Y441960D01*
X838200D01*
Y447040D01*
X835660D01*
Y449580D01*
X830580D01*
Y447040D01*
X828040D01*
Y441960D01*
X830580D01*
X821690Y993140D02*
Y990600D01*
X826770D01*
Y993140D01*
X829310D01*
Y998220D01*
X826770D01*
Y1000760D01*
X821690D01*
Y998220D01*
X819150D01*
Y993140D01*
X821690D01*
Y922020D02*
Y919480D01*
X826770D01*
Y922020D01*
X829310D01*
Y927100D01*
X826770D01*
Y929640D01*
X821690D01*
Y927100D01*
X819150D01*
Y922020D01*
X821690D01*
X812800Y904240D02*
Y901700D01*
X817880D01*
Y904240D01*
X820420D01*
Y909320D01*
X817880D01*
Y911860D01*
X812800D01*
Y909320D01*
X810260D01*
Y904240D01*
X812800D01*
X821690Y850900D02*
Y848360D01*
X826770D01*
Y850900D01*
X829310D01*
Y855980D01*
X826770D01*
Y858520D01*
X821690D01*
Y855980D01*
X819150D01*
Y850900D01*
X821690D01*
X812800Y833120D02*
Y830580D01*
X817880D01*
Y833120D01*
X820420D01*
Y838200D01*
X817880D01*
Y840740D01*
X812800D01*
Y838200D01*
X810260D01*
Y833120D01*
X812800D01*
X821690Y815340D02*
Y812800D01*
X826770D01*
Y815340D01*
X829310D01*
Y820420D01*
X826770D01*
Y822960D01*
X821690D01*
Y820420D01*
X819150D01*
Y815340D01*
X821690D01*
Y744220D02*
Y741680D01*
X826770D01*
Y744220D01*
X829310D01*
Y749300D01*
X826770D01*
Y751840D01*
X821690D01*
Y749300D01*
X819150D01*
Y744220D01*
X821690D01*
X812800Y726440D02*
Y723900D01*
X817880D01*
Y726440D01*
X820420D01*
Y731520D01*
X817880D01*
Y734060D01*
X812800D01*
Y731520D01*
X810260D01*
Y726440D01*
X812800D01*
Y513080D02*
Y510540D01*
X817880D01*
Y513080D01*
X820420D01*
Y518160D01*
X817880D01*
Y520700D01*
X812800D01*
Y518160D01*
X810260D01*
Y513080D01*
X812800D01*
X821690Y495300D02*
Y492760D01*
X826770D01*
Y495300D01*
X829310D01*
Y500380D01*
X826770D01*
Y502920D01*
X821690D01*
Y500380D01*
X819150D01*
Y495300D01*
X821690D01*
X812800Y441960D02*
Y439420D01*
X817880D01*
Y441960D01*
X820420D01*
Y447040D01*
X817880D01*
Y449580D01*
X812800D01*
Y447040D01*
X810260D01*
Y441960D01*
X812800D01*
X803910Y1064260D02*
Y1061720D01*
X808990D01*
Y1064260D01*
X811530D01*
Y1069340D01*
X808990D01*
Y1071880D01*
X803910D01*
Y1069340D01*
X801370D01*
Y1064260D01*
X803910D01*
X795020Y904240D02*
Y901700D01*
X800100D01*
Y904240D01*
X802640D01*
Y909320D01*
X800100D01*
Y911860D01*
X795020D01*
Y909320D01*
X792480D01*
Y904240D01*
X795020D01*
X803910Y850900D02*
Y848360D01*
X808990D01*
Y850900D01*
X811530D01*
Y855980D01*
X808990D01*
Y858520D01*
X803910D01*
Y855980D01*
X801370D01*
Y850900D01*
X803910D01*
X795020Y833120D02*
Y830580D01*
X800100D01*
Y833120D01*
X802640D01*
Y838200D01*
X800100D01*
Y840740D01*
X795020D01*
Y838200D01*
X792480D01*
Y833120D01*
X795020D01*
X803910Y815340D02*
Y812800D01*
X808990D01*
Y815340D01*
X811530D01*
Y820420D01*
X808990D01*
Y822960D01*
X803910D01*
Y820420D01*
X801370D01*
Y815340D01*
X803910D01*
X795020Y797560D02*
Y795020D01*
X800100D01*
Y797560D01*
X802640D01*
Y802640D01*
X800100D01*
Y805180D01*
X795020D01*
Y802640D01*
X792480D01*
Y797560D01*
X795020D01*
X803910Y601980D02*
Y599440D01*
X808990D01*
Y601980D01*
X811530D01*
Y607060D01*
X808990D01*
Y609600D01*
X803910D01*
Y607060D01*
X801370D01*
Y601980D01*
X803910D01*
X795020Y584200D02*
Y581660D01*
X800100D01*
Y584200D01*
X802640D01*
Y589280D01*
X800100D01*
Y591820D01*
X795020D01*
Y589280D01*
X792480D01*
Y584200D01*
X795020D01*
X803910Y566420D02*
Y563880D01*
X808990D01*
Y566420D01*
X811530D01*
Y571500D01*
X808990D01*
Y574040D01*
X803910D01*
Y571500D01*
X801370D01*
Y566420D01*
X803910D01*
X795020Y548640D02*
Y546100D01*
X800100D01*
Y548640D01*
X802640D01*
Y553720D01*
X800100D01*
Y556260D01*
X795020D01*
Y553720D01*
X792480D01*
Y548640D01*
X795020D01*
X803910Y530860D02*
Y528320D01*
X808990D01*
Y530860D01*
X811530D01*
Y535940D01*
X808990D01*
Y538480D01*
X803910D01*
Y535940D01*
X801370D01*
Y530860D01*
X803910D01*
X795020Y513080D02*
Y510540D01*
X800100D01*
Y513080D01*
X802640D01*
Y518160D01*
X800100D01*
Y520700D01*
X795020D01*
Y518160D01*
X792480D01*
Y513080D01*
X795020D01*
X803910Y495300D02*
Y492760D01*
X808990D01*
Y495300D01*
X811530D01*
Y500380D01*
X808990D01*
Y502920D01*
X803910D01*
Y500380D01*
X801370D01*
Y495300D01*
X803910D01*
X795020Y441960D02*
Y439420D01*
X800100D01*
Y441960D01*
X802640D01*
Y447040D01*
X800100D01*
Y449580D01*
X795020D01*
Y447040D01*
X792480D01*
Y441960D01*
X795020D01*
X786130Y1064260D02*
Y1061720D01*
X791210D01*
Y1064260D01*
X793750D01*
Y1069340D01*
X791210D01*
Y1071880D01*
X786130D01*
Y1069340D01*
X783590D01*
Y1064260D01*
X786130D01*
Y922020D02*
Y919480D01*
X791210D01*
Y922020D01*
X793750D01*
Y927100D01*
X791210D01*
Y929640D01*
X786130D01*
Y927100D01*
X783590D01*
Y922020D01*
X786130D01*
X777240Y904240D02*
Y901700D01*
X782320D01*
Y904240D01*
X784860D01*
Y909320D01*
X782320D01*
Y911860D01*
X777240D01*
Y909320D01*
X774700D01*
Y904240D01*
X777240D01*
X786130Y850900D02*
Y848360D01*
X791210D01*
Y850900D01*
X793750D01*
Y855980D01*
X791210D01*
Y858520D01*
X786130D01*
Y855980D01*
X783590D01*
Y850900D01*
X786130D01*
X777240Y833120D02*
Y830580D01*
X782320D01*
Y833120D01*
X784860D01*
Y838200D01*
X782320D01*
Y840740D01*
X777240D01*
Y838200D01*
X774700D01*
Y833120D01*
X777240D01*
X786130Y815340D02*
Y812800D01*
X791210D01*
Y815340D01*
X793750D01*
Y820420D01*
X791210D01*
Y822960D01*
X786130D01*
Y820420D01*
X783590D01*
Y815340D01*
X786130D01*
Y779780D02*
Y777240D01*
X791210D01*
Y779780D01*
X793750D01*
Y784860D01*
X791210D01*
Y787400D01*
X786130D01*
Y784860D01*
X783590D01*
Y779780D01*
X786130D01*
X777240Y619760D02*
Y617220D01*
X782320D01*
Y619760D01*
X784860D01*
Y624840D01*
X782320D01*
Y627380D01*
X777240D01*
Y624840D01*
X774700D01*
Y619760D01*
X777240D01*
Y584200D02*
Y581660D01*
X782320D01*
Y584200D01*
X784860D01*
Y589280D01*
X782320D01*
Y591820D01*
X777240D01*
Y589280D01*
X774700D01*
Y584200D01*
X777240D01*
X786130Y566420D02*
Y563880D01*
X791210D01*
Y566420D01*
X793750D01*
Y571500D01*
X791210D01*
Y574040D01*
X786130D01*
Y571500D01*
X783590D01*
Y566420D01*
X786130D01*
X777240Y548640D02*
Y546100D01*
X782320D01*
Y548640D01*
X784860D01*
Y553720D01*
X782320D01*
Y556260D01*
X777240D01*
Y553720D01*
X774700D01*
Y548640D01*
X777240D01*
X786130Y530860D02*
Y528320D01*
X791210D01*
Y530860D01*
X793750D01*
Y535940D01*
X791210D01*
Y538480D01*
X786130D01*
Y535940D01*
X783590D01*
Y530860D01*
X786130D01*
X777240Y513080D02*
Y510540D01*
X782320D01*
Y513080D01*
X784860D01*
Y518160D01*
X782320D01*
Y520700D01*
X777240D01*
Y518160D01*
X774700D01*
Y513080D01*
X777240D01*
X786130Y495300D02*
Y492760D01*
X791210D01*
Y495300D01*
X793750D01*
Y500380D01*
X791210D01*
Y502920D01*
X786130D01*
Y500380D01*
X783590D01*
Y495300D01*
X786130D01*
X777240Y441960D02*
Y439420D01*
X782320D01*
Y441960D01*
X784860D01*
Y447040D01*
X782320D01*
Y449580D01*
X777240D01*
Y447040D01*
X774700D01*
Y441960D01*
X777240D01*
X768350Y1064260D02*
Y1061720D01*
X773430D01*
Y1064260D01*
X775970D01*
Y1069340D01*
X773430D01*
Y1071880D01*
X768350D01*
Y1069340D01*
X765810D01*
Y1064260D01*
X768350D01*
X759460Y1010920D02*
Y1008380D01*
X764540D01*
Y1010920D01*
X767080D01*
Y1016000D01*
X764540D01*
Y1018540D01*
X759460D01*
Y1016000D01*
X756920D01*
Y1010920D01*
X759460D01*
Y904240D02*
Y901700D01*
X764540D01*
Y904240D01*
X767080D01*
Y909320D01*
X764540D01*
Y911860D01*
X759460D01*
Y909320D01*
X756920D01*
Y904240D01*
X759460D01*
Y868680D02*
Y866140D01*
X764540D01*
Y868680D01*
X767080D01*
Y873760D01*
X764540D01*
Y876300D01*
X759460D01*
Y873760D01*
X756920D01*
Y868680D01*
X759460D01*
X768350Y850900D02*
Y848360D01*
X773430D01*
Y850900D01*
X775970D01*
Y855980D01*
X773430D01*
Y858520D01*
X768350D01*
Y855980D01*
X765810D01*
Y850900D01*
X768350D01*
X759460Y833120D02*
Y830580D01*
X764540D01*
Y833120D01*
X767080D01*
Y838200D01*
X764540D01*
Y840740D01*
X759460D01*
Y838200D01*
X756920D01*
Y833120D01*
X759460D01*
Y762000D02*
Y759460D01*
X764540D01*
Y762000D01*
X767080D01*
Y767080D01*
X764540D01*
Y769620D01*
X759460D01*
Y767080D01*
X756920D01*
Y762000D01*
X759460D01*
Y619760D02*
Y617220D01*
X764540D01*
Y619760D01*
X767080D01*
Y624840D01*
X764540D01*
Y627380D01*
X759460D01*
Y624840D01*
X756920D01*
Y619760D01*
X759460D01*
Y548640D02*
Y546100D01*
X764540D01*
Y548640D01*
X767080D01*
Y553720D01*
X764540D01*
Y556260D01*
X759460D01*
Y553720D01*
X756920D01*
Y548640D01*
X759460D01*
X768350Y530860D02*
Y528320D01*
X773430D01*
Y530860D01*
X775970D01*
Y535940D01*
X773430D01*
Y538480D01*
X768350D01*
Y535940D01*
X765810D01*
Y530860D01*
X768350D01*
X759460Y513080D02*
Y510540D01*
X764540D01*
Y513080D01*
X767080D01*
Y518160D01*
X764540D01*
Y520700D01*
X759460D01*
Y518160D01*
X756920D01*
Y513080D01*
X759460D01*
Y441960D02*
Y439420D01*
X764540D01*
Y441960D01*
X767080D01*
Y447040D01*
X764540D01*
Y449580D01*
X759460D01*
Y447040D01*
X756920D01*
Y441960D01*
X759460D01*
X741680Y1010920D02*
Y1008380D01*
X746760D01*
Y1010920D01*
X749300D01*
Y1016000D01*
X746760D01*
Y1018540D01*
X741680D01*
Y1016000D01*
X739140D01*
Y1010920D01*
X741680D01*
Y904240D02*
Y901700D01*
X746760D01*
Y904240D01*
X749300D01*
Y909320D01*
X746760D01*
Y911860D01*
X741680D01*
Y909320D01*
X739140D01*
Y904240D01*
X741680D01*
X750570Y850900D02*
Y848360D01*
X755650D01*
Y850900D01*
X758190D01*
Y855980D01*
X755650D01*
Y858520D01*
X750570D01*
Y855980D01*
X748030D01*
Y850900D01*
X750570D01*
X741680Y726440D02*
Y723900D01*
X746760D01*
Y726440D01*
X749300D01*
Y731520D01*
X746760D01*
Y734060D01*
X741680D01*
Y731520D01*
X739140D01*
Y726440D01*
X741680D01*
X750570Y708660D02*
Y706120D01*
X755650D01*
Y708660D01*
X758190D01*
Y713740D01*
X755650D01*
Y716280D01*
X750570D01*
Y713740D01*
X748030D01*
Y708660D01*
X750570D01*
X741680Y548640D02*
Y546100D01*
X746760D01*
Y548640D01*
X749300D01*
Y553720D01*
X746760D01*
Y556260D01*
X741680D01*
Y553720D01*
X739140D01*
Y548640D01*
X741680D01*
X750570Y530860D02*
Y528320D01*
X755650D01*
Y530860D01*
X758190D01*
Y535940D01*
X755650D01*
Y538480D01*
X750570D01*
Y535940D01*
X748030D01*
Y530860D01*
X750570D01*
X741680Y513080D02*
Y510540D01*
X746760D01*
Y513080D01*
X749300D01*
Y518160D01*
X746760D01*
Y520700D01*
X741680D01*
Y518160D01*
X739140D01*
Y513080D01*
X741680D01*
Y441960D02*
Y439420D01*
X746760D01*
Y441960D01*
X749300D01*
Y447040D01*
X746760D01*
Y449580D01*
X741680D01*
Y447040D01*
X739140D01*
Y441960D01*
X741680D01*
X732790Y1028700D02*
Y1026160D01*
X737870D01*
Y1028700D01*
X740410D01*
Y1033780D01*
X737870D01*
Y1036320D01*
X732790D01*
Y1033780D01*
X730250D01*
Y1028700D01*
X732790D01*
X723900Y1010920D02*
Y1008380D01*
X728980D01*
Y1010920D01*
X731520D01*
Y1016000D01*
X728980D01*
Y1018540D01*
X723900D01*
Y1016000D01*
X721360D01*
Y1010920D01*
X723900D01*
X732790Y957580D02*
Y955040D01*
X737870D01*
Y957580D01*
X740410D01*
Y962660D01*
X737870D01*
Y965200D01*
X732790D01*
Y962660D01*
X730250D01*
Y957580D01*
X732790D01*
X723900Y904240D02*
Y901700D01*
X728980D01*
Y904240D01*
X731520D01*
Y909320D01*
X728980D01*
Y911860D01*
X723900D01*
Y909320D01*
X721360D01*
Y904240D01*
X723900D01*
X732790Y850900D02*
Y848360D01*
X737870D01*
Y850900D01*
X740410D01*
Y855980D01*
X737870D01*
Y858520D01*
X732790D01*
Y855980D01*
X730250D01*
Y850900D01*
X732790D01*
X723900Y762000D02*
Y759460D01*
X728980D01*
Y762000D01*
X731520D01*
Y767080D01*
X728980D01*
Y769620D01*
X723900D01*
Y767080D01*
X721360D01*
Y762000D01*
X723900D01*
X732790Y744220D02*
Y741680D01*
X737870D01*
Y744220D01*
X740410D01*
Y749300D01*
X737870D01*
Y751840D01*
X732790D01*
Y749300D01*
X730250D01*
Y744220D01*
X732790D01*
X723900Y726440D02*
Y723900D01*
X728980D01*
Y726440D01*
X731520D01*
Y731520D01*
X728980D01*
Y734060D01*
X723900D01*
Y731520D01*
X721360D01*
Y726440D01*
X723900D01*
Y548640D02*
Y546100D01*
X728980D01*
Y548640D01*
X731520D01*
Y553720D01*
X728980D01*
Y556260D01*
X723900D01*
Y553720D01*
X721360D01*
Y548640D01*
X723900D01*
X732790Y530860D02*
Y528320D01*
X737870D01*
Y530860D01*
X740410D01*
Y535940D01*
X737870D01*
Y538480D01*
X732790D01*
Y535940D01*
X730250D01*
Y530860D01*
X732790D01*
X723900Y513080D02*
Y510540D01*
X728980D01*
Y513080D01*
X731520D01*
Y518160D01*
X728980D01*
Y520700D01*
X723900D01*
Y518160D01*
X721360D01*
Y513080D01*
X723900D01*
Y441960D02*
Y439420D01*
X728980D01*
Y441960D01*
X731520D01*
Y447040D01*
X728980D01*
Y449580D01*
X723900D01*
Y447040D01*
X721360D01*
Y441960D01*
X723900D01*
X715010Y1099820D02*
Y1097280D01*
X720090D01*
Y1099820D01*
X722630D01*
Y1104900D01*
X720090D01*
Y1107440D01*
X715010D01*
Y1104900D01*
X712470D01*
Y1099820D01*
X715010D01*
X706120Y1082040D02*
Y1079500D01*
X711200D01*
Y1082040D01*
X713740D01*
Y1087120D01*
X711200D01*
Y1089660D01*
X706120D01*
Y1087120D01*
X703580D01*
Y1082040D01*
X706120D01*
X715010Y1028700D02*
Y1026160D01*
X720090D01*
Y1028700D01*
X722630D01*
Y1033780D01*
X720090D01*
Y1036320D01*
X715010D01*
Y1033780D01*
X712470D01*
Y1028700D01*
X715010D01*
X706120Y1010920D02*
Y1008380D01*
X711200D01*
Y1010920D01*
X713740D01*
Y1016000D01*
X711200D01*
Y1018540D01*
X706120D01*
Y1016000D01*
X703580D01*
Y1010920D01*
X706120D01*
Y975360D02*
Y972820D01*
X711200D01*
Y975360D01*
X713740D01*
Y980440D01*
X711200D01*
Y982980D01*
X706120D01*
Y980440D01*
X703580D01*
Y975360D01*
X706120D01*
Y904240D02*
Y901700D01*
X711200D01*
Y904240D01*
X713740D01*
Y909320D01*
X711200D01*
Y911860D01*
X706120D01*
Y909320D01*
X703580D01*
Y904240D01*
X706120D01*
X715010Y708660D02*
Y706120D01*
X720090D01*
Y708660D01*
X722630D01*
Y713740D01*
X720090D01*
Y716280D01*
X715010D01*
Y713740D01*
X712470D01*
Y708660D01*
X715010D01*
X706120Y584200D02*
Y581660D01*
X711200D01*
Y584200D01*
X713740D01*
Y589280D01*
X711200D01*
Y591820D01*
X706120D01*
Y589280D01*
X703580D01*
Y584200D01*
X706120D01*
X715010Y566420D02*
Y563880D01*
X720090D01*
Y566420D01*
X722630D01*
Y571500D01*
X720090D01*
Y574040D01*
X715010D01*
Y571500D01*
X712470D01*
Y566420D01*
X715010D01*
X706120Y548640D02*
Y546100D01*
X711200D01*
Y548640D01*
X713740D01*
Y553720D01*
X711200D01*
Y556260D01*
X706120D01*
Y553720D01*
X703580D01*
Y548640D01*
X706120D01*
X715010Y530860D02*
Y528320D01*
X720090D01*
Y530860D01*
X722630D01*
Y535940D01*
X720090D01*
Y538480D01*
X715010D01*
Y535940D01*
X712470D01*
Y530860D01*
X715010D01*
X706120Y513080D02*
Y510540D01*
X711200D01*
Y513080D01*
X713740D01*
Y518160D01*
X711200D01*
Y520700D01*
X706120D01*
Y518160D01*
X703580D01*
Y513080D01*
X706120D01*
X715010Y495300D02*
Y492760D01*
X720090D01*
Y495300D01*
X722630D01*
Y500380D01*
X720090D01*
Y502920D01*
X715010D01*
Y500380D01*
X712470D01*
Y495300D01*
X715010D01*
X706120Y477520D02*
Y474980D01*
X711200D01*
Y477520D01*
X713740D01*
Y482600D01*
X711200D01*
Y485140D01*
X706120D01*
Y482600D01*
X703580D01*
Y477520D01*
X706120D01*
X715010Y459740D02*
Y457200D01*
X720090D01*
Y459740D01*
X722630D01*
Y464820D01*
X720090D01*
Y467360D01*
X715010D01*
Y464820D01*
X712470D01*
Y459740D01*
X715010D01*
X706120Y441960D02*
Y439420D01*
X711200D01*
Y441960D01*
X713740D01*
Y447040D01*
X711200D01*
Y449580D01*
X706120D01*
Y447040D01*
X703580D01*
Y441960D01*
X706120D01*
X697230Y1099820D02*
Y1097280D01*
X702310D01*
Y1099820D01*
X704850D01*
Y1104900D01*
X702310D01*
Y1107440D01*
X697230D01*
Y1104900D01*
X694690D01*
Y1099820D01*
X697230D01*
Y1028700D02*
Y1026160D01*
X702310D01*
Y1028700D01*
X704850D01*
Y1033780D01*
X702310D01*
Y1036320D01*
X697230D01*
Y1033780D01*
X694690D01*
Y1028700D01*
X697230D01*
X688340Y1010920D02*
Y1008380D01*
X693420D01*
Y1010920D01*
X695960D01*
Y1016000D01*
X693420D01*
Y1018540D01*
X688340D01*
Y1016000D01*
X685800D01*
Y1010920D01*
X688340D01*
Y975360D02*
Y972820D01*
X693420D01*
Y975360D01*
X695960D01*
Y980440D01*
X693420D01*
Y982980D01*
X688340D01*
Y980440D01*
X685800D01*
Y975360D01*
X688340D01*
X697230Y957580D02*
Y955040D01*
X702310D01*
Y957580D01*
X704850D01*
Y962660D01*
X702310D01*
Y965200D01*
X697230D01*
Y962660D01*
X694690D01*
Y957580D01*
X697230D01*
Y922020D02*
Y919480D01*
X702310D01*
Y922020D01*
X704850D01*
Y927100D01*
X702310D01*
Y929640D01*
X697230D01*
Y927100D01*
X694690D01*
Y922020D01*
X697230D01*
X688340Y904240D02*
Y901700D01*
X693420D01*
Y904240D01*
X695960D01*
Y909320D01*
X693420D01*
Y911860D01*
X688340D01*
Y909320D01*
X685800D01*
Y904240D01*
X688340D01*
Y797560D02*
Y795020D01*
X693420D01*
Y797560D01*
X695960D01*
Y802640D01*
X693420D01*
Y805180D01*
X688340D01*
Y802640D01*
X685800D01*
Y797560D01*
X688340D01*
X697230Y779780D02*
Y777240D01*
X702310D01*
Y779780D01*
X704850D01*
Y784860D01*
X702310D01*
Y787400D01*
X697230D01*
Y784860D01*
X694690D01*
Y779780D01*
X697230D01*
Y708660D02*
Y706120D01*
X702310D01*
Y708660D01*
X704850D01*
Y713740D01*
X702310D01*
Y716280D01*
X697230D01*
Y713740D01*
X694690D01*
Y708660D01*
X697230D01*
X688340Y690880D02*
Y688340D01*
X693420D01*
Y690880D01*
X695960D01*
Y695960D01*
X693420D01*
Y698500D01*
X688340D01*
Y695960D01*
X685800D01*
Y690880D01*
X688340D01*
X697230Y673100D02*
Y670560D01*
X702310D01*
Y673100D01*
X704850D01*
Y678180D01*
X702310D01*
Y680720D01*
X697230D01*
Y678180D01*
X694690D01*
Y673100D01*
X697230D01*
X688340Y619760D02*
Y617220D01*
X693420D01*
Y619760D01*
X695960D01*
Y624840D01*
X693420D01*
Y627380D01*
X688340D01*
Y624840D01*
X685800D01*
Y619760D01*
X688340D01*
X697230Y601980D02*
Y599440D01*
X702310D01*
Y601980D01*
X704850D01*
Y607060D01*
X702310D01*
Y609600D01*
X697230D01*
Y607060D01*
X694690D01*
Y601980D01*
X697230D01*
X688340Y584200D02*
Y581660D01*
X693420D01*
Y584200D01*
X695960D01*
Y589280D01*
X693420D01*
Y591820D01*
X688340D01*
Y589280D01*
X685800D01*
Y584200D01*
X688340D01*
X697230Y566420D02*
Y563880D01*
X702310D01*
Y566420D01*
X704850D01*
Y571500D01*
X702310D01*
Y574040D01*
X697230D01*
Y571500D01*
X694690D01*
Y566420D01*
X697230D01*
X688340Y548640D02*
Y546100D01*
X693420D01*
Y548640D01*
X695960D01*
Y553720D01*
X693420D01*
Y556260D01*
X688340D01*
Y553720D01*
X685800D01*
Y548640D01*
X688340D01*
X697230Y530860D02*
Y528320D01*
X702310D01*
Y530860D01*
X704850D01*
Y535940D01*
X702310D01*
Y538480D01*
X697230D01*
Y535940D01*
X694690D01*
Y530860D01*
X697230D01*
X688340Y513080D02*
Y510540D01*
X693420D01*
Y513080D01*
X695960D01*
Y518160D01*
X693420D01*
Y520700D01*
X688340D01*
Y518160D01*
X685800D01*
Y513080D01*
X688340D01*
X697230Y495300D02*
Y492760D01*
X702310D01*
Y495300D01*
X704850D01*
Y500380D01*
X702310D01*
Y502920D01*
X697230D01*
Y500380D01*
X694690D01*
Y495300D01*
X697230D01*
X688340Y477520D02*
Y474980D01*
X693420D01*
Y477520D01*
X695960D01*
Y482600D01*
X693420D01*
Y485140D01*
X688340D01*
Y482600D01*
X685800D01*
Y477520D01*
X688340D01*
X697230Y459740D02*
Y457200D01*
X702310D01*
Y459740D01*
X704850D01*
Y464820D01*
X702310D01*
Y467360D01*
X697230D01*
Y464820D01*
X694690D01*
Y459740D01*
X697230D01*
X688340Y441960D02*
Y439420D01*
X693420D01*
Y441960D01*
X695960D01*
Y447040D01*
X693420D01*
Y449580D01*
X688340D01*
Y447040D01*
X685800D01*
Y441960D01*
X688340D01*
X679450Y1099820D02*
Y1097280D01*
X684530D01*
Y1099820D01*
X687070D01*
Y1104900D01*
X684530D01*
Y1107440D01*
X679450D01*
Y1104900D01*
X676910D01*
Y1099820D01*
X679450D01*
X670560Y1010920D02*
Y1008380D01*
X675640D01*
Y1010920D01*
X678180D01*
Y1016000D01*
X675640D01*
Y1018540D01*
X670560D01*
Y1016000D01*
X668020D01*
Y1010920D01*
X670560D01*
X679450Y779780D02*
Y777240D01*
X684530D01*
Y779780D01*
X687070D01*
Y784860D01*
X684530D01*
Y787400D01*
X679450D01*
Y784860D01*
X676910D01*
Y779780D01*
X679450D01*
Y708660D02*
Y706120D01*
X684530D01*
Y708660D01*
X687070D01*
Y713740D01*
X684530D01*
Y716280D01*
X679450D01*
Y713740D01*
X676910D01*
Y708660D01*
X679450D01*
Y673100D02*
Y670560D01*
X684530D01*
Y673100D01*
X687070D01*
Y678180D01*
X684530D01*
Y680720D01*
X679450D01*
Y678180D01*
X676910D01*
Y673100D01*
X679450D01*
Y637540D02*
Y635000D01*
X684530D01*
Y637540D01*
X687070D01*
Y642620D01*
X684530D01*
Y645160D01*
X679450D01*
Y642620D01*
X676910D01*
Y637540D01*
X679450D01*
Y601980D02*
Y599440D01*
X684530D01*
Y601980D01*
X687070D01*
Y607060D01*
X684530D01*
Y609600D01*
X679450D01*
Y607060D01*
X676910D01*
Y601980D01*
X679450D01*
Y566420D02*
Y563880D01*
X684530D01*
Y566420D01*
X687070D01*
Y571500D01*
X684530D01*
Y574040D01*
X679450D01*
Y571500D01*
X676910D01*
Y566420D01*
X679450D01*
Y530860D02*
Y528320D01*
X684530D01*
Y530860D01*
X687070D01*
Y535940D01*
X684530D01*
Y538480D01*
X679450D01*
Y535940D01*
X676910D01*
Y530860D01*
X679450D01*
Y495300D02*
Y492760D01*
X684530D01*
Y495300D01*
X687070D01*
Y500380D01*
X684530D01*
Y502920D01*
X679450D01*
Y500380D01*
X676910D01*
Y495300D01*
X679450D01*
Y459740D02*
Y457200D01*
X684530D01*
Y459740D01*
X687070D01*
Y464820D01*
X684530D01*
Y467360D01*
X679450D01*
Y464820D01*
X676910D01*
Y459740D01*
X679450D01*
X652780Y1082040D02*
Y1079500D01*
X657860D01*
Y1082040D01*
X660400D01*
Y1087120D01*
X657860D01*
Y1089660D01*
X652780D01*
Y1087120D01*
X650240D01*
Y1082040D01*
X652780D01*
Y1046480D02*
Y1043940D01*
X657860D01*
Y1046480D01*
X660400D01*
Y1051560D01*
X657860D01*
Y1054100D01*
X652780D01*
Y1051560D01*
X650240D01*
Y1046480D01*
X652780D01*
X661670Y1028700D02*
Y1026160D01*
X666750D01*
Y1028700D01*
X669290D01*
Y1033780D01*
X666750D01*
Y1036320D01*
X661670D01*
Y1033780D01*
X659130D01*
Y1028700D01*
X661670D01*
X652780Y939800D02*
Y937260D01*
X657860D01*
Y939800D01*
X660400D01*
Y944880D01*
X657860D01*
Y947420D01*
X652780D01*
Y944880D01*
X650240D01*
Y939800D01*
X652780D01*
X635000Y1082040D02*
Y1079500D01*
X640080D01*
Y1082040D01*
X642620D01*
Y1087120D01*
X640080D01*
Y1089660D01*
X635000D01*
Y1087120D01*
X632460D01*
Y1082040D01*
X635000D01*
X643890Y1028700D02*
Y1026160D01*
X648970D01*
Y1028700D01*
X651510D01*
Y1033780D01*
X648970D01*
Y1036320D01*
X643890D01*
Y1033780D01*
X641350D01*
Y1028700D01*
X643890D01*
X617220Y1082040D02*
Y1079500D01*
X622300D01*
Y1082040D01*
X624840D01*
Y1087120D01*
X622300D01*
Y1089660D01*
X617220D01*
Y1087120D01*
X614680D01*
Y1082040D01*
X617220D01*
X626110Y1028700D02*
Y1026160D01*
X631190D01*
Y1028700D01*
X633730D01*
Y1033780D01*
X631190D01*
Y1036320D01*
X626110D01*
Y1033780D01*
X623570D01*
Y1028700D01*
X626110D01*
X820420Y604520D02*
X815340Y614680D01*
X825500D01*
X820420Y604520D01*
X817880Y629920D02*
X812800Y640080D01*
X822960D01*
X817880Y629920D01*
X866593Y642167D02*
X861513Y652327D01*
X871673D01*
X866593Y642167D01*
X845820Y715645D02*
X840740Y725805D01*
X850900D01*
X845820Y715645D01*
X789940Y734060D02*
X792480Y739140D01*
X789940Y744220D01*
X795020Y741680D01*
X800100Y744220D01*
X797560Y739140D01*
X800100Y734060D01*
X795020Y736600D01*
X789940Y734060D01*
X776184Y741747D02*
X778724Y746826D01*
X776184Y751907D01*
X781264Y749367D01*
X786344Y751907D01*
X783804Y746826D01*
X786344Y741747D01*
X781264Y744286D01*
X776184Y741747D01*
X775970Y725170D02*
X778510Y730250D01*
X775970Y735330D01*
X781050Y732790D01*
X786130Y735330D01*
X783590Y730250D01*
X786130Y725170D01*
X781050Y727710D01*
X775970Y725170D01*
X788670Y750570D02*
X791210Y755650D01*
X788670Y760730D01*
X793750Y758190D01*
X798830Y760730D01*
X796290Y755650D01*
X798830Y750570D01*
X793750Y753110D01*
X788670Y750570D01*
X919480Y949960D02*
X914400Y960120D01*
X924560D01*
X919480Y949960D01*
X929005Y942340D02*
X923925Y952500D01*
X934085D01*
X929005Y942340D01*
X779780Y1023620D02*
Y1021080D01*
X784860D01*
Y1023620D01*
X787400D01*
Y1028700D01*
X784860D01*
Y1031240D01*
X779780D01*
Y1028700D01*
X777240D01*
Y1023620D01*
X779780D01*
X891540Y955040D02*
Y952500D01*
X896620D01*
Y955040D01*
X899160D01*
Y960120D01*
X896620D01*
Y962660D01*
X891540D01*
Y960120D01*
X889000D01*
Y955040D01*
X891540D01*
X806660Y955457D02*
Y952917D01*
X811740D01*
Y955457D01*
X814280D01*
Y960537D01*
X811740D01*
Y963077D01*
X806660D01*
Y960537D01*
X804120D01*
Y955457D01*
X806660D01*
X822960Y1056640D02*
X817880Y1066800D01*
X828040D01*
X822960Y1056640D01*
X840246Y1056146D02*
X835166Y1066306D01*
X845326D01*
X840246Y1056146D01*
D79*
X850900Y591820D02*
G03*
X850900Y591820I-5080J0D01*
G01*
X876300Y566420D02*
G03*
X876300Y566420I-5080J0D01*
G01*
X901700Y591820D02*
G03*
X901700Y591820I-5080J0D01*
G01*
M02*
