G04*
G04 #@! TF.GenerationSoftware,Altium Limited,Altium Designer,24.7.2 (38)*
G04*
G04 Layer_Physical_Order=2*
G04 Layer_Color=16711680*
%FSLAX44Y44*%
%MOMM*%
G71*
G04*
G04 #@! TF.SameCoordinates,60CCB1E2-045B-4953-842A-C3EC13AC8E9E*
G04*
G04*
G04 #@! TF.FilePolarity,Positive*
G04*
G01*
G75*
%ADD60R,1.1500X1.1500*%
%ADD61C,1.1500*%
%ADD70C,0.2540*%
%ADD71C,0.5080*%
%ADD72C,2.5400*%
%ADD73R,1.7000X1.7000*%
%ADD74C,1.7000*%
%ADD75R,1.2700X1.2700*%
%ADD76C,1.2700*%
%ADD77C,1.0160*%
%ADD78C,0.6350*%
G36*
X1000063Y1019739D02*
Y867410D01*
X1000063Y435037D01*
X669987D01*
Y914400D01*
X669741Y915639D01*
X669039Y916689D01*
X579817Y1005911D01*
Y1033145D01*
Y1095375D01*
Y1123253D01*
X896549D01*
X1000063Y1019739D01*
D02*
G37*
%LPC*%
G36*
X852070Y1104900D02*
X849730D01*
X847469Y1104294D01*
X845441Y1103124D01*
X843786Y1101469D01*
X842686Y1099563D01*
X842010Y1099460D01*
X841334Y1099563D01*
X840234Y1101469D01*
X838579Y1103124D01*
X836551Y1104294D01*
X834290Y1104900D01*
X831950D01*
X829689Y1104294D01*
X827661Y1103124D01*
X826006Y1101469D01*
X824906Y1099563D01*
X824230Y1099460D01*
X823554Y1099563D01*
X822454Y1101469D01*
X820799Y1103124D01*
X818771Y1104294D01*
X816510Y1104900D01*
X814170D01*
X811909Y1104294D01*
X809881Y1103124D01*
X808226Y1101469D01*
X807126Y1099563D01*
X806450Y1099460D01*
X805774Y1099563D01*
X804674Y1101469D01*
X803019Y1103124D01*
X800991Y1104294D01*
X798730Y1104900D01*
X796390D01*
X794129Y1104294D01*
X792101Y1103124D01*
X790446Y1101469D01*
X789346Y1099563D01*
X788670Y1099460D01*
X787994Y1099563D01*
X786894Y1101469D01*
X785239Y1103124D01*
X783211Y1104294D01*
X780950Y1104900D01*
X778610D01*
X776349Y1104294D01*
X774321Y1103124D01*
X772666Y1101469D01*
X771496Y1099441D01*
X770890Y1097180D01*
Y1094840D01*
X771496Y1092579D01*
X772666Y1090551D01*
X774321Y1088896D01*
X776227Y1087796D01*
X776330Y1087120D01*
X776227Y1086444D01*
X774321Y1085344D01*
X772666Y1083689D01*
X771496Y1081661D01*
X770890Y1079400D01*
Y1077060D01*
X771496Y1074799D01*
X772666Y1072771D01*
X774321Y1071116D01*
X776349Y1069946D01*
X778610Y1069340D01*
X780950D01*
X783211Y1069946D01*
X785239Y1071116D01*
X786894Y1072771D01*
X787994Y1074677D01*
X788670Y1074780D01*
X789346Y1074677D01*
X790446Y1072771D01*
X792101Y1071116D01*
X794129Y1069946D01*
X796390Y1069340D01*
X798730D01*
X800991Y1069946D01*
X803019Y1071116D01*
X804674Y1072771D01*
X805774Y1074677D01*
X806450Y1074780D01*
X807126Y1074677D01*
X808226Y1072771D01*
X809881Y1071116D01*
X811909Y1069946D01*
X814170Y1069340D01*
X816510D01*
X818771Y1069946D01*
X820799Y1071116D01*
X822454Y1072771D01*
X823554Y1074677D01*
X824230Y1074780D01*
X824906Y1074677D01*
X826006Y1072771D01*
X827661Y1071116D01*
X829689Y1069946D01*
X831950Y1069340D01*
X834290D01*
X836551Y1069946D01*
X838579Y1071116D01*
X840234Y1072771D01*
X841334Y1074677D01*
X842010Y1074780D01*
X842686Y1074677D01*
X843786Y1072771D01*
X845441Y1071116D01*
X847469Y1069946D01*
X849730Y1069340D01*
X852070D01*
X854331Y1069946D01*
X856359Y1071116D01*
X858014Y1072771D01*
X859114Y1074677D01*
X859790Y1074780D01*
X860466Y1074677D01*
X861566Y1072771D01*
X863221Y1071116D01*
X865249Y1069946D01*
X867510Y1069340D01*
X869850D01*
X872111Y1069946D01*
X874139Y1071116D01*
X875794Y1072771D01*
X876964Y1074799D01*
X877570Y1077060D01*
Y1079400D01*
X876964Y1081661D01*
X875794Y1083689D01*
X874139Y1085344D01*
X872111Y1086514D01*
X869850Y1087120D01*
X867510D01*
X865249Y1086514D01*
X863221Y1085344D01*
X861566Y1083689D01*
X860466Y1081783D01*
X859790Y1081680D01*
X859114Y1081783D01*
X858014Y1083689D01*
X856359Y1085344D01*
X854453Y1086444D01*
X854350Y1087120D01*
X854453Y1087796D01*
X856359Y1088896D01*
X858014Y1090551D01*
X859184Y1092579D01*
X859790Y1094840D01*
Y1097180D01*
X859184Y1099441D01*
X858014Y1101469D01*
X856359Y1103124D01*
X854331Y1104294D01*
X852070Y1104900D01*
D02*
G37*
G36*
X783323Y1033780D02*
X781317D01*
X779379Y1033261D01*
X777641Y1032258D01*
X776223Y1030839D01*
X775219Y1029101D01*
X774700Y1027163D01*
Y1025157D01*
X775219Y1023219D01*
X776223Y1021481D01*
X777641Y1020062D01*
X779379Y1019059D01*
X781317Y1018540D01*
X782615D01*
X804020Y997135D01*
Y970280D01*
Y963594D01*
X803102Y962676D01*
X802099Y960938D01*
X801580Y959000D01*
Y956994D01*
X802099Y955056D01*
X803102Y953318D01*
X804521Y951899D01*
X806259Y950896D01*
X808197Y950377D01*
X810203D01*
X812141Y950896D01*
X813879Y951899D01*
X815297Y953318D01*
X816301Y955056D01*
X816820Y956994D01*
Y959000D01*
X816301Y960938D01*
X815297Y962676D01*
X814380Y963594D01*
Y965100D01*
X879235D01*
X886460Y957875D01*
Y956577D01*
X886979Y954639D01*
X887982Y952901D01*
X889401Y951482D01*
X891139Y950479D01*
X893077Y949960D01*
X895083D01*
X897021Y950479D01*
X898759Y951482D01*
X900178Y952901D01*
X901181Y954639D01*
X901700Y956577D01*
Y958583D01*
X901181Y960521D01*
X900178Y962259D01*
X898759Y963678D01*
X897021Y964681D01*
X895083Y965200D01*
X893785D01*
X885042Y973942D01*
X883362Y975065D01*
X881380Y975460D01*
X814380D01*
Y999280D01*
X813985Y1001262D01*
X812862Y1002943D01*
X789940Y1025865D01*
Y1027163D01*
X789421Y1029101D01*
X788418Y1030839D01*
X786999Y1032258D01*
X785261Y1033261D01*
X783323Y1033780D01*
D02*
G37*
G36*
X824097Y1067435D02*
X821823D01*
X819723Y1066565D01*
X818115Y1064957D01*
X817245Y1062857D01*
Y1060583D01*
X818115Y1058483D01*
X819723Y1056875D01*
X821823Y1056005D01*
X824097D01*
X825246Y1056481D01*
X915595Y966131D01*
Y959238D01*
X914635Y958277D01*
X913765Y956177D01*
Y953903D01*
X914635Y951803D01*
X916243Y950195D01*
X918343Y949325D01*
X920617D01*
X922568Y950133D01*
X923033Y949868D01*
X923593Y949288D01*
X923290Y948557D01*
Y946283D01*
X924160Y944183D01*
X925768Y942575D01*
X927868Y941705D01*
X930142D01*
X932242Y942575D01*
X933850Y944183D01*
X934720Y946283D01*
Y948557D01*
X933850Y950657D01*
X932890Y951618D01*
Y963295D01*
X932594Y964782D01*
X931752Y966042D01*
X926657Y971136D01*
X926037Y972065D01*
X844130Y1053971D01*
Y1057028D01*
X845091Y1057989D01*
X845961Y1060089D01*
Y1062363D01*
X845091Y1064463D01*
X843483Y1066071D01*
X841383Y1066941D01*
X839109D01*
X837009Y1066071D01*
X835401Y1064463D01*
X834531Y1062363D01*
Y1060089D01*
X834609Y1059901D01*
X833532Y1059182D01*
X828976Y1063738D01*
X828055Y1064353D01*
X827805Y1064957D01*
X826197Y1066565D01*
X824097Y1067435D01*
D02*
G37*
G36*
X897022Y897940D02*
X862563D01*
X862231Y897874D01*
X861893Y897851D01*
X858663Y896986D01*
X858359Y896836D01*
X858038Y896727D01*
X855142Y895055D01*
X854887Y894832D01*
X854606Y894644D01*
X852241Y892279D01*
X852053Y891998D01*
X851830Y891743D01*
X850158Y888847D01*
X850049Y888526D01*
X849899Y888222D01*
X849034Y884992D01*
X849011Y884654D01*
X848945Y884322D01*
Y880978D01*
X849011Y880646D01*
X849034Y880308D01*
X849899Y877078D01*
X850049Y876774D01*
X850158Y876453D01*
X851830Y873557D01*
X852053Y873303D01*
X852241Y873021D01*
X854606Y870656D01*
X854887Y870468D01*
X855142Y870245D01*
X858038Y868573D01*
X858359Y868464D01*
X858663Y868314D01*
X861893Y867449D01*
X862231Y867426D01*
X862563Y867360D01*
X897022D01*
X897354Y867426D01*
X897692Y867449D01*
X900922Y868314D01*
X901226Y868464D01*
X901547Y868573D01*
X904443Y870245D01*
X904697Y870468D01*
X904979Y870656D01*
X907344Y873021D01*
X907532Y873303D01*
X907755Y873557D01*
X909427Y876453D01*
X909536Y876774D01*
X909686Y877078D01*
X910552Y880308D01*
X910574Y880646D01*
X910640Y880978D01*
Y884322D01*
X910574Y884654D01*
X910552Y884992D01*
X909686Y888222D01*
X909536Y888526D01*
X909427Y888847D01*
X907755Y891743D01*
X907532Y891998D01*
X907344Y892279D01*
X904979Y894644D01*
X904697Y894832D01*
X904443Y895055D01*
X901547Y896727D01*
X901226Y896836D01*
X900922Y896986D01*
X897692Y897851D01*
X897354Y897874D01*
X897022Y897940D01*
D02*
G37*
G36*
X820187D02*
X780013D01*
X779681Y897874D01*
X779343Y897851D01*
X776113Y896986D01*
X775809Y896836D01*
X775488Y896727D01*
X772592Y895055D01*
X772337Y894832D01*
X772056Y894644D01*
X769691Y892279D01*
X769503Y891998D01*
X769280Y891743D01*
X767608Y888847D01*
X767499Y888526D01*
X767349Y888222D01*
X766484Y884992D01*
X766461Y884654D01*
X766395Y884322D01*
Y880978D01*
X766461Y880646D01*
X766484Y880308D01*
X767349Y877078D01*
X767499Y876774D01*
X767608Y876453D01*
X769280Y873557D01*
X769503Y873303D01*
X769691Y873021D01*
X772056Y870656D01*
X772337Y870468D01*
X772592Y870245D01*
X775488Y868573D01*
X775809Y868464D01*
X776113Y868314D01*
X779343Y867449D01*
X779681Y867426D01*
X780013Y867360D01*
X820187D01*
X820519Y867426D01*
X820857Y867449D01*
X824087Y868314D01*
X824391Y868464D01*
X824712Y868573D01*
X827608Y870245D01*
X827862Y870468D01*
X828144Y870656D01*
X830509Y873021D01*
X830697Y873303D01*
X830920Y873557D01*
X832592Y876453D01*
X832701Y876774D01*
X832851Y877078D01*
X833717Y880308D01*
X833739Y880646D01*
X833805Y880978D01*
Y884322D01*
X833739Y884654D01*
X833717Y884992D01*
X832851Y888222D01*
X832701Y888526D01*
X832592Y888847D01*
X830920Y891743D01*
X830697Y891998D01*
X830509Y892279D01*
X828144Y894644D01*
X827862Y894832D01*
X827608Y895055D01*
X824712Y896727D01*
X824391Y896836D01*
X824087Y896986D01*
X820857Y897851D01*
X820519Y897874D01*
X820187Y897940D01*
D02*
G37*
G36*
X737637D02*
X697463D01*
X697131Y897874D01*
X696793Y897851D01*
X693563Y896986D01*
X693259Y896836D01*
X692938Y896727D01*
X690042Y895055D01*
X689788Y894832D01*
X689506Y894644D01*
X687141Y892279D01*
X686953Y891998D01*
X686730Y891743D01*
X685058Y888847D01*
X684949Y888526D01*
X684799Y888222D01*
X683933Y884992D01*
X683911Y884654D01*
X683845Y884322D01*
Y880978D01*
X683911Y880646D01*
X683933Y880308D01*
X684799Y877078D01*
X684949Y876774D01*
X685058Y876453D01*
X686730Y873557D01*
X686953Y873303D01*
X687141Y873021D01*
X689506Y870656D01*
X689788Y870468D01*
X690042Y870245D01*
X692938Y868573D01*
X693259Y868464D01*
X693563Y868314D01*
X696793Y867449D01*
X697131Y867426D01*
X697463Y867360D01*
X737637D01*
X737969Y867426D01*
X738307Y867449D01*
X741537Y868314D01*
X741841Y868464D01*
X742162Y868573D01*
X745058Y870245D01*
X745312Y870468D01*
X745594Y870656D01*
X747959Y873021D01*
X748147Y873303D01*
X748370Y873557D01*
X750042Y876453D01*
X750151Y876774D01*
X750301Y877078D01*
X751167Y880308D01*
X751189Y880646D01*
X751255Y880978D01*
Y884322D01*
X751189Y884654D01*
X751167Y884992D01*
X750301Y888222D01*
X750151Y888526D01*
X750042Y888847D01*
X748370Y891743D01*
X748147Y891998D01*
X747959Y892279D01*
X745594Y894644D01*
X745312Y894832D01*
X745058Y895055D01*
X742162Y896727D01*
X741841Y896836D01*
X741537Y896986D01*
X738307Y897851D01*
X737969Y897874D01*
X737637Y897940D01*
D02*
G37*
G36*
X787400Y764590D02*
X784412Y764296D01*
X781540Y763424D01*
X778892Y762009D01*
X776572Y760105D01*
X774667Y757784D01*
X773252Y755137D01*
X772381Y752264D01*
X772086Y749276D01*
Y688864D01*
X771770Y688644D01*
X770500Y689309D01*
Y704460D01*
X748420D01*
Y682835D01*
X744831D01*
X744831Y682835D01*
X741843Y682541D01*
X738970Y681669D01*
X736323Y680254D01*
X734002Y678350D01*
X723232Y667579D01*
X721327Y665258D01*
X719912Y662611D01*
X719041Y659738D01*
X718746Y656750D01*
Y649510D01*
X717520Y649182D01*
X717394Y649399D01*
X715339Y651454D01*
X712821Y652908D01*
X710013Y653660D01*
X707107D01*
X704299Y652908D01*
X701781Y651454D01*
X699726Y649399D01*
X698272Y646881D01*
X697520Y644073D01*
Y641167D01*
X698272Y638359D01*
X699726Y635841D01*
X701781Y633786D01*
X704299Y632332D01*
X707107Y631580D01*
X710013D01*
X712821Y632332D01*
X715339Y633786D01*
X717394Y635841D01*
X718357Y637509D01*
X719733Y637351D01*
X719912Y636760D01*
X721327Y634112D01*
X723232Y631791D01*
X725552Y629887D01*
X728200Y628472D01*
X731072Y627601D01*
X734060Y627306D01*
X737048Y627601D01*
X739920Y628472D01*
X742568Y629887D01*
X744889Y631791D01*
X746793Y634112D01*
X747250Y634967D01*
X748520Y634649D01*
Y631580D01*
X770600D01*
Y652207D01*
X773191D01*
X776179Y652502D01*
X779052Y653373D01*
X781699Y654788D01*
X784020Y656693D01*
X798229Y670901D01*
X800133Y673222D01*
X801548Y675869D01*
X802420Y678742D01*
X802714Y681730D01*
X802714Y681730D01*
Y734686D01*
X803304Y735709D01*
X803910Y737970D01*
Y740310D01*
X803304Y742571D01*
X802714Y743594D01*
Y749276D01*
X802420Y752264D01*
X802221Y752917D01*
X802640Y754480D01*
Y756820D01*
X802034Y759081D01*
X800864Y761109D01*
X799209Y762764D01*
X797181Y763934D01*
X794920Y764540D01*
X792580D01*
X790988Y764114D01*
X790388Y764296D01*
X787400Y764590D01*
D02*
G37*
G36*
X735413Y704460D02*
X732507D01*
X729699Y703708D01*
X727181Y702254D01*
X725126Y700199D01*
X723672Y697681D01*
X722920Y694873D01*
Y691967D01*
X723672Y689159D01*
X725126Y686641D01*
X727181Y684586D01*
X729699Y683132D01*
X732507Y682380D01*
X735413D01*
X738221Y683132D01*
X740739Y684586D01*
X742794Y686641D01*
X744248Y689159D01*
X745000Y691967D01*
Y694873D01*
X744248Y697681D01*
X742794Y700199D01*
X740739Y702254D01*
X738221Y703708D01*
X735413Y704460D01*
D02*
G37*
G36*
X846957Y726440D02*
X844683D01*
X842583Y725570D01*
X840975Y723962D01*
X840105Y721862D01*
Y719588D01*
X840665Y718235D01*
Y669290D01*
X840961Y667803D01*
X841803Y666543D01*
X860878Y647468D01*
Y646110D01*
X861748Y644009D01*
X863356Y642402D01*
X865457Y641532D01*
X867730D01*
X869831Y642402D01*
X871438Y644009D01*
X872308Y646110D01*
Y648383D01*
X871438Y650484D01*
X869831Y652092D01*
X867730Y652962D01*
X866372D01*
X848435Y670899D01*
Y715622D01*
X849057Y715880D01*
X850665Y717488D01*
X851535Y719588D01*
Y721862D01*
X850665Y723962D01*
X849057Y725570D01*
X846957Y726440D01*
D02*
G37*
G36*
X819017Y640715D02*
X816743D01*
X814643Y639845D01*
X813035Y638237D01*
X812165Y636137D01*
Y633863D01*
X813035Y631763D01*
X814643Y630155D01*
X815240Y629907D01*
Y612030D01*
X814705Y610737D01*
Y608463D01*
X815575Y606363D01*
X817183Y604755D01*
X819283Y603885D01*
X821557D01*
X823657Y604755D01*
X825265Y606363D01*
X826135Y608463D01*
Y610737D01*
X825600Y612030D01*
Y632116D01*
X825205Y634099D01*
X824082Y635779D01*
X823503Y636358D01*
X822725Y638237D01*
X821117Y639845D01*
X819017Y640715D01*
D02*
G37*
G36*
X897711Y600110D02*
X895529D01*
X893420Y599545D01*
X891530Y598454D01*
X889986Y596910D01*
X888895Y595020D01*
X888330Y592911D01*
Y590729D01*
X888895Y588620D01*
X889986Y586730D01*
X891530Y585186D01*
X893420Y584095D01*
X895529Y583530D01*
X897711D01*
X899820Y584095D01*
X901710Y585186D01*
X903254Y586730D01*
X904345Y588620D01*
X904910Y590729D01*
Y592911D01*
X904345Y595020D01*
X903254Y596910D01*
X901710Y598454D01*
X899820Y599545D01*
X897711Y600110D01*
D02*
G37*
G36*
X854110D02*
X837530D01*
Y583530D01*
X854110D01*
Y600110D01*
D02*
G37*
%LPD*%
D60*
X845820Y591820D02*
D03*
D61*
X871220Y566420D02*
D03*
X896620Y591820D02*
D03*
D70*
X923290Y969010D02*
X929005Y963295D01*
X840246Y1052362D02*
X923290Y969318D01*
X929005Y947420D02*
Y963295D01*
X840246Y1052362D02*
Y1061226D01*
X923290Y969010D02*
Y969318D01*
X844550Y669290D02*
X866593Y647247D01*
X845820Y719694D02*
Y720725D01*
X844550Y669290D02*
Y718424D01*
X845820Y719694D01*
X919480Y955040D02*
Y967740D01*
X826229Y1060991D02*
X919480Y967740D01*
X823689Y1060991D02*
X826229D01*
X822960Y1061720D02*
X823689Y1060991D01*
D71*
X817880Y634656D02*
X820420Y632116D01*
X817880Y634656D02*
Y635000D01*
X820420Y609600D02*
Y632116D01*
X809200Y970280D02*
Y999280D01*
Y957997D02*
Y970280D01*
X881380D01*
X894080Y957580D01*
X782320Y1026160D02*
X809200Y999280D01*
D72*
X787400Y681730D02*
Y749276D01*
X744831Y667521D02*
X773191D01*
X787400Y681730D01*
X734060Y656750D02*
X744831Y667521D01*
X734060Y642620D02*
Y656750D01*
D73*
X759560Y642620D02*
D03*
X759460Y693420D02*
D03*
D74*
X734060Y642620D02*
D03*
X708560D02*
D03*
X733960Y693420D02*
D03*
X708460D02*
D03*
D75*
X886460Y1096010D02*
D03*
D76*
X868680D02*
D03*
X850900D02*
D03*
X833120D02*
D03*
X815340D02*
D03*
X797560D02*
D03*
X779780D02*
D03*
X886460Y1078230D02*
D03*
X868680D02*
D03*
X850900D02*
D03*
X833120D02*
D03*
X815340D02*
D03*
X797560D02*
D03*
X779780D02*
D03*
X795020Y739140D02*
D03*
X781264Y746826D02*
D03*
X781050Y730250D02*
D03*
X793750Y755650D02*
D03*
D77*
X975360Y1013460D02*
D03*
X984250Y995680D02*
D03*
X975360Y977900D02*
D03*
X984250Y960120D02*
D03*
X975360Y942340D02*
D03*
X984250Y924560D02*
D03*
X975360Y906780D02*
D03*
X984250Y889000D02*
D03*
X975360Y871220D02*
D03*
X984250Y853440D02*
D03*
Y640080D02*
D03*
X975360Y622300D02*
D03*
X984250Y604520D02*
D03*
X975360Y586740D02*
D03*
X984250Y568960D02*
D03*
X957580Y1049020D02*
D03*
X966470Y995680D02*
D03*
Y960120D02*
D03*
X957580Y942340D02*
D03*
X966470Y924560D02*
D03*
X957580Y906780D02*
D03*
X966470Y889000D02*
D03*
X957580Y871220D02*
D03*
Y800100D02*
D03*
Y764540D02*
D03*
Y728980D02*
D03*
X966470Y604520D02*
D03*
X957580Y586740D02*
D03*
X966470Y568960D02*
D03*
Y497840D02*
D03*
X939800Y1049020D02*
D03*
X948690Y782320D02*
D03*
Y746760D02*
D03*
Y604520D02*
D03*
X939800Y586740D02*
D03*
X948690Y568960D02*
D03*
Y497840D02*
D03*
X922020Y1084580D02*
D03*
X930910Y1066800D02*
D03*
Y711200D02*
D03*
X922020Y586740D02*
D03*
X930910Y568960D02*
D03*
X922020Y551180D02*
D03*
Y444500D02*
D03*
X904240Y1084580D02*
D03*
X913130Y1066800D02*
D03*
X904240Y906780D02*
D03*
Y764540D02*
D03*
X913130Y711200D02*
D03*
Y568960D02*
D03*
X904240Y551180D02*
D03*
X913130Y533400D02*
D03*
X904240Y444500D02*
D03*
X895350Y1066800D02*
D03*
X886460Y1049020D02*
D03*
Y906780D02*
D03*
Y835660D02*
D03*
Y764540D02*
D03*
X895350Y746760D02*
D03*
Y640080D02*
D03*
Y568960D02*
D03*
X886460Y551180D02*
D03*
X895350Y533400D02*
D03*
X886460Y515620D02*
D03*
X895350Y497840D02*
D03*
X886460Y444500D02*
D03*
X877570Y1066800D02*
D03*
X868680Y906780D02*
D03*
X877570Y853440D02*
D03*
X868680Y835660D02*
D03*
Y764540D02*
D03*
X877570Y746760D02*
D03*
X868680Y586740D02*
D03*
Y551180D02*
D03*
X877570Y497840D02*
D03*
X868680Y444500D02*
D03*
X850900Y1013460D02*
D03*
X859790Y995680D02*
D03*
X850900Y906780D02*
D03*
X859790Y853440D02*
D03*
X850900Y835660D02*
D03*
Y764540D02*
D03*
X859790Y746760D02*
D03*
Y711200D02*
D03*
X850900Y551180D02*
D03*
X859790Y497840D02*
D03*
X850900Y444500D02*
D03*
X833120Y1013460D02*
D03*
X842010Y995680D02*
D03*
X833120Y906780D02*
D03*
X842010Y889000D02*
D03*
Y853440D02*
D03*
X833120Y835660D02*
D03*
Y764540D02*
D03*
X842010Y746760D02*
D03*
X833120Y728980D02*
D03*
X842010Y568960D02*
D03*
X833120Y551180D02*
D03*
X842010Y533400D02*
D03*
X833120Y444500D02*
D03*
X824230Y995680D02*
D03*
Y924560D02*
D03*
X815340Y906780D02*
D03*
X824230Y853440D02*
D03*
X815340Y835660D02*
D03*
X824230Y817880D02*
D03*
Y746760D02*
D03*
X815340Y728980D02*
D03*
Y515620D02*
D03*
X824230Y497840D02*
D03*
X815340Y444500D02*
D03*
X806450Y1066800D02*
D03*
X797560Y906780D02*
D03*
X806450Y853440D02*
D03*
X797560Y835660D02*
D03*
X806450Y817880D02*
D03*
X797560Y800100D02*
D03*
X806450Y604520D02*
D03*
X797560Y586740D02*
D03*
X806450Y568960D02*
D03*
X797560Y551180D02*
D03*
X806450Y533400D02*
D03*
X797560Y515620D02*
D03*
X806450Y497840D02*
D03*
X797560Y444500D02*
D03*
X788670Y1066800D02*
D03*
Y924560D02*
D03*
X779780Y906780D02*
D03*
X788670Y853440D02*
D03*
X779780Y835660D02*
D03*
X788670Y817880D02*
D03*
Y782320D02*
D03*
X779780Y622300D02*
D03*
Y586740D02*
D03*
X788670Y568960D02*
D03*
X779780Y551180D02*
D03*
X788670Y533400D02*
D03*
X779780Y515620D02*
D03*
X788670Y497840D02*
D03*
X779780Y444500D02*
D03*
X770890Y1066800D02*
D03*
X762000Y1013460D02*
D03*
Y906780D02*
D03*
Y871220D02*
D03*
X770890Y853440D02*
D03*
X762000Y835660D02*
D03*
Y764540D02*
D03*
Y622300D02*
D03*
Y551180D02*
D03*
X770890Y533400D02*
D03*
X762000Y515620D02*
D03*
Y444500D02*
D03*
X744220Y1013460D02*
D03*
Y906780D02*
D03*
X753110Y853440D02*
D03*
X744220Y728980D02*
D03*
X753110Y711200D02*
D03*
X744220Y551180D02*
D03*
X753110Y533400D02*
D03*
X744220Y515620D02*
D03*
Y444500D02*
D03*
X735330Y1031240D02*
D03*
X726440Y1013460D02*
D03*
X735330Y960120D02*
D03*
X726440Y906780D02*
D03*
X735330Y853440D02*
D03*
X726440Y764540D02*
D03*
X735330Y746760D02*
D03*
X726440Y728980D02*
D03*
Y551180D02*
D03*
X735330Y533400D02*
D03*
X726440Y515620D02*
D03*
Y444500D02*
D03*
X717550Y1102360D02*
D03*
X708660Y1084580D02*
D03*
X717550Y1031240D02*
D03*
X708660Y1013460D02*
D03*
Y977900D02*
D03*
Y906780D02*
D03*
X717550Y711200D02*
D03*
X708660Y586740D02*
D03*
X717550Y568960D02*
D03*
X708660Y551180D02*
D03*
X717550Y533400D02*
D03*
X708660Y515620D02*
D03*
X717550Y497840D02*
D03*
X708660Y480060D02*
D03*
X717550Y462280D02*
D03*
X708660Y444500D02*
D03*
X699770Y1102360D02*
D03*
Y1031240D02*
D03*
X690880Y1013460D02*
D03*
Y977900D02*
D03*
X699770Y960120D02*
D03*
Y924560D02*
D03*
X690880Y906780D02*
D03*
Y800100D02*
D03*
X699770Y782320D02*
D03*
Y711200D02*
D03*
X690880Y693420D02*
D03*
X699770Y675640D02*
D03*
X690880Y622300D02*
D03*
X699770Y604520D02*
D03*
X690880Y586740D02*
D03*
X699770Y568960D02*
D03*
X690880Y551180D02*
D03*
X699770Y533400D02*
D03*
X690880Y515620D02*
D03*
X699770Y497840D02*
D03*
X690880Y480060D02*
D03*
X699770Y462280D02*
D03*
X690880Y444500D02*
D03*
X681990Y1102360D02*
D03*
X673100Y1013460D02*
D03*
X681990Y782320D02*
D03*
Y711200D02*
D03*
Y675640D02*
D03*
Y640080D02*
D03*
Y604520D02*
D03*
Y568960D02*
D03*
Y533400D02*
D03*
Y497840D02*
D03*
Y462280D02*
D03*
X655320Y1084580D02*
D03*
Y1049020D02*
D03*
X664210Y1031240D02*
D03*
X655320Y942340D02*
D03*
X637540Y1084580D02*
D03*
X646430Y1031240D02*
D03*
X619760Y1084580D02*
D03*
X628650Y1031240D02*
D03*
X782320Y1026160D02*
D03*
X894080Y957580D02*
D03*
X809200Y957997D02*
D03*
D78*
X820420Y609600D02*
D03*
X817880Y635000D02*
D03*
X866593Y647247D02*
D03*
X845820Y720725D02*
D03*
X919480Y955040D02*
D03*
X929005Y947420D02*
D03*
X822960Y1061720D02*
D03*
X840246Y1061226D02*
D03*
M02*
