G04*
G04 #@! TF.GenerationSoftware,Altium Limited,Altium Designer,24.7.2 (38)*
G04*
G04 Layer_Color=8421504*
%FSLAX44Y44*%
%MOMM*%
G71*
G04*
G04 #@! TF.SameCoordinates,60CCB1E2-045B-4953-842A-C3EC13AC8E9E*
G04*
G04*
G04 #@! TF.FilePolarity,Positive*
G04*
G01*
G75*
%ADD18R,1.6128X1.6128*%
%ADD19R,0.7000X0.7000*%
%ADD20R,0.7000X0.7000*%
%ADD21R,0.8500X0.9500*%
%ADD22R,0.8500X1.1000*%
G04:AMPARAMS|DCode=23|XSize=0.2425mm|YSize=1.0096mm|CornerRadius=0.1212mm|HoleSize=0mm|Usage=FLASHONLY|Rotation=270.000|XOffset=0mm|YOffset=0mm|HoleType=Round|Shape=RoundedRectangle|*
%AMROUNDEDRECTD23*
21,1,0.2425,0.7672,0,0,270.0*
21,1,0.0000,1.0096,0,0,270.0*
1,1,0.2425,-0.3836,0.0000*
1,1,0.2425,-0.3836,0.0000*
1,1,0.2425,0.3836,0.0000*
1,1,0.2425,0.3836,0.0000*
%
%ADD23ROUNDEDRECTD23*%
G04:AMPARAMS|DCode=24|XSize=1.0096mm|YSize=0.2425mm|CornerRadius=0.1212mm|HoleSize=0mm|Usage=FLASHONLY|Rotation=270.000|XOffset=0mm|YOffset=0mm|HoleType=Round|Shape=RoundedRectangle|*
%AMROUNDEDRECTD24*
21,1,1.0096,0.0000,0,0,270.0*
21,1,0.7672,0.2425,0,0,270.0*
1,1,0.2425,0.0000,-0.3836*
1,1,0.2425,0.0000,0.3836*
1,1,0.2425,0.0000,0.3836*
1,1,0.2425,0.0000,-0.3836*
%
%ADD24ROUNDEDRECTD24*%
%ADD25R,0.2425X1.0096*%
%ADD26R,1.9000X3.5500*%
%ADD27R,0.7500X0.8500*%
%ADD28R,0.7500X1.0000*%
%ADD29R,3.6000X4.3000*%
%ADD30R,4.3000X3.6000*%
%ADD31R,0.9500X0.8500*%
G04:AMPARAMS|DCode=32|XSize=1.0043mm|YSize=3.1821mm|CornerRadius=0.4369mm|HoleSize=0mm|Usage=FLASHONLY|Rotation=180.000|XOffset=0mm|YOffset=0mm|HoleType=Round|Shape=RoundedRectangle|*
%AMROUNDEDRECTD32*
21,1,1.0043,2.3084,0,0,180.0*
21,1,0.1306,3.1821,0,0,180.0*
1,1,0.8737,-0.0653,1.1542*
1,1,0.8737,0.0653,1.1542*
1,1,0.8737,0.0653,-1.1542*
1,1,0.8737,-0.0653,-1.1542*
%
%ADD32ROUNDEDRECTD32*%
G04:AMPARAMS|DCode=33|XSize=1.0043mm|YSize=0.8721mm|CornerRadius=0.4361mm|HoleSize=0mm|Usage=FLASHONLY|Rotation=180.000|XOffset=0mm|YOffset=0mm|HoleType=Round|Shape=RoundedRectangle|*
%AMROUNDEDRECTD33*
21,1,1.0043,0.0000,0,0,180.0*
21,1,0.1322,0.8721,0,0,180.0*
1,1,0.8721,-0.0661,0.0000*
1,1,0.8721,0.0661,0.0000*
1,1,0.8721,0.0661,0.0000*
1,1,0.8721,-0.0661,0.0000*
%
%ADD33ROUNDEDRECTD33*%
%ADD34R,1.0043X0.8721*%
%ADD35R,1.3500X0.6000*%
%ADD36O,0.3000X2.1000*%
%ADD37O,2.1000X0.3000*%
D18*
X878840Y678180D02*
D03*
D19*
X974240D02*
D03*
X961240D02*
D03*
X938680Y647700D02*
D03*
X925680D02*
D03*
X717250Y787400D02*
D03*
X730250D02*
D03*
X941220Y678180D02*
D03*
X928220D02*
D03*
X834540Y665480D02*
D03*
X821540D02*
D03*
X748180Y1094740D02*
D03*
X735180D02*
D03*
X788520Y955040D02*
D03*
X801520D02*
D03*
X925980Y1054100D02*
D03*
X912980D02*
D03*
X925980Y1038860D02*
D03*
X912980D02*
D03*
D20*
X855980Y623720D02*
D03*
Y610720D02*
D03*
X952500Y648820D02*
D03*
Y661820D02*
D03*
X878840Y725320D02*
D03*
Y712320D02*
D03*
X910590Y505610D02*
D03*
Y492610D02*
D03*
X925830Y505610D02*
D03*
Y492610D02*
D03*
X822960Y694840D02*
D03*
Y681840D02*
D03*
X894080Y725320D02*
D03*
Y712320D02*
D03*
X838200Y694840D02*
D03*
Y681840D02*
D03*
X802640Y1050440D02*
D03*
Y1037440D02*
D03*
X642620Y1058060D02*
D03*
Y1045060D02*
D03*
X886460Y943460D02*
D03*
Y956460D02*
D03*
X906780Y1022500D02*
D03*
Y1009500D02*
D03*
X899160Y930760D02*
D03*
Y943760D02*
D03*
D21*
X945825Y619760D02*
D03*
X932825D02*
D03*
X918360D02*
D03*
X905360D02*
D03*
X827740Y624840D02*
D03*
X840740D02*
D03*
X933600Y662940D02*
D03*
X920600D02*
D03*
X799950Y622300D02*
D03*
X812950D02*
D03*
D22*
X905150Y848360D02*
D03*
X923650D02*
D03*
X714650Y806450D02*
D03*
X733150D02*
D03*
D23*
X898353Y690680D02*
D03*
Y685680D02*
D03*
Y680680D02*
D03*
Y675680D02*
D03*
Y670680D02*
D03*
Y665680D02*
D03*
X859327D02*
D03*
Y670680D02*
D03*
Y675680D02*
D03*
Y680680D02*
D03*
Y685680D02*
D03*
Y690680D02*
D03*
D24*
X891340Y658668D02*
D03*
X886340D02*
D03*
X881340D02*
D03*
X876340D02*
D03*
X871340D02*
D03*
X866340D02*
D03*
Y697692D02*
D03*
X871340D02*
D03*
X876340D02*
D03*
X881340D02*
D03*
X886340D02*
D03*
D25*
X891340D02*
D03*
D26*
X861060Y470240D02*
D03*
Y523240D02*
D03*
X929640Y816440D02*
D03*
Y763440D02*
D03*
D27*
X958500Y711200D02*
D03*
X946500D02*
D03*
D28*
X802640Y702800D02*
D03*
Y668800D02*
D03*
D29*
X749300Y478900D02*
D03*
Y587900D02*
D03*
D30*
X867300Y800100D02*
D03*
X758300D02*
D03*
D31*
X947420Y1017120D02*
D03*
Y1030120D02*
D03*
X962660Y1017120D02*
D03*
Y1030120D02*
D03*
X924560Y1004420D02*
D03*
Y1017420D02*
D03*
D32*
X683330Y1054100D02*
D03*
D33*
X749230Y1077000D02*
D03*
Y1054100D02*
D03*
D34*
Y1031200D02*
D03*
D35*
X954340Y972820D02*
D03*
X930340Y963320D02*
D03*
Y982320D02*
D03*
D36*
X873320Y954680D02*
D03*
X868320D02*
D03*
X863320D02*
D03*
X858320D02*
D03*
X853320D02*
D03*
X848320D02*
D03*
X843320D02*
D03*
X838320D02*
D03*
X833320D02*
D03*
X828320D02*
D03*
X823320D02*
D03*
X818320D02*
D03*
Y1036680D02*
D03*
X823320D02*
D03*
X828320D02*
D03*
X833320D02*
D03*
X838320D02*
D03*
X843320D02*
D03*
X848320D02*
D03*
X853320D02*
D03*
X858320D02*
D03*
X863320D02*
D03*
X868320D02*
D03*
X873320D02*
D03*
D37*
X804820Y968180D02*
D03*
Y973180D02*
D03*
Y978180D02*
D03*
Y983180D02*
D03*
Y988180D02*
D03*
Y993180D02*
D03*
Y998180D02*
D03*
Y1003180D02*
D03*
Y1008180D02*
D03*
Y1013180D02*
D03*
Y1018180D02*
D03*
Y1023180D02*
D03*
X886820D02*
D03*
Y1018180D02*
D03*
Y1013180D02*
D03*
Y1008180D02*
D03*
Y1003180D02*
D03*
Y998180D02*
D03*
Y993180D02*
D03*
Y988180D02*
D03*
Y983180D02*
D03*
Y978180D02*
D03*
Y973180D02*
D03*
Y968180D02*
D03*
M02*
