G04*
G04 #@! TF.GenerationSoftware,Altium Limited,Altium Designer,24.7.2 (38)*
G04*
G04 Layer_Color=128*
%FSLAX44Y44*%
%MOMM*%
G71*
G04*
G04 #@! TF.SameCoordinates,60CCB1E2-045B-4953-842A-C3EC13AC8E9E*
G04*
G04*
G04 #@! TF.FilePolarity,Positive*
G04*
G01*
G75*
%ADD16C,0.1270*%
D16*
X754060Y642620D02*
X765060D01*
X759560Y637120D02*
Y648120D01*
X728560Y642620D02*
X739560D01*
X734060Y637120D02*
Y648120D01*
X703060Y642620D02*
X714060D01*
X708560Y637120D02*
Y648120D01*
X753960Y693420D02*
X764960D01*
X759460Y687920D02*
Y698920D01*
X728460Y693420D02*
X739460D01*
X733960Y687920D02*
Y698920D01*
X702960Y693420D02*
X713960D01*
X708460Y687920D02*
Y698920D01*
X842570Y591820D02*
X849070D01*
X845820Y588570D02*
Y595070D01*
X867970Y566420D02*
X874470D01*
X871220Y563170D02*
Y569670D01*
X893370Y591820D02*
X899870D01*
X896620Y588570D02*
Y595070D01*
X882650Y1096010D02*
X890270D01*
X886460Y1092200D02*
Y1099820D01*
X864870Y1096010D02*
X872490D01*
X868680Y1092200D02*
Y1099820D01*
X847090Y1096010D02*
X854710D01*
X850900Y1092200D02*
Y1099820D01*
X829310Y1096010D02*
X836930D01*
X833120Y1092200D02*
Y1099820D01*
X811530Y1096010D02*
X819150D01*
X815340Y1092200D02*
Y1099820D01*
X793750Y1096010D02*
X801370D01*
X797560Y1092200D02*
Y1099820D01*
X775970Y1096010D02*
X783590D01*
X779780Y1092200D02*
Y1099820D01*
X882650Y1078230D02*
X890270D01*
X886460Y1074420D02*
Y1082040D01*
X864870Y1078230D02*
X872490D01*
X868680Y1074420D02*
Y1082040D01*
X847090Y1078230D02*
X854710D01*
X850900Y1074420D02*
Y1082040D01*
X829310Y1078230D02*
X836930D01*
X833120Y1074420D02*
Y1082040D01*
X811530Y1078230D02*
X819150D01*
X815340Y1074420D02*
Y1082040D01*
X793750Y1078230D02*
X801370D01*
X797560Y1074420D02*
Y1082040D01*
X775970Y1078230D02*
X783590D01*
X779780Y1074420D02*
Y1082040D01*
X972185Y1013460D02*
X978535D01*
X975360Y1010285D02*
Y1016635D01*
X981075Y995680D02*
X987425D01*
X984250Y992505D02*
Y998855D01*
X972185Y977900D02*
X978535D01*
X975360Y974725D02*
Y981075D01*
X981075Y960120D02*
X987425D01*
X984250Y956945D02*
Y963295D01*
X972185Y942340D02*
X978535D01*
X975360Y939165D02*
Y945515D01*
X981075Y924560D02*
X987425D01*
X984250Y921385D02*
Y927735D01*
X972185Y906780D02*
X978535D01*
X975360Y903605D02*
Y909955D01*
X981075Y889000D02*
X987425D01*
X984250Y885825D02*
Y892175D01*
X972185Y871220D02*
X978535D01*
X975360Y868045D02*
Y874395D01*
X981075Y853440D02*
X987425D01*
X984250Y850265D02*
Y856615D01*
X981075Y640080D02*
X987425D01*
X984250Y636905D02*
Y643255D01*
X972185Y622300D02*
X978535D01*
X975360Y619125D02*
Y625475D01*
X981075Y604520D02*
X987425D01*
X984250Y601345D02*
Y607695D01*
X972185Y586740D02*
X978535D01*
X975360Y583565D02*
Y589915D01*
X981075Y568960D02*
X987425D01*
X984250Y565785D02*
Y572135D01*
X954405Y1049020D02*
X960755D01*
X957580Y1045845D02*
Y1052195D01*
X963295Y995680D02*
X969645D01*
X966470Y992505D02*
Y998855D01*
X963295Y960120D02*
X969645D01*
X966470Y956945D02*
Y963295D01*
X954405Y942340D02*
X960755D01*
X957580Y939165D02*
Y945515D01*
X963295Y924560D02*
X969645D01*
X966470Y921385D02*
Y927735D01*
X954405Y906780D02*
X960755D01*
X957580Y903605D02*
Y909955D01*
X963295Y889000D02*
X969645D01*
X966470Y885825D02*
Y892175D01*
X954405Y871220D02*
X960755D01*
X957580Y868045D02*
Y874395D01*
X954405Y800100D02*
X960755D01*
X957580Y796925D02*
Y803275D01*
X954405Y764540D02*
X960755D01*
X957580Y761365D02*
Y767715D01*
X954405Y728980D02*
X960755D01*
X957580Y725805D02*
Y732155D01*
X963295Y604520D02*
X969645D01*
X966470Y601345D02*
Y607695D01*
X954405Y586740D02*
X960755D01*
X957580Y583565D02*
Y589915D01*
X963295Y568960D02*
X969645D01*
X966470Y565785D02*
Y572135D01*
X963295Y497840D02*
X969645D01*
X966470Y494665D02*
Y501015D01*
X936625Y1049020D02*
X942975D01*
X939800Y1045845D02*
Y1052195D01*
X945515Y782320D02*
X951865D01*
X948690Y779145D02*
Y785495D01*
X945515Y746760D02*
X951865D01*
X948690Y743585D02*
Y749935D01*
X945515Y604520D02*
X951865D01*
X948690Y601345D02*
Y607695D01*
X936625Y586740D02*
X942975D01*
X939800Y583565D02*
Y589915D01*
X945515Y568960D02*
X951865D01*
X948690Y565785D02*
Y572135D01*
X945515Y497840D02*
X951865D01*
X948690Y494665D02*
Y501015D01*
X918845Y1084580D02*
X925195D01*
X922020Y1081405D02*
Y1087755D01*
X927735Y1066800D02*
X934085D01*
X930910Y1063625D02*
Y1069975D01*
X927735Y711200D02*
X934085D01*
X930910Y708025D02*
Y714375D01*
X918845Y586740D02*
X925195D01*
X922020Y583565D02*
Y589915D01*
X927735Y568960D02*
X934085D01*
X930910Y565785D02*
Y572135D01*
X918845Y551180D02*
X925195D01*
X922020Y548005D02*
Y554355D01*
X918845Y444500D02*
X925195D01*
X922020Y441325D02*
Y447675D01*
X901065Y1084580D02*
X907415D01*
X904240Y1081405D02*
Y1087755D01*
X909955Y1066800D02*
X916305D01*
X913130Y1063625D02*
Y1069975D01*
X901065Y906780D02*
X907415D01*
X904240Y903605D02*
Y909955D01*
X901065Y764540D02*
X907415D01*
X904240Y761365D02*
Y767715D01*
X909955Y711200D02*
X916305D01*
X913130Y708025D02*
Y714375D01*
X909955Y568960D02*
X916305D01*
X913130Y565785D02*
Y572135D01*
X901065Y551180D02*
X907415D01*
X904240Y548005D02*
Y554355D01*
X909955Y533400D02*
X916305D01*
X913130Y530225D02*
Y536575D01*
X901065Y444500D02*
X907415D01*
X904240Y441325D02*
Y447675D01*
X892175Y1066800D02*
X898525D01*
X895350Y1063625D02*
Y1069975D01*
X883285Y1049020D02*
X889635D01*
X886460Y1045845D02*
Y1052195D01*
X883285Y906780D02*
X889635D01*
X886460Y903605D02*
Y909955D01*
X883285Y835660D02*
X889635D01*
X886460Y832485D02*
Y838835D01*
X883285Y764540D02*
X889635D01*
X886460Y761365D02*
Y767715D01*
X892175Y746760D02*
X898525D01*
X895350Y743585D02*
Y749935D01*
X892175Y640080D02*
X898525D01*
X895350Y636905D02*
Y643255D01*
X892175Y568960D02*
X898525D01*
X895350Y565785D02*
Y572135D01*
X883285Y551180D02*
X889635D01*
X886460Y548005D02*
Y554355D01*
X892175Y533400D02*
X898525D01*
X895350Y530225D02*
Y536575D01*
X883285Y515620D02*
X889635D01*
X886460Y512445D02*
Y518795D01*
X892175Y497840D02*
X898525D01*
X895350Y494665D02*
Y501015D01*
X883285Y444500D02*
X889635D01*
X886460Y441325D02*
Y447675D01*
X874395Y1066800D02*
X880745D01*
X877570Y1063625D02*
Y1069975D01*
X865505Y906780D02*
X871855D01*
X868680Y903605D02*
Y909955D01*
X874395Y853440D02*
X880745D01*
X877570Y850265D02*
Y856615D01*
X865505Y835660D02*
X871855D01*
X868680Y832485D02*
Y838835D01*
X865505Y764540D02*
X871855D01*
X868680Y761365D02*
Y767715D01*
X874395Y746760D02*
X880745D01*
X877570Y743585D02*
Y749935D01*
X865505Y586740D02*
X871855D01*
X868680Y583565D02*
Y589915D01*
X865505Y551180D02*
X871855D01*
X868680Y548005D02*
Y554355D01*
X874395Y497840D02*
X880745D01*
X877570Y494665D02*
Y501015D01*
X865505Y444500D02*
X871855D01*
X868680Y441325D02*
Y447675D01*
X847725Y1013460D02*
X854075D01*
X850900Y1010285D02*
Y1016635D01*
X856615Y995680D02*
X862965D01*
X859790Y992505D02*
Y998855D01*
X847725Y906780D02*
X854075D01*
X850900Y903605D02*
Y909955D01*
X856615Y853440D02*
X862965D01*
X859790Y850265D02*
Y856615D01*
X847725Y835660D02*
X854075D01*
X850900Y832485D02*
Y838835D01*
X847725Y764540D02*
X854075D01*
X850900Y761365D02*
Y767715D01*
X856615Y746760D02*
X862965D01*
X859790Y743585D02*
Y749935D01*
X856615Y711200D02*
X862965D01*
X859790Y708025D02*
Y714375D01*
X847725Y551180D02*
X854075D01*
X850900Y548005D02*
Y554355D01*
X856615Y497840D02*
X862965D01*
X859790Y494665D02*
Y501015D01*
X847725Y444500D02*
X854075D01*
X850900Y441325D02*
Y447675D01*
X829945Y1013460D02*
X836295D01*
X833120Y1010285D02*
Y1016635D01*
X838835Y995680D02*
X845185D01*
X842010Y992505D02*
Y998855D01*
X829945Y906780D02*
X836295D01*
X833120Y903605D02*
Y909955D01*
X838835Y889000D02*
X845185D01*
X842010Y885825D02*
Y892175D01*
X838835Y853440D02*
X845185D01*
X842010Y850265D02*
Y856615D01*
X829945Y835660D02*
X836295D01*
X833120Y832485D02*
Y838835D01*
X829945Y764540D02*
X836295D01*
X833120Y761365D02*
Y767715D01*
X838835Y746760D02*
X845185D01*
X842010Y743585D02*
Y749935D01*
X829945Y728980D02*
X836295D01*
X833120Y725805D02*
Y732155D01*
X838835Y568960D02*
X845185D01*
X842010Y565785D02*
Y572135D01*
X829945Y551180D02*
X836295D01*
X833120Y548005D02*
Y554355D01*
X838835Y533400D02*
X845185D01*
X842010Y530225D02*
Y536575D01*
X829945Y444500D02*
X836295D01*
X833120Y441325D02*
Y447675D01*
X821055Y995680D02*
X827405D01*
X824230Y992505D02*
Y998855D01*
X821055Y924560D02*
X827405D01*
X824230Y921385D02*
Y927735D01*
X812165Y906780D02*
X818515D01*
X815340Y903605D02*
Y909955D01*
X821055Y853440D02*
X827405D01*
X824230Y850265D02*
Y856615D01*
X812165Y835660D02*
X818515D01*
X815340Y832485D02*
Y838835D01*
X821055Y817880D02*
X827405D01*
X824230Y814705D02*
Y821055D01*
X821055Y746760D02*
X827405D01*
X824230Y743585D02*
Y749935D01*
X812165Y728980D02*
X818515D01*
X815340Y725805D02*
Y732155D01*
X812165Y515620D02*
X818515D01*
X815340Y512445D02*
Y518795D01*
X821055Y497840D02*
X827405D01*
X824230Y494665D02*
Y501015D01*
X812165Y444500D02*
X818515D01*
X815340Y441325D02*
Y447675D01*
X803275Y1066800D02*
X809625D01*
X806450Y1063625D02*
Y1069975D01*
X794385Y906780D02*
X800735D01*
X797560Y903605D02*
Y909955D01*
X803275Y853440D02*
X809625D01*
X806450Y850265D02*
Y856615D01*
X794385Y835660D02*
X800735D01*
X797560Y832485D02*
Y838835D01*
X803275Y817880D02*
X809625D01*
X806450Y814705D02*
Y821055D01*
X794385Y800100D02*
X800735D01*
X797560Y796925D02*
Y803275D01*
X803275Y604520D02*
X809625D01*
X806450Y601345D02*
Y607695D01*
X794385Y586740D02*
X800735D01*
X797560Y583565D02*
Y589915D01*
X803275Y568960D02*
X809625D01*
X806450Y565785D02*
Y572135D01*
X794385Y551180D02*
X800735D01*
X797560Y548005D02*
Y554355D01*
X803275Y533400D02*
X809625D01*
X806450Y530225D02*
Y536575D01*
X794385Y515620D02*
X800735D01*
X797560Y512445D02*
Y518795D01*
X803275Y497840D02*
X809625D01*
X806450Y494665D02*
Y501015D01*
X794385Y444500D02*
X800735D01*
X797560Y441325D02*
Y447675D01*
X785495Y1066800D02*
X791845D01*
X788670Y1063625D02*
Y1069975D01*
X785495Y924560D02*
X791845D01*
X788670Y921385D02*
Y927735D01*
X776605Y906780D02*
X782955D01*
X779780Y903605D02*
Y909955D01*
X785495Y853440D02*
X791845D01*
X788670Y850265D02*
Y856615D01*
X776605Y835660D02*
X782955D01*
X779780Y832485D02*
Y838835D01*
X785495Y817880D02*
X791845D01*
X788670Y814705D02*
Y821055D01*
X785495Y782320D02*
X791845D01*
X788670Y779145D02*
Y785495D01*
X776605Y622300D02*
X782955D01*
X779780Y619125D02*
Y625475D01*
X776605Y586740D02*
X782955D01*
X779780Y583565D02*
Y589915D01*
X785495Y568960D02*
X791845D01*
X788670Y565785D02*
Y572135D01*
X776605Y551180D02*
X782955D01*
X779780Y548005D02*
Y554355D01*
X785495Y533400D02*
X791845D01*
X788670Y530225D02*
Y536575D01*
X776605Y515620D02*
X782955D01*
X779780Y512445D02*
Y518795D01*
X785495Y497840D02*
X791845D01*
X788670Y494665D02*
Y501015D01*
X776605Y444500D02*
X782955D01*
X779780Y441325D02*
Y447675D01*
X767715Y1066800D02*
X774065D01*
X770890Y1063625D02*
Y1069975D01*
X758825Y1013460D02*
X765175D01*
X762000Y1010285D02*
Y1016635D01*
X758825Y906780D02*
X765175D01*
X762000Y903605D02*
Y909955D01*
X758825Y871220D02*
X765175D01*
X762000Y868045D02*
Y874395D01*
X767715Y853440D02*
X774065D01*
X770890Y850265D02*
Y856615D01*
X758825Y835660D02*
X765175D01*
X762000Y832485D02*
Y838835D01*
X758825Y764540D02*
X765175D01*
X762000Y761365D02*
Y767715D01*
X758825Y622300D02*
X765175D01*
X762000Y619125D02*
Y625475D01*
X758825Y551180D02*
X765175D01*
X762000Y548005D02*
Y554355D01*
X767715Y533400D02*
X774065D01*
X770890Y530225D02*
Y536575D01*
X758825Y515620D02*
X765175D01*
X762000Y512445D02*
Y518795D01*
X758825Y444500D02*
X765175D01*
X762000Y441325D02*
Y447675D01*
X741045Y1013460D02*
X747395D01*
X744220Y1010285D02*
Y1016635D01*
X741045Y906780D02*
X747395D01*
X744220Y903605D02*
Y909955D01*
X749935Y853440D02*
X756285D01*
X753110Y850265D02*
Y856615D01*
X741045Y728980D02*
X747395D01*
X744220Y725805D02*
Y732155D01*
X749935Y711200D02*
X756285D01*
X753110Y708025D02*
Y714375D01*
X741045Y551180D02*
X747395D01*
X744220Y548005D02*
Y554355D01*
X749935Y533400D02*
X756285D01*
X753110Y530225D02*
Y536575D01*
X741045Y515620D02*
X747395D01*
X744220Y512445D02*
Y518795D01*
X741045Y444500D02*
X747395D01*
X744220Y441325D02*
Y447675D01*
X732155Y1031240D02*
X738505D01*
X735330Y1028065D02*
Y1034415D01*
X723265Y1013460D02*
X729615D01*
X726440Y1010285D02*
Y1016635D01*
X732155Y960120D02*
X738505D01*
X735330Y956945D02*
Y963295D01*
X723265Y906780D02*
X729615D01*
X726440Y903605D02*
Y909955D01*
X732155Y853440D02*
X738505D01*
X735330Y850265D02*
Y856615D01*
X723265Y764540D02*
X729615D01*
X726440Y761365D02*
Y767715D01*
X732155Y746760D02*
X738505D01*
X735330Y743585D02*
Y749935D01*
X723265Y728980D02*
X729615D01*
X726440Y725805D02*
Y732155D01*
X723265Y551180D02*
X729615D01*
X726440Y548005D02*
Y554355D01*
X732155Y533400D02*
X738505D01*
X735330Y530225D02*
Y536575D01*
X723265Y515620D02*
X729615D01*
X726440Y512445D02*
Y518795D01*
X723265Y444500D02*
X729615D01*
X726440Y441325D02*
Y447675D01*
X714375Y1102360D02*
X720725D01*
X717550Y1099185D02*
Y1105535D01*
X705485Y1084580D02*
X711835D01*
X708660Y1081405D02*
Y1087755D01*
X714375Y1031240D02*
X720725D01*
X717550Y1028065D02*
Y1034415D01*
X705485Y1013460D02*
X711835D01*
X708660Y1010285D02*
Y1016635D01*
X705485Y977900D02*
X711835D01*
X708660Y974725D02*
Y981075D01*
X705485Y906780D02*
X711835D01*
X708660Y903605D02*
Y909955D01*
X714375Y711200D02*
X720725D01*
X717550Y708025D02*
Y714375D01*
X705485Y586740D02*
X711835D01*
X708660Y583565D02*
Y589915D01*
X714375Y568960D02*
X720725D01*
X717550Y565785D02*
Y572135D01*
X705485Y551180D02*
X711835D01*
X708660Y548005D02*
Y554355D01*
X714375Y533400D02*
X720725D01*
X717550Y530225D02*
Y536575D01*
X705485Y515620D02*
X711835D01*
X708660Y512445D02*
Y518795D01*
X714375Y497840D02*
X720725D01*
X717550Y494665D02*
Y501015D01*
X705485Y480060D02*
X711835D01*
X708660Y476885D02*
Y483235D01*
X714375Y462280D02*
X720725D01*
X717550Y459105D02*
Y465455D01*
X705485Y444500D02*
X711835D01*
X708660Y441325D02*
Y447675D01*
X696595Y1102360D02*
X702945D01*
X699770Y1099185D02*
Y1105535D01*
X696595Y1031240D02*
X702945D01*
X699770Y1028065D02*
Y1034415D01*
X687705Y1013460D02*
X694055D01*
X690880Y1010285D02*
Y1016635D01*
X687705Y977900D02*
X694055D01*
X690880Y974725D02*
Y981075D01*
X696595Y960120D02*
X702945D01*
X699770Y956945D02*
Y963295D01*
X696595Y924560D02*
X702945D01*
X699770Y921385D02*
Y927735D01*
X687705Y906780D02*
X694055D01*
X690880Y903605D02*
Y909955D01*
X687705Y800100D02*
X694055D01*
X690880Y796925D02*
Y803275D01*
X696595Y782320D02*
X702945D01*
X699770Y779145D02*
Y785495D01*
X696595Y711200D02*
X702945D01*
X699770Y708025D02*
Y714375D01*
X687705Y693420D02*
X694055D01*
X690880Y690245D02*
Y696595D01*
X696595Y675640D02*
X702945D01*
X699770Y672465D02*
Y678815D01*
X687705Y622300D02*
X694055D01*
X690880Y619125D02*
Y625475D01*
X696595Y604520D02*
X702945D01*
X699770Y601345D02*
Y607695D01*
X687705Y586740D02*
X694055D01*
X690880Y583565D02*
Y589915D01*
X696595Y568960D02*
X702945D01*
X699770Y565785D02*
Y572135D01*
X687705Y551180D02*
X694055D01*
X690880Y548005D02*
Y554355D01*
X696595Y533400D02*
X702945D01*
X699770Y530225D02*
Y536575D01*
X687705Y515620D02*
X694055D01*
X690880Y512445D02*
Y518795D01*
X696595Y497840D02*
X702945D01*
X699770Y494665D02*
Y501015D01*
X687705Y480060D02*
X694055D01*
X690880Y476885D02*
Y483235D01*
X696595Y462280D02*
X702945D01*
X699770Y459105D02*
Y465455D01*
X687705Y444500D02*
X694055D01*
X690880Y441325D02*
Y447675D01*
X678815Y1102360D02*
X685165D01*
X681990Y1099185D02*
Y1105535D01*
X669925Y1013460D02*
X676275D01*
X673100Y1010285D02*
Y1016635D01*
X678815Y782320D02*
X685165D01*
X681990Y779145D02*
Y785495D01*
X678815Y711200D02*
X685165D01*
X681990Y708025D02*
Y714375D01*
X678815Y675640D02*
X685165D01*
X681990Y672465D02*
Y678815D01*
X678815Y640080D02*
X685165D01*
X681990Y636905D02*
Y643255D01*
X678815Y604520D02*
X685165D01*
X681990Y601345D02*
Y607695D01*
X678815Y568960D02*
X685165D01*
X681990Y565785D02*
Y572135D01*
X678815Y533400D02*
X685165D01*
X681990Y530225D02*
Y536575D01*
X678815Y497840D02*
X685165D01*
X681990Y494665D02*
Y501015D01*
X678815Y462280D02*
X685165D01*
X681990Y459105D02*
Y465455D01*
X652145Y1084580D02*
X658495D01*
X655320Y1081405D02*
Y1087755D01*
X652145Y1049020D02*
X658495D01*
X655320Y1045845D02*
Y1052195D01*
X661035Y1031240D02*
X667385D01*
X664210Y1028065D02*
Y1034415D01*
X652145Y942340D02*
X658495D01*
X655320Y939165D02*
Y945515D01*
X634365Y1084580D02*
X640715D01*
X637540Y1081405D02*
Y1087755D01*
X643255Y1031240D02*
X649605D01*
X646430Y1028065D02*
Y1034415D01*
X616585Y1084580D02*
X622935D01*
X619760Y1081405D02*
Y1087755D01*
X625475Y1031240D02*
X631825D01*
X628650Y1028065D02*
Y1034415D01*
X818515Y609600D02*
X822325D01*
X820420Y607695D02*
Y611505D01*
X815975Y635000D02*
X819785D01*
X817880Y633095D02*
Y636905D01*
X864688Y647247D02*
X868498D01*
X866593Y645342D02*
Y649152D01*
X843915Y720725D02*
X847725D01*
X845820Y718820D02*
Y722630D01*
X791464Y739140D02*
X798576D01*
X795020Y735584D02*
Y742696D01*
X777708Y746826D02*
X784820D01*
X781264Y743270D02*
Y750383D01*
X777494Y730250D02*
X784606D01*
X781050Y726694D02*
Y733806D01*
X790194Y755650D02*
X797306D01*
X793750Y752094D02*
Y759206D01*
X917575Y955040D02*
X921385D01*
X919480Y953135D02*
Y956945D01*
X927100Y947420D02*
X930910D01*
X929005Y945515D02*
Y949325D01*
X779145Y1026160D02*
X785495D01*
X782320Y1022985D02*
Y1029335D01*
X890905Y957580D02*
X897255D01*
X894080Y954405D02*
Y960755D01*
X806025Y957997D02*
X812375D01*
X809200Y954822D02*
Y961172D01*
X821055Y1061720D02*
X824865D01*
X822960Y1059815D02*
Y1063625D01*
X838341Y1061226D02*
X842151D01*
X840246Y1059321D02*
Y1063131D01*
M02*
