G04*
G04 #@! TF.GenerationSoftware,Altium Limited,Altium Designer,24.7.2 (38)*
G04*
G04 Layer_Physical_Order=1*
G04 Layer_Color=255*
%FSLAX44Y44*%
%MOMM*%
G71*
G04*
G04 #@! TF.SameCoordinates,60CCB1E2-045B-4953-842A-C3EC13AC8E9E*
G04*
G04*
G04 #@! TF.FilePolarity,Positive*
G04*
G01*
G75*
%ADD13C,0.3810*%
%ADD17C,0.1778*%
%ADD19R,0.7000X0.7000*%
%ADD20R,0.7000X0.7000*%
%ADD21R,0.8500X0.9500*%
%ADD22R,0.8500X1.1000*%
G04:AMPARAMS|DCode=23|XSize=0.2425mm|YSize=1.0096mm|CornerRadius=0.1212mm|HoleSize=0mm|Usage=FLASHONLY|Rotation=270.000|XOffset=0mm|YOffset=0mm|HoleType=Round|Shape=RoundedRectangle|*
%AMROUNDEDRECTD23*
21,1,0.2425,0.7672,0,0,270.0*
21,1,0.0000,1.0096,0,0,270.0*
1,1,0.2425,-0.3836,0.0000*
1,1,0.2425,-0.3836,0.0000*
1,1,0.2425,0.3836,0.0000*
1,1,0.2425,0.3836,0.0000*
%
%ADD23ROUNDEDRECTD23*%
G04:AMPARAMS|DCode=24|XSize=1.0096mm|YSize=0.2425mm|CornerRadius=0.1212mm|HoleSize=0mm|Usage=FLASHONLY|Rotation=270.000|XOffset=0mm|YOffset=0mm|HoleType=Round|Shape=RoundedRectangle|*
%AMROUNDEDRECTD24*
21,1,1.0096,0.0000,0,0,270.0*
21,1,0.7672,0.2425,0,0,270.0*
1,1,0.2425,0.0000,-0.3836*
1,1,0.2425,0.0000,0.3836*
1,1,0.2425,0.0000,0.3836*
1,1,0.2425,0.0000,-0.3836*
%
%ADD24ROUNDEDRECTD24*%
%ADD25R,0.2425X1.0096*%
%ADD26R,1.9000X3.5500*%
%ADD27R,0.7500X0.8500*%
%ADD28R,0.7500X1.0000*%
%ADD29R,3.6000X4.3000*%
%ADD30R,4.3000X3.6000*%
%ADD31R,0.9500X0.8500*%
G04:AMPARAMS|DCode=32|XSize=1.0043mm|YSize=3.1821mm|CornerRadius=0.4369mm|HoleSize=0mm|Usage=FLASHONLY|Rotation=180.000|XOffset=0mm|YOffset=0mm|HoleType=Round|Shape=RoundedRectangle|*
%AMROUNDEDRECTD32*
21,1,1.0043,2.3084,0,0,180.0*
21,1,0.1306,3.1821,0,0,180.0*
1,1,0.8737,-0.0653,1.1542*
1,1,0.8737,0.0653,1.1542*
1,1,0.8737,0.0653,-1.1542*
1,1,0.8737,-0.0653,-1.1542*
%
%ADD32ROUNDEDRECTD32*%
G04:AMPARAMS|DCode=33|XSize=1.0043mm|YSize=0.8721mm|CornerRadius=0.4361mm|HoleSize=0mm|Usage=FLASHONLY|Rotation=180.000|XOffset=0mm|YOffset=0mm|HoleType=Round|Shape=RoundedRectangle|*
%AMROUNDEDRECTD33*
21,1,1.0043,0.0000,0,0,180.0*
21,1,0.1322,0.8721,0,0,180.0*
1,1,0.8721,-0.0661,0.0000*
1,1,0.8721,0.0661,0.0000*
1,1,0.8721,0.0661,0.0000*
1,1,0.8721,-0.0661,0.0000*
%
%ADD33ROUNDEDRECTD33*%
%ADD34R,1.0043X0.8721*%
%ADD35R,1.3500X0.6000*%
%ADD36O,0.3000X2.1000*%
%ADD37O,2.1000X0.3000*%
%ADD48R,2.5500X2.5500*%
%ADD60R,1.1500X1.1500*%
%ADD61C,1.1500*%
%ADD64O,1.0160X1.2700*%
%ADD65P,2.3349X4X90.0*%
%ADD66R,1.6510X1.6510*%
%ADD67R,1.6510X1.6510*%
%ADD68R,3.8100X3.8100*%
%ADD69R,3.8100X3.8100*%
%ADD70C,0.2540*%
%ADD71C,0.5080*%
%ADD72C,2.5400*%
%ADD73R,1.7000X1.7000*%
%ADD74C,1.7000*%
%ADD75R,1.2700X1.2700*%
%ADD76C,1.2700*%
%ADD77C,1.0160*%
%ADD78C,0.6350*%
G36*
X764498Y1121221D02*
X763875Y1120805D01*
X746570Y1103500D01*
X745588Y1102029D01*
X745339Y1100780D01*
X742140Y1100780D01*
X740108Y1100780D01*
X737720D01*
Y1094740D01*
Y1088700D01*
X740108D01*
X741220Y1088700D01*
X742736Y1088700D01*
X744173Y1087263D01*
Y1082325D01*
X743648Y1081922D01*
X742542Y1080480D01*
X741846Y1078801D01*
X741609Y1077000D01*
X741846Y1075199D01*
X742542Y1073520D01*
X743158Y1072717D01*
X742324Y1070725D01*
X742284Y1070685D01*
X700109D01*
X661877Y1108917D01*
X660617Y1109759D01*
X659130Y1110055D01*
X605155D01*
Y1118235D01*
X583565D01*
Y1096645D01*
X605155D01*
Y1102285D01*
X657521D01*
X685323Y1074483D01*
X684374Y1072559D01*
X683983Y1072610D01*
X682677D01*
X680874Y1072373D01*
X679193Y1071677D01*
X677750Y1070569D01*
X676643Y1069126D01*
X675946Y1067446D01*
X675709Y1065642D01*
Y1059279D01*
X670934D01*
X659751Y1070462D01*
X658071Y1071585D01*
X656089Y1071980D01*
X624840D01*
X624840Y1071980D01*
X622858Y1071585D01*
X621177Y1070462D01*
X595791Y1045076D01*
X591820Y1049046D01*
X581694Y1038921D01*
X579817Y1039699D01*
Y1095375D01*
Y1123253D01*
X763882D01*
X764498Y1121221D01*
D02*
G37*
G36*
X1000063Y1019739D02*
Y867410D01*
X1000063Y546520D01*
X998031Y546011D01*
X997237Y547496D01*
X995332Y549817D01*
X993012Y551721D01*
X990364Y553136D01*
X987492Y554007D01*
X984504Y554302D01*
X981516Y554007D01*
X978644Y553136D01*
X975996Y551721D01*
X973879Y549984D01*
X962660D01*
Y546652D01*
X942340D01*
Y549910D01*
X930910D01*
Y538480D01*
X934168D01*
Y518160D01*
X930910D01*
Y511650D01*
X928370D01*
Y505610D01*
X925830D01*
Y503070D01*
X919790D01*
Y501214D01*
X918280Y500763D01*
X916630Y502085D01*
Y503070D01*
X910590D01*
X904550D01*
Y499570D01*
X904550Y499570D01*
Y498650D01*
X904550D01*
X904550Y497538D01*
Y488423D01*
X904461Y488128D01*
X904174Y485214D01*
X873100D01*
Y490530D01*
X849020D01*
X848459Y492330D01*
Y501150D01*
X849020Y502950D01*
X850491Y502950D01*
X854710D01*
Y516890D01*
X849020D01*
Y514281D01*
X846988Y513664D01*
X846943Y513732D01*
X821924Y538751D01*
Y556245D01*
Y603779D01*
X822365Y604220D01*
X823657Y604755D01*
X825265Y606363D01*
X825461Y606835D01*
X849940D01*
Y604680D01*
X862020D01*
Y606835D01*
X871198D01*
X872684Y607131D01*
X873944Y607973D01*
X875497Y609525D01*
X890142D01*
X891629Y609821D01*
X892889Y610663D01*
X896538Y614312D01*
X898570Y613470D01*
Y612470D01*
X925150D01*
Y612470D01*
X926035D01*
X926787Y610655D01*
X919178Y603047D01*
X903962D01*
X902476Y602751D01*
X901215Y601909D01*
X899056Y599750D01*
X897711Y600110D01*
X895529D01*
X893420Y599545D01*
X891530Y598454D01*
X889986Y596910D01*
X888895Y595020D01*
X888330Y592911D01*
Y590729D01*
X888895Y588620D01*
X889986Y586730D01*
X891530Y585186D01*
X893420Y584095D01*
X895529Y583530D01*
X897711D01*
X899820Y584095D01*
X901710Y585186D01*
X903254Y586730D01*
X904345Y588620D01*
X904910Y590729D01*
Y592911D01*
X904727Y593595D01*
X906132Y595277D01*
X920787D01*
X922274Y595573D01*
X923534Y596415D01*
X935572Y608453D01*
X936414Y609713D01*
X936710Y611200D01*
Y612470D01*
X943285D01*
Y619760D01*
Y627050D01*
X931029D01*
X930640Y627439D01*
Y632805D01*
X930877Y633094D01*
X964639D01*
X966125Y633390D01*
X967385Y634232D01*
X984457Y651303D01*
X985299Y652563D01*
X985595Y654050D01*
Y828040D01*
X985299Y829527D01*
X984457Y830787D01*
X943685Y871559D01*
Y953431D01*
X955005Y964751D01*
X955847Y966011D01*
X956099Y967280D01*
X963630D01*
Y978360D01*
X950943D01*
X950490Y979453D01*
X950273Y980392D01*
X951009Y981493D01*
X951305Y982980D01*
Y1010330D01*
X954710D01*
Y1010330D01*
X955370D01*
Y1010330D01*
X969950D01*
Y1023330D01*
Y1027580D01*
X962660D01*
Y1030120D01*
X960120D01*
Y1036910D01*
X955370D01*
Y1036910D01*
X954710D01*
Y1036910D01*
X949960D01*
Y1030120D01*
X947420D01*
Y1027580D01*
X940130D01*
Y1023330D01*
Y1013060D01*
X939476Y1012825D01*
X938098Y1012722D01*
X937467Y1013667D01*
X932095Y1019039D01*
Y1036630D01*
X932020Y1037005D01*
Y1044900D01*
X929865D01*
Y1048060D01*
X932020D01*
Y1060140D01*
X921052D01*
X919940Y1060140D01*
X917908Y1060140D01*
X915520D01*
Y1054100D01*
Y1048060D01*
X917908D01*
X919020Y1048060D01*
X920658Y1048060D01*
X920861Y1047858D01*
Y1045102D01*
X920658Y1044900D01*
X919940D01*
X917908Y1044900D01*
X915520D01*
Y1038860D01*
Y1032820D01*
X917908D01*
X919020Y1032820D01*
X920675Y1031911D01*
Y1024210D01*
X917270D01*
Y1010630D01*
Y1002624D01*
X908949Y994303D01*
X907072Y995080D01*
Y1002467D01*
X908065Y1003460D01*
X912820D01*
Y1014428D01*
X912820Y1015540D01*
X912820Y1017572D01*
Y1019960D01*
X906780D01*
Y1022500D01*
X904240D01*
Y1028540D01*
X900740D01*
Y1026746D01*
X898733Y1026093D01*
X897396Y1026986D01*
X895820Y1027299D01*
X879429D01*
X877759Y1027619D01*
X877439Y1029289D01*
Y1045680D01*
X877205Y1046859D01*
Y1052000D01*
X876909Y1053487D01*
X876067Y1054747D01*
X859009Y1071805D01*
X859330Y1072580D01*
X861566Y1072771D01*
X863221Y1071116D01*
X865249Y1069946D01*
X867510Y1069340D01*
X869850D01*
X872111Y1069946D01*
X874139Y1071116D01*
X875794Y1072771D01*
X876964Y1074799D01*
X877570Y1077060D01*
Y1079400D01*
X876964Y1081661D01*
X875794Y1083689D01*
X874139Y1085344D01*
X872111Y1086514D01*
X869850Y1087120D01*
X867510D01*
X865249Y1086514D01*
X863221Y1085344D01*
X861566Y1083689D01*
X860951Y1082623D01*
X858629D01*
X858014Y1083689D01*
X856359Y1085344D01*
X855293Y1085959D01*
Y1088281D01*
X856359Y1088896D01*
X858014Y1090551D01*
X859184Y1092579D01*
X859790Y1094840D01*
Y1097180D01*
X859184Y1099441D01*
X858014Y1101469D01*
X856359Y1103124D01*
X854331Y1104294D01*
X852070Y1104900D01*
X849730D01*
X847469Y1104294D01*
X845441Y1103124D01*
X843786Y1101469D01*
X843171Y1100403D01*
X840849D01*
X840234Y1101469D01*
X838579Y1103124D01*
X836551Y1104294D01*
X834290Y1104900D01*
X831950D01*
X830916Y1104623D01*
X814735Y1120805D01*
X814112Y1121221D01*
X814728Y1123253D01*
X896549D01*
X1000063Y1019739D01*
D02*
G37*
G36*
X771820Y1100002D02*
X771496Y1099441D01*
X770890Y1097180D01*
Y1094840D01*
X771496Y1092579D01*
X772666Y1090551D01*
X774321Y1088896D01*
X775387Y1088281D01*
Y1085959D01*
X774321Y1085344D01*
X772666Y1083689D01*
X771496Y1081661D01*
X770890Y1079400D01*
Y1077060D01*
X771496Y1074799D01*
X772666Y1072771D01*
X774321Y1071116D01*
X776349Y1069946D01*
X778610Y1069340D01*
X780950D01*
X783211Y1069946D01*
X785239Y1071116D01*
X786894Y1072771D01*
X787509Y1073837D01*
X789831D01*
X790446Y1072771D01*
X792101Y1071116D01*
X794129Y1069946D01*
X796390Y1069340D01*
X798730D01*
X800991Y1069946D01*
X803019Y1071116D01*
X804674Y1072771D01*
X805289Y1073837D01*
X807611D01*
X808226Y1072771D01*
X809881Y1071116D01*
X811909Y1069946D01*
X814170Y1069340D01*
X816510D01*
X818771Y1069946D01*
X820799Y1071116D01*
X822454Y1072771D01*
X823069Y1073837D01*
X825391D01*
X826006Y1072771D01*
X827661Y1071116D01*
X829689Y1069946D01*
X831950Y1069340D01*
X834290D01*
X836046Y1069810D01*
X837679Y1068177D01*
X837339Y1066468D01*
X836960Y1066022D01*
X835401Y1064463D01*
X834531Y1062363D01*
Y1060089D01*
X834700Y1059680D01*
X833520Y1058379D01*
X831444Y1058640D01*
X831265Y1058909D01*
X828675Y1061499D01*
Y1062857D01*
X827805Y1064957D01*
X826197Y1066565D01*
X824097Y1067435D01*
X821823D01*
X819723Y1066565D01*
X818115Y1064957D01*
X817245Y1062857D01*
Y1060583D01*
X818115Y1058483D01*
X819723Y1056875D01*
X821823Y1056005D01*
X823181D01*
X824633Y1054553D01*
Y1050877D01*
X823320Y1049799D01*
X821744Y1049486D01*
X820820Y1048868D01*
X819896Y1049486D01*
X818320Y1049799D01*
X816744Y1049486D01*
X815407Y1048593D01*
X814514Y1047256D01*
X814201Y1045680D01*
Y1038960D01*
X810117D01*
X808680Y1040396D01*
X808680Y1043480D01*
X808680Y1045512D01*
Y1047900D01*
X802640D01*
X796600D01*
Y1045512D01*
X796600Y1044400D01*
X796600Y1042368D01*
Y1038960D01*
X784465D01*
X765663Y1057763D01*
X763982Y1058885D01*
X762000Y1059279D01*
X754476D01*
X753371Y1060128D01*
X751692Y1060823D01*
X751234Y1060883D01*
X751367Y1062915D01*
X751840D01*
X753327Y1063211D01*
X754587Y1064053D01*
X764747Y1074213D01*
X765589Y1075473D01*
X765885Y1076960D01*
Y1096941D01*
X770194Y1101250D01*
X771820Y1100002D01*
D02*
G37*
G36*
X665126Y1050437D02*
X666807Y1049315D01*
X668789Y1048921D01*
X675709D01*
Y1042558D01*
X675946Y1040754D01*
X676643Y1039074D01*
X677750Y1037631D01*
X679193Y1036523D01*
X680874Y1035827D01*
X682677Y1035590D01*
X683983D01*
X685786Y1035827D01*
X687467Y1036523D01*
X688910Y1037631D01*
X690017Y1039074D01*
X690714Y1040754D01*
X690951Y1042558D01*
Y1048921D01*
X743984D01*
X745089Y1048072D01*
X746768Y1047377D01*
X748569Y1047140D01*
X749891D01*
X751692Y1047377D01*
X753371Y1048072D01*
X754476Y1048921D01*
X759855D01*
X777079Y1031696D01*
X776223Y1030839D01*
X775219Y1029101D01*
X774700Y1027163D01*
Y1025157D01*
X775219Y1023219D01*
X776223Y1021481D01*
X777641Y1020062D01*
X779379Y1019059D01*
X781317Y1018540D01*
X783323D01*
X785261Y1019059D01*
X786999Y1020062D01*
X788418Y1021481D01*
X789421Y1023219D01*
X789940Y1025157D01*
Y1027163D01*
X791043Y1028600D01*
X793003D01*
X793619Y1026569D01*
X792907Y1026093D01*
X792014Y1024756D01*
X791701Y1023180D01*
X792014Y1021604D01*
X792632Y1020680D01*
X792014Y1019756D01*
X791701Y1018180D01*
X792014Y1016604D01*
X792632Y1015680D01*
X792014Y1014756D01*
X791701Y1013180D01*
X792014Y1011604D01*
X792632Y1010680D01*
X792014Y1009756D01*
X791701Y1008180D01*
X790786Y1007065D01*
X669749D01*
X652987Y1023827D01*
X651727Y1024669D01*
X650240Y1024965D01*
X619478D01*
X617992Y1024669D01*
X616916Y1023950D01*
X609600Y1031266D01*
X598877Y1020543D01*
X597000Y1021321D01*
Y1023693D01*
X607086Y1033780D01*
X603116Y1037751D01*
X626985Y1061620D01*
X636277D01*
X636480Y1060597D01*
Y1059020D01*
X636580Y1058520D01*
Y1053132D01*
X636580Y1052020D01*
X636580Y1049988D01*
Y1047600D01*
X642620D01*
X648660D01*
Y1049988D01*
X648660Y1051100D01*
X648660Y1053132D01*
Y1061620D01*
X653943D01*
X665126Y1050437D01*
D02*
G37*
G36*
X824200Y1027680D02*
X824514Y1026103D01*
X825407Y1024767D01*
X825819Y1024491D01*
X825820Y1024492D01*
X826744Y1023874D01*
X828320Y1023561D01*
X829896Y1023874D01*
X830820Y1024492D01*
X831744Y1023874D01*
X833320Y1023561D01*
X834896Y1023874D01*
X835820Y1024492D01*
X836744Y1023874D01*
X838320Y1023561D01*
X839896Y1023874D01*
X840820Y1024492D01*
X841744Y1023874D01*
X843320Y1023561D01*
X844896Y1023874D01*
X845820Y1024492D01*
X846744Y1023874D01*
X848320Y1023561D01*
X849896Y1023874D01*
X850820Y1024492D01*
X851744Y1023874D01*
X853320Y1023561D01*
X854896Y1023874D01*
X855820Y1024492D01*
X856744Y1023874D01*
X858320Y1023561D01*
X859896Y1023874D01*
X860820Y1024492D01*
X861744Y1023874D01*
X863320Y1023561D01*
X864896Y1023874D01*
X865820Y1024492D01*
X866744Y1023874D01*
X868320Y1023561D01*
X869896Y1023874D01*
X870820Y1024492D01*
X871744Y1023874D01*
X873320Y1023561D01*
X873701Y1023180D01*
X874014Y1021604D01*
X874632Y1020680D01*
X874014Y1019756D01*
X873701Y1018180D01*
X874014Y1016604D01*
X874632Y1015680D01*
X874014Y1014756D01*
X873701Y1013180D01*
X874014Y1011604D01*
X874632Y1010680D01*
X874014Y1009756D01*
X873701Y1008180D01*
X874014Y1006604D01*
X874632Y1005680D01*
X874631Y1005679D01*
X874907Y1005267D01*
X876243Y1004374D01*
X877820Y1004060D01*
X886820D01*
Y1002300D01*
X877820D01*
X876243Y1001986D01*
X874907Y1001093D01*
X874631Y1000680D01*
X874632Y1000680D01*
X874014Y999756D01*
X873701Y998180D01*
X874014Y996604D01*
X874632Y995680D01*
X874014Y994756D01*
X873701Y993180D01*
X874014Y991604D01*
X874632Y990680D01*
X874014Y989756D01*
X873701Y988180D01*
X874014Y986604D01*
X874632Y985680D01*
X874014Y984756D01*
X873701Y983180D01*
X874014Y981604D01*
X874632Y980680D01*
X874014Y979756D01*
X873701Y978180D01*
X874014Y976604D01*
X874632Y975680D01*
X874014Y974756D01*
X873701Y973180D01*
X874014Y971604D01*
X874632Y970680D01*
X874014Y969756D01*
X873701Y968180D01*
X873320Y967799D01*
X871744Y967486D01*
X870820Y966868D01*
X870819Y966869D01*
X870407Y966593D01*
X869514Y965257D01*
X869200Y963680D01*
Y954680D01*
Y945680D01*
X869514Y944103D01*
X870407Y942767D01*
X870820Y942491D01*
X870820Y942492D01*
X871744Y941874D01*
X873320Y941561D01*
X874896Y941874D01*
X876233Y942767D01*
X877126Y944104D01*
X877439Y945680D01*
Y952401D01*
X880295D01*
X880420Y950420D01*
X880420Y949500D01*
X880420D01*
X880420Y949500D01*
Y946000D01*
X886460D01*
Y943460D01*
X889000D01*
Y937420D01*
X891345D01*
X892661Y936961D01*
X893120Y935645D01*
Y930985D01*
X852509D01*
X844120Y939373D01*
X844604Y941339D01*
X846418Y942092D01*
X846744Y941874D01*
X848320Y941561D01*
X849896Y941874D01*
X850820Y942492D01*
X851744Y941874D01*
X853320Y941561D01*
X854896Y941874D01*
X855820Y942492D01*
X856744Y941874D01*
X858320Y941561D01*
X859896Y941874D01*
X860820Y942492D01*
X861744Y941874D01*
X863320Y941561D01*
X864896Y941874D01*
X865820Y942492D01*
X865820Y942491D01*
X866233Y942767D01*
X867126Y944103D01*
X867440Y945680D01*
Y954680D01*
Y963680D01*
X867126Y965257D01*
X866233Y966593D01*
X865820Y966869D01*
X865820Y966868D01*
X864896Y967486D01*
X863320Y967799D01*
X861744Y967486D01*
X860820Y966868D01*
X859896Y967486D01*
X858320Y967799D01*
X856744Y967486D01*
X855820Y966868D01*
X854896Y967486D01*
X853320Y967799D01*
X851744Y967486D01*
X850820Y966868D01*
X849896Y967486D01*
X848320Y967799D01*
X846744Y967486D01*
X845820Y966868D01*
X844896Y967486D01*
X843320Y967799D01*
X841744Y967486D01*
X840820Y966868D01*
X839896Y967486D01*
X838320Y967799D01*
X836744Y967486D01*
X835820Y966868D01*
X834896Y967486D01*
X833320Y967799D01*
X831744Y967486D01*
X830820Y966868D01*
X829896Y967486D01*
X828320Y967799D01*
X826744Y967486D01*
X825820Y966868D01*
X824896Y967486D01*
X823320Y967799D01*
X821744Y967486D01*
X820820Y966868D01*
X819896Y967486D01*
X818320Y967799D01*
X817939Y968180D01*
X817626Y969756D01*
X817008Y970680D01*
X817009Y970680D01*
X816733Y971093D01*
X815397Y971986D01*
X813820Y972300D01*
X804820D01*
Y974060D01*
X813820D01*
X815397Y974374D01*
X816733Y975267D01*
X817009Y975679D01*
X817008Y975680D01*
X817626Y976604D01*
X817939Y978180D01*
X817626Y979756D01*
X817008Y980680D01*
X817626Y981604D01*
X817939Y983180D01*
X817626Y984756D01*
X817008Y985680D01*
X817626Y986604D01*
X817939Y988180D01*
X817626Y989756D01*
X817008Y990680D01*
X817626Y991604D01*
X817939Y993180D01*
X817626Y994756D01*
X817008Y995680D01*
X817626Y996604D01*
X817939Y998180D01*
X817626Y999756D01*
X817008Y1000680D01*
X817626Y1001604D01*
X817939Y1003180D01*
X817626Y1004756D01*
X817008Y1005680D01*
X817626Y1006604D01*
X817939Y1008180D01*
X817626Y1009756D01*
X817008Y1010680D01*
X817626Y1011604D01*
X817939Y1013180D01*
X817626Y1014756D01*
X817008Y1015680D01*
X817626Y1016604D01*
X817939Y1018180D01*
X817626Y1019756D01*
X817008Y1020680D01*
X817626Y1021604D01*
X817939Y1023180D01*
X818320Y1023561D01*
X819896Y1023874D01*
X820820Y1024492D01*
X820820Y1024491D01*
X821233Y1024767D01*
X822126Y1026103D01*
X822440Y1027680D01*
Y1036680D01*
X824200D01*
Y1027680D01*
D02*
G37*
G36*
X665393Y1000433D02*
X666653Y999591D01*
X668140Y999295D01*
X788987D01*
X789630Y998180D01*
X788987Y997065D01*
X678220D01*
X676733Y996769D01*
X675473Y995927D01*
X665273Y985727D01*
X664431Y984467D01*
X664135Y982980D01*
Y981926D01*
X662258Y981148D01*
X650240Y993166D01*
X634974Y977900D01*
X636913Y975960D01*
X636135Y974083D01*
X633442D01*
X608274Y999251D01*
X609600Y1000734D01*
X624866Y1016000D01*
Y1016000D01*
X625362Y1017195D01*
X648631D01*
X665393Y1000433D01*
D02*
G37*
G36*
X791701Y973180D02*
X792014Y971604D01*
X792574Y970767D01*
X792313Y970203D01*
X792014Y969756D01*
X791945Y969408D01*
X791759Y969005D01*
X791360Y969085D01*
X753588D01*
X752102Y968789D01*
X750841Y967947D01*
X724015Y941121D01*
X723900Y941136D01*
X721911Y940874D01*
X720057Y940106D01*
X718465Y938885D01*
X717244Y937293D01*
X717117Y936986D01*
X715085Y937390D01*
Y952777D01*
X736603Y974295D01*
X790786D01*
X791701Y973180D01*
D02*
G37*
G36*
X782480Y961080D02*
Y957580D01*
X788520D01*
Y952500D01*
X782480D01*
Y949000D01*
X780546Y948765D01*
X764540D01*
X763053Y948469D01*
X761793Y947627D01*
X754686Y940519D01*
X753829Y940874D01*
X751840Y941136D01*
X749851Y940874D01*
X747997Y940106D01*
X746405Y938885D01*
X745184Y937293D01*
X744416Y935439D01*
X744154Y933450D01*
Y930910D01*
X744416Y928921D01*
X745184Y927067D01*
X746405Y925475D01*
X747997Y924254D01*
X749851Y923486D01*
X750525Y923397D01*
X751559Y921212D01*
X751318Y920825D01*
X724422D01*
X724181Y921212D01*
X725215Y923397D01*
X725889Y923486D01*
X727743Y924254D01*
X729335Y925475D01*
X730556Y927067D01*
X731324Y928921D01*
X731586Y930910D01*
Y933450D01*
X731324Y935439D01*
X730737Y936855D01*
X755197Y961315D01*
X780546D01*
X782480Y961080D01*
D02*
G37*
G36*
X586641Y1023693D02*
Y1008380D01*
X587035Y1006398D01*
X588158Y1004717D01*
X627634Y965241D01*
X629314Y964118D01*
X631296Y963724D01*
X641244D01*
X643226Y964118D01*
X644906Y965241D01*
X646269Y966604D01*
X650240Y962634D01*
X662258Y974652D01*
X664135Y973874D01*
Y971502D01*
X652754Y960120D01*
X668020Y944854D01*
X683286Y960120D01*
X671905Y971502D01*
Y981371D01*
X679829Y989295D01*
X790786D01*
X791701Y988180D01*
X792014Y986604D01*
X792632Y985680D01*
X792014Y984756D01*
X791701Y983180D01*
X790786Y982065D01*
X734994D01*
X733507Y981769D01*
X732247Y980927D01*
X708453Y957133D01*
X707611Y955873D01*
X707315Y954386D01*
Y927100D01*
X707611Y925613D01*
X708453Y924353D01*
X718613Y914193D01*
X719873Y913351D01*
X721360Y913055D01*
X754380D01*
X755867Y913351D01*
X757127Y914193D01*
X768462Y925528D01*
X769265Y925475D01*
X770857Y924254D01*
X772711Y923486D01*
X774700Y923224D01*
X776689Y923486D01*
X778543Y924254D01*
X780135Y925475D01*
X781356Y927067D01*
X782124Y928921D01*
X782386Y930910D01*
Y933450D01*
X782124Y935439D01*
X781356Y937293D01*
X780135Y938885D01*
X780032Y938963D01*
X780722Y940995D01*
X794078D01*
X794768Y938963D01*
X794665Y938885D01*
X793444Y937293D01*
X792676Y935439D01*
X792581Y934720D01*
X800100D01*
X807619D01*
X807524Y935439D01*
X806756Y937293D01*
X805535Y938885D01*
X805432Y938963D01*
X806122Y940995D01*
X817395D01*
X818882Y941291D01*
X819695Y941834D01*
X819896Y941874D01*
X820820Y942492D01*
X821744Y941874D01*
X823320Y941561D01*
X824896Y941874D01*
X825820Y942492D01*
X826744Y941874D01*
X828320Y941561D01*
X829896Y941874D01*
X830820Y942492D01*
X831744Y941874D01*
X833320Y941561D01*
X834435Y940646D01*
Y939680D01*
X834731Y938193D01*
X835573Y936933D01*
X848153Y924353D01*
X849413Y923511D01*
X850900Y923215D01*
X897982D01*
X899469Y923511D01*
X900729Y924353D01*
X900974Y924720D01*
X905200D01*
Y928295D01*
X906344D01*
X907831Y928591D01*
X908483Y929027D01*
X910515Y928186D01*
Y891026D01*
X908483Y890482D01*
X907755Y891743D01*
X907532Y891998D01*
X907344Y892279D01*
X904979Y894644D01*
X904697Y894832D01*
X904443Y895055D01*
X901547Y896727D01*
X901226Y896836D01*
X900922Y896986D01*
X897692Y897851D01*
X897354Y897874D01*
X897022Y897940D01*
X862563D01*
X862231Y897874D01*
X861893Y897851D01*
X858663Y896986D01*
X858359Y896836D01*
X858038Y896727D01*
X855142Y895055D01*
X854887Y894832D01*
X854606Y894644D01*
X852241Y892279D01*
X852053Y891998D01*
X851830Y891743D01*
X850158Y888847D01*
X850049Y888526D01*
X849899Y888222D01*
X849034Y884992D01*
X849011Y884654D01*
X848945Y884322D01*
Y880978D01*
X849011Y880646D01*
X849034Y880308D01*
X849899Y877078D01*
X850049Y876774D01*
X850158Y876453D01*
X851830Y873557D01*
X852053Y873303D01*
X852241Y873021D01*
X854606Y870656D01*
X854887Y870468D01*
X855142Y870245D01*
X858038Y868573D01*
X858359Y868464D01*
X858663Y868314D01*
X861893Y867449D01*
X862231Y867426D01*
X862563Y867360D01*
X897022D01*
X897354Y867426D01*
X897692Y867449D01*
X900922Y868314D01*
X901226Y868464D01*
X901547Y868573D01*
X904443Y870245D01*
X904697Y870468D01*
X904979Y870656D01*
X907344Y873021D01*
X907532Y873303D01*
X907755Y873557D01*
X909427Y876453D01*
X909536Y876774D01*
X909686Y877078D01*
X909847Y877679D01*
X910441Y877992D01*
X912090Y878197D01*
X927461Y862825D01*
X926539Y860874D01*
X926440Y860884D01*
X923452Y860590D01*
X920580Y859718D01*
X917932Y858303D01*
X915612Y856398D01*
X913972Y854401D01*
X912788Y854587D01*
X911940Y855056D01*
Y856400D01*
X907690D01*
Y848360D01*
Y840320D01*
X911126D01*
Y823026D01*
X910143Y822218D01*
X908418Y820494D01*
X891340D01*
Y820640D01*
X843260D01*
Y810114D01*
X832900D01*
X829912Y809819D01*
X827040Y808948D01*
X824392Y807533D01*
X822072Y805628D01*
X782922Y766479D01*
X776572Y760128D01*
X774667Y757808D01*
X773252Y755160D01*
X772381Y752288D01*
X772086Y749300D01*
Y732790D01*
X772205Y731587D01*
X772160Y731420D01*
Y729080D01*
X772766Y726819D01*
X773936Y724791D01*
X775261Y723467D01*
X774982Y722254D01*
X774375Y721435D01*
X769959D01*
X753185Y738209D01*
Y779560D01*
X782340D01*
Y820640D01*
X762263D01*
X762243Y820664D01*
X740229Y842679D01*
X737908Y844583D01*
X735260Y845998D01*
X732388Y846870D01*
X729400Y847164D01*
X720090D01*
Y859790D01*
X676910D01*
Y816610D01*
X704101D01*
X704850Y816536D01*
X723057D01*
X726360Y813233D01*
Y805980D01*
X724992Y803420D01*
X724120Y800548D01*
X723826Y797560D01*
X724039Y795401D01*
X724061Y795149D01*
X722905Y793799D01*
X722341Y793440D01*
X719790D01*
Y787400D01*
Y781360D01*
X722178D01*
X723290Y781360D01*
X725322Y781360D01*
X734260D01*
Y779560D01*
X745415D01*
Y736600D01*
X745711Y735113D01*
X746553Y733853D01*
X765603Y714803D01*
X765630Y714535D01*
X760796Y709701D01*
X759673Y708020D01*
X759279Y706038D01*
Y704460D01*
X748420D01*
Y702939D01*
X747807Y702580D01*
X746388Y702299D01*
X744789Y704249D01*
X742468Y706153D01*
X739820Y707568D01*
X736948Y708439D01*
X733960Y708734D01*
X730972Y708439D01*
X728100Y707568D01*
X725452Y706153D01*
X723131Y704249D01*
X721227Y701928D01*
X719812Y699280D01*
X718941Y696408D01*
X718646Y693420D01*
Y686963D01*
X697731Y666049D01*
X695827Y663728D01*
X694412Y661080D01*
X693540Y658208D01*
X693246Y655220D01*
Y642620D01*
X693540Y639632D01*
X694244Y637313D01*
Y631142D01*
X694538Y628154D01*
X695410Y625282D01*
X696825Y622634D01*
X698729Y620313D01*
X728760Y590283D01*
Y563860D01*
X769840D01*
Y604245D01*
X788470D01*
X789957Y604541D01*
X791217Y605383D01*
X799717Y613883D01*
X800470Y615010D01*
X814874D01*
X815716Y612978D01*
X815575Y612837D01*
X815040Y611544D01*
X813082Y609587D01*
X811959Y607907D01*
X811565Y605925D01*
Y556245D01*
Y555392D01*
X811455Y554840D01*
Y538010D01*
X811565Y537458D01*
Y536605D01*
X811959Y534623D01*
X813082Y532943D01*
X813082Y532943D01*
X838101Y507925D01*
Y487709D01*
X769840D01*
Y502940D01*
X728760D01*
Y454860D01*
X769840D01*
Y457081D01*
X849020D01*
Y449950D01*
X873100D01*
Y454586D01*
X930910D01*
Y440690D01*
X952433D01*
X954371Y438751D01*
X956422Y437069D01*
X956312Y436103D01*
X955768Y435037D01*
X669987D01*
Y914400D01*
X669741Y915639D01*
X669039Y916689D01*
X579817Y1005911D01*
Y1027861D01*
X581694Y1028639D01*
X586641Y1023693D01*
D02*
G37*
G36*
X967695Y822591D02*
Y711322D01*
X965663Y710326D01*
X964790Y711003D01*
Y717990D01*
X949970D01*
X949730Y719195D01*
X948972Y720330D01*
X942930Y726372D01*
X941795Y727130D01*
X940457Y727396D01*
X913797D01*
X913796Y727396D01*
X912459Y727130D01*
X911324Y726372D01*
X911324Y726372D01*
X907347Y722395D01*
X900120D01*
Y722780D01*
X894080D01*
X888040D01*
Y722395D01*
X885419D01*
X884950Y722780D01*
X878840D01*
X872800D01*
Y719280D01*
X872800Y719280D01*
Y718360D01*
X872800D01*
X872800Y717248D01*
Y713605D01*
X865017Y705823D01*
X864215Y704621D01*
X863635Y704234D01*
X862858Y703072D01*
X862785Y702987D01*
X860622Y702434D01*
X848745Y714311D01*
X849057Y715880D01*
X850665Y717488D01*
X851535Y719588D01*
Y721862D01*
X850665Y723962D01*
X849057Y725570D01*
X846957Y726440D01*
X844683D01*
X842583Y725570D01*
X840975Y723962D01*
X840146Y721961D01*
X839930Y721817D01*
X839548Y721435D01*
X800425D01*
X799464Y723467D01*
X800133Y724282D01*
X801548Y726930D01*
X802420Y729802D01*
X802714Y732790D01*
Y734686D01*
X803304Y735709D01*
X803910Y737970D01*
Y740310D01*
X803304Y742571D01*
X802947Y743190D01*
X804578Y744821D01*
X839243Y779486D01*
X862000D01*
X862749Y779560D01*
X891340D01*
Y789866D01*
X914761D01*
X917749Y790161D01*
X920621Y791032D01*
X923269Y792447D01*
X925590Y794352D01*
X927388Y796150D01*
X941680D01*
Y805238D01*
X942373Y806082D01*
X943788Y808730D01*
X944660Y811602D01*
X944954Y814590D01*
Y816440D01*
X944660Y819428D01*
X943788Y822300D01*
X942373Y824948D01*
X941754Y825702D01*
Y845570D01*
X941744Y845669D01*
X943695Y846591D01*
X967695Y822591D01*
D02*
G37*
G36*
X940565Y718848D02*
X940210Y717990D01*
X940210D01*
Y704410D01*
X959796D01*
X966086Y698120D01*
X957531Y689565D01*
X906929D01*
X906014Y690680D01*
X905723Y692144D01*
X904894Y693385D01*
X903652Y694215D01*
X902237Y694496D01*
Y708047D01*
X901941Y709534D01*
X901099Y710794D01*
X900120Y711774D01*
Y715403D01*
X908795D01*
X910133Y715669D01*
X911268Y716427D01*
X915245Y720404D01*
X939009D01*
X940565Y718848D01*
D02*
G37*
G36*
X852975Y695431D02*
X852865Y693438D01*
X852786Y693385D01*
X851957Y692144D01*
X851666Y690680D01*
X851957Y689216D01*
X852649Y688180D01*
X851957Y687144D01*
X851800Y686355D01*
X849971Y685570D01*
X849727Y685555D01*
X848195Y687087D01*
X846934Y687929D01*
X845989Y688117D01*
X845356Y688364D01*
X844240Y690056D01*
Y692300D01*
X838200D01*
X832160D01*
Y689912D01*
X832160Y688800D01*
X832160Y687161D01*
X831032Y686033D01*
X829881Y686281D01*
X829000Y687161D01*
Y687880D01*
X829000D01*
Y688800D01*
X829000D01*
Y692300D01*
X822960D01*
X816754D01*
X815043Y691591D01*
X808930Y697704D01*
Y707290D01*
X841116D01*
X852975Y695431D01*
D02*
G37*
G36*
X976780Y672140D02*
X977825D01*
Y655659D01*
X963029Y640863D01*
X958818D01*
X958540Y642780D01*
X958540Y642895D01*
Y646280D01*
X952500D01*
Y651360D01*
X958540D01*
Y653748D01*
X958540Y654860D01*
X958540Y656892D01*
Y667493D01*
X966108D01*
X967594Y667789D01*
X968855Y668631D01*
X970151Y669927D01*
X970993Y671188D01*
X971182Y672140D01*
X971700D01*
Y678180D01*
X976780D01*
Y672140D01*
D02*
G37*
G36*
X919835Y634232D02*
X922870Y631196D01*
Y627050D01*
X898570D01*
Y623645D01*
X896492D01*
X895006Y623349D01*
X893745Y622507D01*
X888533Y617295D01*
X873888D01*
X872401Y616999D01*
X871141Y616157D01*
X869589Y614605D01*
X862020D01*
Y616760D01*
X862020D01*
Y617680D01*
X862020D01*
Y619835D01*
X865020D01*
X866507Y620131D01*
X867767Y620973D01*
X894087Y647293D01*
X894929Y648553D01*
X895225Y650040D01*
Y655968D01*
X897257Y656810D01*
X919835Y634232D01*
D02*
G37*
G36*
X766349Y655537D02*
X765571Y653660D01*
X748520D01*
Y631580D01*
X770600D01*
Y642521D01*
X815792D01*
X816196Y640489D01*
X814643Y639845D01*
X813035Y638237D01*
X812165Y636137D01*
Y633863D01*
X813035Y631763D01*
X813176Y631622D01*
X812334Y629590D01*
X793160D01*
Y619195D01*
X793085Y618820D01*
Y618239D01*
X786861Y612015D01*
X766030D01*
X765655Y611940D01*
X750417D01*
X732809Y629548D01*
X733651Y631580D01*
X735513D01*
X738321Y632332D01*
X740839Y633786D01*
X742894Y635841D01*
X744348Y638359D01*
X745100Y641167D01*
Y644073D01*
X744348Y646881D01*
X742894Y649399D01*
X740839Y651454D01*
X738321Y652908D01*
X735513Y653660D01*
X732607D01*
X731137Y653266D01*
X730085Y655088D01*
X744788Y669791D01*
X744789Y669791D01*
X746693Y672112D01*
X746962Y672616D01*
X748972Y672914D01*
X766349Y655537D01*
D02*
G37*
G36*
X1000063Y510120D02*
Y480480D01*
X998031Y479971D01*
X997237Y481456D01*
X995332Y483777D01*
X995079Y484030D01*
X992758Y485935D01*
X990110Y487350D01*
X987238Y488222D01*
X984250Y488516D01*
X969809D01*
X966822Y488222D01*
X963949Y487350D01*
X961301Y485935D01*
X958981Y484030D01*
X958981Y484030D01*
X958894Y483944D01*
X958850D01*
X958101Y483870D01*
X951073D01*
X950740Y484048D01*
X947868Y484920D01*
X944880Y485214D01*
X934787D01*
X934500Y488128D01*
X933628Y491000D01*
X932213Y493648D01*
X931870Y494066D01*
Y497538D01*
X931870Y498650D01*
X931870D01*
Y499570D01*
X931870D01*
Y506730D01*
X942340D01*
Y509988D01*
X962660D01*
Y506656D01*
X973879D01*
X975996Y504919D01*
X978644Y503504D01*
X981516Y502632D01*
X984504Y502338D01*
X987492Y502632D01*
X990364Y503504D01*
X993012Y504919D01*
X995332Y506824D01*
X997237Y509144D01*
X998031Y510629D01*
X1000063Y510120D01*
D02*
G37*
%LPC*%
G36*
X732640Y1100780D02*
X729140D01*
Y1097280D01*
X732640D01*
Y1100780D01*
D02*
G37*
G36*
Y1092200D02*
X729140D01*
Y1088700D01*
X732640D01*
Y1092200D01*
D02*
G37*
G36*
X605155Y1092835D02*
X596900D01*
Y1084580D01*
X605155D01*
Y1092835D01*
D02*
G37*
G36*
X591820D02*
X583565D01*
Y1084580D01*
X591820D01*
Y1092835D01*
D02*
G37*
G36*
X605155Y1079500D02*
X596900D01*
Y1071245D01*
X605155D01*
Y1079500D01*
D02*
G37*
G36*
X591820D02*
X583565D01*
Y1071245D01*
X591820D01*
Y1079500D01*
D02*
G37*
G36*
X910440Y1060140D02*
X906940D01*
Y1056640D01*
X910440D01*
Y1060140D01*
D02*
G37*
G36*
Y1051560D02*
X906940D01*
Y1048060D01*
X910440D01*
Y1051560D01*
D02*
G37*
G36*
Y1044900D02*
X906940D01*
Y1041400D01*
X910440D01*
Y1044900D01*
D02*
G37*
G36*
Y1036320D02*
X906940D01*
Y1032820D01*
X910440D01*
Y1036320D01*
D02*
G37*
G36*
X969950Y1036910D02*
X965200D01*
Y1032660D01*
X969950D01*
Y1036910D01*
D02*
G37*
G36*
X944880D02*
X940130D01*
Y1032660D01*
X944880D01*
Y1036910D01*
D02*
G37*
G36*
X912820Y1028540D02*
X909320D01*
Y1025040D01*
X912820D01*
Y1028540D01*
D02*
G37*
G36*
X952615Y627050D02*
X948365D01*
Y622300D01*
X952615D01*
Y627050D01*
D02*
G37*
G36*
Y617220D02*
X948365D01*
Y612470D01*
X952615D01*
Y617220D01*
D02*
G37*
G36*
X854110Y600110D02*
X837530D01*
Y583530D01*
X854110D01*
Y600110D01*
D02*
G37*
G36*
X873100Y543530D02*
X867410D01*
Y529590D01*
X873100D01*
Y543530D01*
D02*
G37*
G36*
X854710D02*
X849020D01*
Y529590D01*
X854710D01*
Y543530D01*
D02*
G37*
G36*
X916630Y511650D02*
X913130D01*
Y508150D01*
X916630D01*
Y511650D01*
D02*
G37*
G36*
X923290D02*
X919790D01*
Y508150D01*
X923290D01*
Y511650D01*
D02*
G37*
G36*
X908050D02*
X904550D01*
Y508150D01*
X908050D01*
Y511650D01*
D02*
G37*
G36*
X873100Y516890D02*
X867410D01*
Y502950D01*
X873100D01*
Y516890D01*
D02*
G37*
G36*
X808680Y1056480D02*
X805180D01*
Y1052980D01*
X808680D01*
Y1056480D01*
D02*
G37*
G36*
X800100D02*
X796600D01*
Y1052980D01*
X800100D01*
Y1056480D01*
D02*
G37*
G36*
X648660Y1042520D02*
X645160D01*
Y1039020D01*
X648660D01*
Y1042520D01*
D02*
G37*
G36*
X640080D02*
X636580D01*
Y1039020D01*
X640080D01*
Y1042520D01*
D02*
G37*
G36*
X756792Y1038101D02*
X751770D01*
Y1033740D01*
X756792D01*
Y1038101D01*
D02*
G37*
G36*
X746690D02*
X741668D01*
Y1033740D01*
X746690D01*
Y1038101D01*
D02*
G37*
G36*
X756792Y1028660D02*
X751770D01*
Y1024299D01*
X756792D01*
Y1028660D01*
D02*
G37*
G36*
X746690D02*
X741668D01*
Y1024299D01*
X746690D01*
Y1028660D01*
D02*
G37*
G36*
X883920Y940920D02*
X880420D01*
Y937420D01*
X883920D01*
Y940920D01*
D02*
G37*
G36*
X629920Y1012216D02*
X624083Y1006379D01*
X629920Y1000542D01*
X635757Y1006379D01*
X629920Y1012216D01*
D02*
G37*
G36*
X639349Y1002787D02*
X633512Y996950D01*
X639349Y991113D01*
X645186Y996950D01*
X639349Y1002787D01*
D02*
G37*
G36*
X620491D02*
X614654Y996950D01*
X620491Y991113D01*
X626328Y996950D01*
X620491Y1002787D01*
D02*
G37*
G36*
X629920Y993358D02*
X624083Y987521D01*
X629920Y981684D01*
X635757Y987521D01*
X629920Y993358D01*
D02*
G37*
G36*
X685800Y957606D02*
X679963Y951769D01*
X685800Y945932D01*
X691637Y951769D01*
X685800Y957606D01*
D02*
G37*
G36*
X695229Y948177D02*
X689392Y942340D01*
X695229Y936503D01*
X701066Y942340D01*
X695229Y948177D01*
D02*
G37*
G36*
X676371D02*
X670534Y942340D01*
X676371Y936503D01*
X682208Y942340D01*
X676371Y948177D01*
D02*
G37*
G36*
X685800Y938748D02*
X679963Y932911D01*
X685800Y927074D01*
X691637Y932911D01*
X685800Y938748D01*
D02*
G37*
G36*
X807619Y929640D02*
X802640D01*
Y923714D01*
X803943Y924254D01*
X805535Y925475D01*
X806756Y927067D01*
X807524Y928921D01*
X807619Y929640D01*
D02*
G37*
G36*
X797560D02*
X792581D01*
X792676Y928921D01*
X793444Y927067D01*
X794665Y925475D01*
X796257Y924254D01*
X797560Y923714D01*
Y929640D01*
D02*
G37*
G36*
X820187Y897940D02*
X780013D01*
X779681Y897874D01*
X779343Y897851D01*
X776113Y896986D01*
X775809Y896836D01*
X775488Y896727D01*
X772592Y895055D01*
X772337Y894832D01*
X772056Y894644D01*
X769691Y892279D01*
X769503Y891998D01*
X769280Y891743D01*
X767608Y888847D01*
X767499Y888526D01*
X767349Y888222D01*
X766484Y884992D01*
X766461Y884654D01*
X766395Y884322D01*
Y880978D01*
X766461Y880646D01*
X766484Y880308D01*
X767349Y877078D01*
X767499Y876774D01*
X767608Y876453D01*
X769280Y873557D01*
X769503Y873303D01*
X769691Y873021D01*
X772056Y870656D01*
X772337Y870468D01*
X772592Y870245D01*
X775488Y868573D01*
X775809Y868464D01*
X776113Y868314D01*
X779343Y867449D01*
X779681Y867426D01*
X780013Y867360D01*
X820187D01*
X820519Y867426D01*
X820857Y867449D01*
X824087Y868314D01*
X824391Y868464D01*
X824712Y868573D01*
X827608Y870245D01*
X827862Y870468D01*
X828144Y870656D01*
X830509Y873021D01*
X830697Y873303D01*
X830920Y873557D01*
X832592Y876453D01*
X832701Y876774D01*
X832851Y877078D01*
X833717Y880308D01*
X833739Y880646D01*
X833805Y880978D01*
Y884322D01*
X833739Y884654D01*
X833717Y884992D01*
X832851Y888222D01*
X832701Y888526D01*
X832592Y888847D01*
X830920Y891743D01*
X830697Y891998D01*
X830509Y892279D01*
X828144Y894644D01*
X827862Y894832D01*
X827608Y895055D01*
X824712Y896727D01*
X824391Y896836D01*
X824087Y896986D01*
X820857Y897851D01*
X820519Y897874D01*
X820187Y897940D01*
D02*
G37*
G36*
X737637D02*
X697463D01*
X697131Y897874D01*
X696793Y897851D01*
X693563Y896986D01*
X693259Y896836D01*
X692938Y896727D01*
X690042Y895055D01*
X689788Y894832D01*
X689506Y894644D01*
X687141Y892279D01*
X686953Y891998D01*
X686730Y891743D01*
X685058Y888847D01*
X684949Y888526D01*
X684799Y888222D01*
X683933Y884992D01*
X683911Y884654D01*
X683845Y884322D01*
Y880978D01*
X683911Y880646D01*
X683933Y880308D01*
X684799Y877078D01*
X684949Y876774D01*
X685058Y876453D01*
X686730Y873557D01*
X686953Y873303D01*
X687141Y873021D01*
X689506Y870656D01*
X689788Y870468D01*
X690042Y870245D01*
X692938Y868573D01*
X693259Y868464D01*
X693563Y868314D01*
X696793Y867449D01*
X697131Y867426D01*
X697463Y867360D01*
X737637D01*
X737969Y867426D01*
X738307Y867449D01*
X741537Y868314D01*
X741841Y868464D01*
X742162Y868573D01*
X745058Y870245D01*
X745312Y870468D01*
X745594Y870656D01*
X747959Y873021D01*
X748147Y873303D01*
X748370Y873557D01*
X750042Y876453D01*
X750151Y876774D01*
X750301Y877078D01*
X751167Y880308D01*
X751189Y880646D01*
X751255Y880978D01*
Y884322D01*
X751189Y884654D01*
X751167Y884992D01*
X750301Y888222D01*
X750151Y888526D01*
X750042Y888847D01*
X748370Y891743D01*
X748147Y891998D01*
X747959Y892279D01*
X745594Y894644D01*
X745312Y894832D01*
X745058Y895055D01*
X742162Y896727D01*
X741841Y896836D01*
X741537Y896986D01*
X738307Y897851D01*
X737969Y897874D01*
X737637Y897940D01*
D02*
G37*
G36*
X902610Y856400D02*
X898360D01*
Y850900D01*
X902610D01*
Y856400D01*
D02*
G37*
G36*
Y845820D02*
X898360D01*
Y840320D01*
X902610D01*
Y845820D01*
D02*
G37*
G36*
X721440Y814490D02*
X717190D01*
Y808990D01*
X721440D01*
Y814490D01*
D02*
G37*
G36*
X712110D02*
X707860D01*
Y808990D01*
X712110D01*
Y814490D01*
D02*
G37*
G36*
X721440Y803910D02*
X717190D01*
Y798410D01*
X721440D01*
Y803910D01*
D02*
G37*
G36*
X712110D02*
X707860D01*
Y798410D01*
X712110D01*
Y803910D01*
D02*
G37*
G36*
X714710Y793440D02*
X711210D01*
Y789940D01*
X714710D01*
Y793440D01*
D02*
G37*
G36*
Y784860D02*
X711210D01*
Y781360D01*
X714710D01*
Y784860D01*
D02*
G37*
G36*
X720090Y770890D02*
X708660D01*
Y767632D01*
X688340D01*
Y770890D01*
X676910D01*
Y759460D01*
X680168D01*
Y739140D01*
X676910D01*
Y727710D01*
X688340D01*
Y730968D01*
X708660D01*
Y727710D01*
X720090D01*
Y739140D01*
X716832D01*
Y759460D01*
X720090D01*
Y770890D01*
D02*
G37*
G36*
X941680Y783730D02*
X935990D01*
Y769790D01*
X941680D01*
Y783730D01*
D02*
G37*
G36*
X923290D02*
X917600D01*
Y769790D01*
X923290D01*
Y783730D01*
D02*
G37*
G36*
X941680Y757090D02*
X935990D01*
Y743150D01*
X941680D01*
Y757090D01*
D02*
G37*
G36*
X923290D02*
X917600D01*
Y743150D01*
X923290D01*
Y757090D01*
D02*
G37*
G36*
X900120Y731360D02*
X896620D01*
Y727860D01*
X900120D01*
Y731360D01*
D02*
G37*
G36*
X884880D02*
X881380D01*
Y727860D01*
X884880D01*
Y731360D01*
D02*
G37*
G36*
X891540D02*
X888040D01*
Y727860D01*
X891540D01*
Y731360D01*
D02*
G37*
G36*
X876300D02*
X872800D01*
Y727860D01*
X876300D01*
Y731360D01*
D02*
G37*
G36*
X844240Y700880D02*
X840740D01*
Y697380D01*
X844240D01*
Y700880D01*
D02*
G37*
G36*
X829000D02*
X825500D01*
Y697380D01*
X829000D01*
Y700880D01*
D02*
G37*
G36*
X835660D02*
X832160D01*
Y697380D01*
X835660D01*
Y700880D01*
D02*
G37*
G36*
X820420D02*
X816920D01*
Y697380D01*
X820420D01*
Y700880D01*
D02*
G37*
%LPD*%
D13*
X868217Y658668D02*
X869950Y660400D01*
X866340Y658668D02*
X868217D01*
X859327Y689279D02*
Y690680D01*
Y687878D02*
Y689279D01*
X749775Y1100295D02*
X767080Y1117600D01*
X811530D02*
X833120Y1096010D01*
X767080Y1117600D02*
X811530D01*
X748180Y1094740D02*
X749775Y1096335D01*
Y1100295D01*
X748180Y1094740D02*
X748705Y1094215D01*
Y1077525D02*
Y1094215D01*
Y1077525D02*
X749230Y1077000D01*
D17*
X967404Y672674D02*
Y673213D01*
X967661Y673470D01*
Y683207D01*
X967819Y683365D01*
X881340Y680680D02*
X890383Y689723D01*
X878840Y678180D02*
X881340Y680680D01*
X891017Y693026D02*
Y697369D01*
X891340Y697692D01*
X890383Y692392D02*
X891017Y693026D01*
X890383Y689723D02*
Y692392D01*
X913796Y723900D02*
X940457D01*
X908795Y718899D02*
X913796Y723900D01*
X940457D02*
X946500Y717857D01*
Y711200D02*
Y717857D01*
X885419Y718899D02*
X908795D01*
X886340Y697692D02*
Y705512D01*
X878840Y712320D02*
X885419Y718899D01*
X854865Y624835D02*
X855980Y623720D01*
X854047Y625653D02*
X854865Y624835D01*
X854630Y623720D02*
X855980D01*
X854047Y623138D02*
Y625653D01*
D19*
X974240Y678180D02*
D03*
X961240D02*
D03*
X938680Y647700D02*
D03*
X925680D02*
D03*
X717250Y787400D02*
D03*
X730250D02*
D03*
X941220Y678180D02*
D03*
X928220D02*
D03*
X834540Y665480D02*
D03*
X821540D02*
D03*
X748180Y1094740D02*
D03*
X735180D02*
D03*
X788520Y955040D02*
D03*
X801520D02*
D03*
X925980Y1054100D02*
D03*
X912980D02*
D03*
X925980Y1038860D02*
D03*
X912980D02*
D03*
D20*
X855980Y623720D02*
D03*
Y610720D02*
D03*
X952500Y648820D02*
D03*
Y661820D02*
D03*
X878840Y725320D02*
D03*
Y712320D02*
D03*
X910590Y505610D02*
D03*
Y492610D02*
D03*
X925830Y505610D02*
D03*
Y492610D02*
D03*
X822960Y694840D02*
D03*
Y681840D02*
D03*
X894080Y725320D02*
D03*
Y712320D02*
D03*
X838200Y694840D02*
D03*
Y681840D02*
D03*
X802640Y1050440D02*
D03*
Y1037440D02*
D03*
X642620Y1058060D02*
D03*
Y1045060D02*
D03*
X886460Y943460D02*
D03*
Y956460D02*
D03*
X906780Y1022500D02*
D03*
Y1009500D02*
D03*
X899160Y930760D02*
D03*
Y943760D02*
D03*
D21*
X945825Y619760D02*
D03*
X932825D02*
D03*
X918360D02*
D03*
X905360D02*
D03*
X827740Y624840D02*
D03*
X840740D02*
D03*
X933600Y662940D02*
D03*
X920600D02*
D03*
X799950Y622300D02*
D03*
X812950D02*
D03*
D22*
X905150Y848360D02*
D03*
X923650D02*
D03*
X714650Y806450D02*
D03*
X733150D02*
D03*
D23*
X898353Y690680D02*
D03*
Y685680D02*
D03*
Y680680D02*
D03*
Y675680D02*
D03*
Y670680D02*
D03*
Y665680D02*
D03*
X859327D02*
D03*
Y670680D02*
D03*
Y675680D02*
D03*
Y680680D02*
D03*
Y685680D02*
D03*
Y690680D02*
D03*
D24*
X891340Y658668D02*
D03*
X886340D02*
D03*
X881340D02*
D03*
X876340D02*
D03*
X871340D02*
D03*
X866340D02*
D03*
Y697692D02*
D03*
X871340D02*
D03*
X876340D02*
D03*
X881340D02*
D03*
X886340D02*
D03*
D25*
X891340D02*
D03*
D26*
X861060Y470240D02*
D03*
Y523240D02*
D03*
X929640Y816440D02*
D03*
Y763440D02*
D03*
D27*
X958500Y711200D02*
D03*
X946500D02*
D03*
D28*
X802640Y702800D02*
D03*
Y668800D02*
D03*
D29*
X749300Y478900D02*
D03*
Y587900D02*
D03*
D30*
X867300Y800100D02*
D03*
X758300D02*
D03*
D31*
X947420Y1017120D02*
D03*
Y1030120D02*
D03*
X962660Y1017120D02*
D03*
Y1030120D02*
D03*
X924560Y1004420D02*
D03*
Y1017420D02*
D03*
D32*
X683330Y1054100D02*
D03*
D33*
X749230Y1077000D02*
D03*
Y1054100D02*
D03*
D34*
Y1031200D02*
D03*
D35*
X954340Y972820D02*
D03*
X930340Y963320D02*
D03*
Y982320D02*
D03*
D36*
X873320Y954680D02*
D03*
X868320D02*
D03*
X863320D02*
D03*
X858320D02*
D03*
X853320D02*
D03*
X848320D02*
D03*
X843320D02*
D03*
X838320D02*
D03*
X833320D02*
D03*
X828320D02*
D03*
X823320D02*
D03*
X818320D02*
D03*
Y1036680D02*
D03*
X823320D02*
D03*
X828320D02*
D03*
X833320D02*
D03*
X838320D02*
D03*
X843320D02*
D03*
X848320D02*
D03*
X853320D02*
D03*
X858320D02*
D03*
X863320D02*
D03*
X868320D02*
D03*
X873320D02*
D03*
D37*
X804820Y968180D02*
D03*
Y973180D02*
D03*
Y978180D02*
D03*
Y983180D02*
D03*
Y988180D02*
D03*
Y993180D02*
D03*
Y998180D02*
D03*
Y1003180D02*
D03*
Y1008180D02*
D03*
Y1013180D02*
D03*
Y1018180D02*
D03*
Y1023180D02*
D03*
X886820D02*
D03*
Y1018180D02*
D03*
Y1013180D02*
D03*
Y1008180D02*
D03*
Y1003180D02*
D03*
Y998180D02*
D03*
Y993180D02*
D03*
Y988180D02*
D03*
Y983180D02*
D03*
Y978180D02*
D03*
Y973180D02*
D03*
Y968180D02*
D03*
D48*
X878840Y678180D02*
D03*
D60*
X845820Y591820D02*
D03*
D61*
X871220Y566420D02*
D03*
X896620Y591820D02*
D03*
D64*
X723900Y932180D02*
D03*
X774700D02*
D03*
X751840D02*
D03*
X800100D02*
D03*
D65*
X609600Y1016000D02*
D03*
X668020Y960120D02*
D03*
X685800Y942340D02*
D03*
X650240Y977900D02*
D03*
X629920Y996950D02*
D03*
X591820Y1033780D02*
D03*
D66*
X594360Y1082040D02*
D03*
X984504Y517652D02*
D03*
X594360Y1107440D02*
D03*
D67*
X984504Y472948D02*
D03*
Y538988D02*
D03*
Y451358D02*
D03*
D68*
X952500Y462280D02*
D03*
Y528320D02*
D03*
D69*
X698500Y838200D02*
D03*
Y749300D02*
D03*
D70*
X927100Y876300D02*
X976376Y827024D01*
X967819Y688971D02*
X976376Y697528D01*
Y827024D01*
X964639Y636978D02*
X981710Y654050D01*
X939800Y869950D02*
X981710Y828040D01*
Y654050D02*
Y828040D01*
X886820Y957580D02*
Y968180D01*
X927100Y876300D02*
Y944484D01*
X929005Y946389D01*
X939800Y955040D02*
X952258Y967498D01*
X939800Y869950D02*
Y955040D01*
X952258Y967498D02*
Y971090D01*
X953988Y972820D01*
X954340D01*
X914400Y881380D02*
Y949107D01*
Y881380D02*
X971580Y824200D01*
X914400Y949107D02*
X919480Y954187D01*
X971580Y698120D02*
Y824200D01*
X919480Y954187D02*
Y955040D01*
X907832Y987692D02*
X921080Y1000940D01*
X900580Y932180D02*
X906344D01*
X907832Y933668D01*
Y987692D01*
X897982Y929582D02*
X900580Y932180D01*
X897982Y927100D02*
Y929582D01*
X838320Y939680D02*
Y954680D01*
Y939680D02*
X850900Y927100D01*
X897982D01*
X924060Y1004420D02*
X924560D01*
X921080Y1001440D02*
X924060Y1004420D01*
X921080Y1000940D02*
Y1001440D01*
X936140Y660400D02*
X951080D01*
X952500Y661820D01*
X933600Y662940D02*
X936140Y660400D01*
X923580Y649800D02*
X925680Y647700D01*
X923580Y649800D02*
Y659960D01*
X919660Y663880D02*
X923580Y659960D01*
X916000Y663880D02*
X919660D01*
X909200Y670680D02*
X916000Y663880D01*
X898353Y670680D02*
X909200D01*
X966108Y671378D02*
X967404Y672674D01*
X967819Y683365D02*
Y688971D01*
X923352Y671378D02*
X966108D01*
X941220Y678180D02*
X961240D01*
X959140Y685680D02*
X971580Y698120D01*
X898353Y685680D02*
X959140D01*
X919050Y675680D02*
X923352Y671378D01*
X898353Y675680D02*
X919050D01*
X619478Y1021080D02*
X650240D01*
X668140Y1003180D01*
X614398Y1016000D02*
X619478Y1021080D01*
X609600Y1016000D02*
X614398D01*
X668140Y1003180D02*
X804820D01*
X935820Y965050D02*
Y971380D01*
X947420Y982980D02*
Y1017120D01*
X935820Y971380D02*
X947420Y982980D01*
X881340Y680680D02*
Y697692D01*
X876340Y680680D02*
X878840Y678180D01*
X859327Y680680D02*
X876340D01*
X822960Y681840D02*
X838200D01*
X822419Y684340D02*
X822689Y684070D01*
X845178D02*
X845448Y684340D01*
X840430Y684070D02*
X845178D01*
X838200Y681840D02*
X840430Y684070D01*
X855607Y675680D02*
X859327D01*
X855121Y676166D02*
X855607Y675680D01*
X855006Y676166D02*
X855121D01*
X855006Y676166D02*
X855006Y676166D01*
X853622Y676166D02*
X855006D01*
X845448Y684340D02*
X853622Y676166D01*
X805019Y696121D02*
X817070Y684070D01*
X820730D01*
X822960Y681840D01*
X805019Y696121D02*
Y700421D01*
X802640Y702800D02*
X805019Y700421D01*
X898353Y690680D02*
Y708047D01*
X894080Y712320D02*
X898353Y708047D01*
X896492Y619760D02*
X905360D01*
X890142Y613410D02*
X896492Y619760D01*
X873888Y613410D02*
X890142D01*
X871198Y610720D02*
X873888Y613410D01*
X855980Y610720D02*
X871198D01*
X822571D02*
X855980D01*
X821451Y609600D02*
X822571Y610720D01*
X820420Y609600D02*
X821451D01*
X848530Y666750D02*
X849600Y665680D01*
X835810Y666750D02*
X848530D01*
X823110Y654050D02*
X835810Y666750D01*
X849600Y665680D02*
X859327D01*
X826620Y673100D02*
X847568D01*
X849988Y670680D01*
X820420Y666900D02*
X826620Y673100D01*
X802640Y668800D02*
X804540Y666900D01*
X821540Y665480D02*
Y665780D01*
X820420Y666900D02*
X821540Y665780D01*
X849988Y670680D02*
X859327D01*
X773330Y654050D02*
X823110D01*
X740360Y687020D02*
X773330Y654050D01*
X804540Y666900D02*
X820120D01*
X802640Y668800D02*
X804540Y666900D01*
X798137Y619987D02*
X800327D01*
X796970Y618820D02*
X798137Y619987D01*
X788470Y608130D02*
X796970Y616630D01*
X766030Y608130D02*
X788470D01*
X796970Y616630D02*
Y618820D01*
X816745Y536605D02*
X816745Y536605D01*
X815340Y538010D02*
X816745Y536605D01*
X870765Y647873D02*
X876282Y653390D01*
X866593Y647247D02*
X867220Y647873D01*
X870765D01*
X876282Y653390D02*
Y654889D01*
X841157Y717550D02*
X842677Y719070D01*
X843134D01*
X844789Y720725D02*
X845820D01*
X843134Y719070D02*
X844789Y720725D01*
X768350Y717550D02*
X841157D01*
X749300Y736600D02*
X768350Y717550D01*
X749300Y736600D02*
Y791100D01*
X733960Y693420D02*
X740360Y687020D01*
X749300Y591400D02*
X766030Y608130D01*
X812950Y622300D02*
X815490Y624840D01*
X827740D01*
X753588Y965200D02*
X791360D01*
X723900Y935512D02*
X753588Y965200D01*
X791360D02*
X801520Y955040D01*
X833122Y1051562D02*
X839517Y1057957D01*
X833232Y1036768D02*
X833320Y1036680D01*
X833232Y1036768D02*
Y1046093D01*
X833122Y1046203D02*
X833232Y1046093D01*
X833122Y1046203D02*
Y1051562D01*
X822960Y1061720D02*
X828518Y1056162D01*
Y1046203D02*
Y1056162D01*
X828408Y1036768D02*
Y1046093D01*
X828518Y1046203D01*
X828320Y1036680D02*
X828408Y1036768D01*
X774700Y1111250D02*
X800100D01*
X762000Y1098550D02*
X774700Y1111250D01*
X762000Y1076960D02*
Y1098550D01*
X698500Y1066800D02*
X751840D01*
X659130Y1106170D02*
X698500Y1066800D01*
X751840D02*
X762000Y1076960D01*
X800100Y1111250D02*
X815340Y1096010D01*
X961480Y708220D02*
X971580Y698120D01*
X852830Y479182D02*
X861060Y470952D01*
Y470240D02*
Y470952D01*
X678220Y993180D02*
X804820D01*
X668020Y960120D02*
Y982980D01*
X678220Y993180D01*
X947420Y1017120D02*
X962660D01*
X934090Y963320D02*
X935820Y965050D01*
X930340Y963320D02*
X934090D01*
X930340Y982320D02*
X932990D01*
X934720Y984050D01*
Y1010920D01*
X928210Y1017430D02*
X934720Y1010920D01*
X922581Y636978D02*
X964639D01*
X925980Y1038150D02*
Y1038860D01*
X929005Y946389D02*
Y947420D01*
X925980Y1038150D02*
Y1054100D01*
Y1019660D02*
Y1038150D01*
X928210Y1017430D02*
Y1036630D01*
X926690Y1038150D02*
X928210Y1036630D01*
X924560Y1017420D02*
Y1037440D01*
X925270Y1038150D01*
X926690D01*
X924560Y1017420D02*
X928220D01*
X925980Y1019660D02*
X928220Y1017420D01*
X886820Y1008180D02*
X905160D01*
X958500Y710700D02*
X960980Y708220D01*
X961480D01*
X958500Y710700D02*
Y711200D01*
X903962Y599162D02*
X920787D01*
X896620Y591820D02*
X903962Y599162D01*
X920787D02*
X932825Y611200D01*
Y619760D01*
X929080D02*
Y623505D01*
X932825Y619760D01*
X926755Y625830D02*
X929080Y623505D01*
X918360Y619760D02*
X929080D01*
X926755Y625830D02*
Y632805D01*
X922581Y636978D02*
X926755Y632805D01*
X898353Y661208D02*
X922581Y636978D01*
X929080Y619760D02*
X932825D01*
X898353Y661208D02*
Y665680D01*
X849238Y479182D02*
X852830D01*
X843280Y485140D02*
X849238Y479182D01*
X924502Y680641D02*
X924733Y680410D01*
X919640Y680680D02*
X919679Y680641D01*
X925990Y680410D02*
X928220Y678180D01*
X924733Y680410D02*
X925990D01*
X919679Y680641D02*
X924502D01*
X898353Y680680D02*
X919640D01*
X855980Y623720D02*
X865020D01*
X891340Y650040D01*
Y658668D01*
X854047Y624018D02*
Y625653D01*
X853750Y623720D02*
X854047Y624018D01*
X841860Y623720D02*
X853750D01*
X840740Y624840D02*
X841860Y623720D01*
X815340Y538010D02*
Y554840D01*
X816745Y556245D01*
X603250Y1106170D02*
X659130D01*
X596900Y1104900D02*
X601980D01*
X594360Y1107440D02*
X596900Y1104900D01*
X594360Y1107440D02*
X594360Y1107440D01*
X601980Y1104900D02*
X603250Y1106170D01*
X594360Y1107440D02*
X594360Y1107440D01*
X751840Y932180D02*
X764540Y944880D01*
X818320Y945805D02*
Y954680D01*
X817395Y944880D02*
X818320Y945805D01*
X764540Y944880D02*
X817395D01*
X767779Y930339D02*
X772859D01*
X754380Y916940D02*
X767779Y930339D01*
X721360Y916940D02*
X754380D01*
X772859Y930339D02*
X774700Y932180D01*
X711200Y927100D02*
X721360Y916940D01*
X711200Y954386D02*
X734994Y978180D01*
X711200Y927100D02*
Y954386D01*
X723900Y932180D02*
Y935512D01*
X734994Y978180D02*
X804820D01*
X801732Y968180D02*
X804820D01*
X873400Y954680D02*
X876300Y957580D01*
X873320Y954680D02*
X873400D01*
X801520Y955040D02*
Y967968D01*
X801732Y968180D01*
X786696Y956864D02*
X788520Y955040D01*
X839517Y1060497D02*
X840246Y1061226D01*
X839517Y1057957D02*
Y1060497D01*
X858320Y1036680D02*
Y1053030D01*
X833120Y1078230D02*
X858320Y1053030D01*
X853639Y1071681D02*
X873320Y1052000D01*
Y1036680D02*
Y1052000D01*
X850900Y1075481D02*
Y1078230D01*
Y1075481D02*
X853639Y1072741D01*
Y1071681D02*
Y1072741D01*
D71*
X938680Y647700D02*
X939800Y648820D01*
X952500D01*
X876300Y957580D02*
X886820D01*
X894080D01*
X886820Y956820D02*
Y957580D01*
X886460Y956460D02*
X886820Y956820D01*
X898860Y943460D02*
X899160Y943760D01*
X886460Y943460D02*
X898860D01*
X901892Y965392D02*
Y1004612D01*
X894080Y957580D02*
X901892Y965392D01*
Y1004612D02*
X906780Y1009500D01*
X879800Y711360D02*
X880492D01*
X878840Y712320D02*
X879800Y711360D01*
X880492D02*
X886340Y705512D01*
X878840Y712320D02*
X880685Y710475D01*
X868680Y702160D02*
X878840Y712320D01*
X868680Y698500D02*
Y702160D01*
X867649Y695502D02*
X868364D01*
X868364Y695502D02*
X870012D01*
X868364Y695502D02*
X868364Y695502D01*
X816745Y605925D02*
X820420Y609600D01*
X816745Y556245D02*
Y605925D01*
X817880Y635000D02*
X866021D01*
X883920Y652899D01*
Y657860D01*
X759560Y642620D02*
X764640Y647700D01*
X855372D02*
X866340Y658668D01*
X764640Y647700D02*
X855372D01*
X816745Y536605D02*
Y556245D01*
Y536605D02*
Y536605D01*
X843261Y712470D02*
X858167Y697564D01*
Y691840D02*
X859327Y690680D01*
X858167Y691840D02*
Y697564D01*
X770890Y712470D02*
X843261D01*
X764458Y706038D02*
X770890Y712470D01*
X764458Y698418D02*
Y706038D01*
X759460Y693420D02*
X764458Y698418D01*
X816745Y536605D02*
X843280Y510070D01*
X782320Y1033780D02*
X817248D01*
X624840Y1066800D02*
X641350D01*
X809200Y957997D02*
Y966810D01*
X843280Y485140D02*
Y510070D01*
X668789Y1054100D02*
X683330D01*
X749230D01*
X641350Y1066800D02*
X656089D01*
X668789Y1054100D01*
X591820Y1033780D02*
X624840Y1066800D01*
X749230Y1054100D02*
X762000D01*
X591820Y1008380D02*
Y1033780D01*
X762000Y1054100D02*
X782320Y1033780D01*
X631296Y968904D02*
X641244D01*
X591820Y1008380D02*
X631296Y968904D01*
X641244D02*
X650240Y977900D01*
X782320Y1026160D02*
Y1033780D01*
X641350Y1062156D02*
Y1066800D01*
Y1062156D02*
X641660Y1061846D01*
Y1059020D02*
Y1061846D01*
Y1059020D02*
X642620Y1058060D01*
D72*
X958850Y521970D02*
X980186D01*
X952500Y528320D02*
X958850Y521970D01*
Y534670D02*
X980186D01*
X980186Y521970D02*
X984504Y517652D01*
X980186Y534670D02*
X984504Y538988D01*
X952500Y528320D02*
X958850Y534670D01*
X982726Y449580D02*
X984504Y451358D01*
X965200Y449580D02*
X982726D01*
X952500Y462280D02*
X965200Y449580D01*
X969809Y473202D02*
X984250D01*
X984504Y472948D01*
X965237Y468630D02*
X969809Y473202D01*
X729400Y831850D02*
X751415Y809835D01*
X755760Y797560D02*
X758300Y800100D01*
X739140Y797560D02*
X755760D01*
X793750Y755650D02*
X832900Y794800D01*
X793750Y755650D02*
X832900Y794800D01*
X862000D02*
X867300Y800100D01*
X787400Y749300D02*
X832900Y794800D01*
X862000D01*
X787400Y732790D02*
Y749300D01*
X708560Y655220D02*
X733960Y680620D01*
X708560Y642620D02*
Y655220D01*
X709558Y631142D02*
X744000Y596700D01*
Y593200D02*
X749300Y587900D01*
X708560Y642620D02*
X709558Y641622D01*
X744000Y593200D02*
Y596700D01*
X709558Y631142D02*
Y641622D01*
X919480Y469900D02*
Y485140D01*
Y469900D02*
X944880D01*
X864260D02*
X919480D01*
X749300Y477695D02*
Y478900D01*
X858905Y472395D02*
X861060Y470240D01*
X754600Y472395D02*
X858905D01*
X749300Y477695D02*
X754600Y472395D01*
X946150Y468630D02*
X947420D01*
X944880Y469900D02*
X946150Y468630D01*
X914761Y805180D02*
X920971Y811390D01*
X926440D02*
X929640Y814590D01*
Y816440D01*
X871220Y805180D02*
X914761D01*
X920971Y811390D02*
X926440D01*
Y819640D02*
X929640Y816440D01*
X926440Y819640D02*
Y845570D01*
X704850Y831850D02*
X729400D01*
X698500Y838200D02*
X704850Y831850D01*
X958850Y468630D02*
X965237D01*
X733960Y680620D02*
Y693420D01*
D73*
X759560Y642620D02*
D03*
X759460Y693420D02*
D03*
D74*
X734060Y642620D02*
D03*
X708560D02*
D03*
X733960Y693420D02*
D03*
X708460D02*
D03*
D75*
X886460Y1096010D02*
D03*
D76*
X868680D02*
D03*
X850900D02*
D03*
X833120D02*
D03*
X815340D02*
D03*
X797560D02*
D03*
X779780D02*
D03*
X886460Y1078230D02*
D03*
X868680D02*
D03*
X850900D02*
D03*
X833120D02*
D03*
X815340D02*
D03*
X797560D02*
D03*
X779780D02*
D03*
X795020Y739140D02*
D03*
X781264Y746826D02*
D03*
X781050Y730250D02*
D03*
X793750Y755650D02*
D03*
D77*
X975360Y1013460D02*
D03*
X984250Y995680D02*
D03*
X975360Y977900D02*
D03*
X984250Y960120D02*
D03*
X975360Y942340D02*
D03*
X984250Y924560D02*
D03*
X975360Y906780D02*
D03*
X984250Y889000D02*
D03*
X975360Y871220D02*
D03*
X984250Y853440D02*
D03*
Y640080D02*
D03*
X975360Y622300D02*
D03*
X984250Y604520D02*
D03*
X975360Y586740D02*
D03*
X984250Y568960D02*
D03*
X957580Y1049020D02*
D03*
X966470Y995680D02*
D03*
Y960120D02*
D03*
X957580Y942340D02*
D03*
X966470Y924560D02*
D03*
X957580Y906780D02*
D03*
X966470Y889000D02*
D03*
X957580Y871220D02*
D03*
Y800100D02*
D03*
Y764540D02*
D03*
Y728980D02*
D03*
X966470Y604520D02*
D03*
X957580Y586740D02*
D03*
X966470Y568960D02*
D03*
Y497840D02*
D03*
X939800Y1049020D02*
D03*
X948690Y782320D02*
D03*
Y746760D02*
D03*
Y604520D02*
D03*
X939800Y586740D02*
D03*
X948690Y568960D02*
D03*
Y497840D02*
D03*
X922020Y1084580D02*
D03*
X930910Y1066800D02*
D03*
Y711200D02*
D03*
X922020Y586740D02*
D03*
X930910Y568960D02*
D03*
X922020Y551180D02*
D03*
Y444500D02*
D03*
X904240Y1084580D02*
D03*
X913130Y1066800D02*
D03*
X904240Y906780D02*
D03*
Y764540D02*
D03*
X913130Y711200D02*
D03*
Y568960D02*
D03*
X904240Y551180D02*
D03*
X913130Y533400D02*
D03*
X904240Y444500D02*
D03*
X895350Y1066800D02*
D03*
X886460Y1049020D02*
D03*
Y906780D02*
D03*
Y835660D02*
D03*
Y764540D02*
D03*
X895350Y746760D02*
D03*
Y640080D02*
D03*
Y568960D02*
D03*
X886460Y551180D02*
D03*
X895350Y533400D02*
D03*
X886460Y515620D02*
D03*
X895350Y497840D02*
D03*
X886460Y444500D02*
D03*
X877570Y1066800D02*
D03*
X868680Y906780D02*
D03*
X877570Y853440D02*
D03*
X868680Y835660D02*
D03*
Y764540D02*
D03*
X877570Y746760D02*
D03*
X868680Y586740D02*
D03*
Y551180D02*
D03*
X877570Y497840D02*
D03*
X868680Y444500D02*
D03*
X850900Y1013460D02*
D03*
X859790Y995680D02*
D03*
X850900Y906780D02*
D03*
X859790Y853440D02*
D03*
X850900Y835660D02*
D03*
Y764540D02*
D03*
X859790Y746760D02*
D03*
Y711200D02*
D03*
X850900Y551180D02*
D03*
X859790Y497840D02*
D03*
X850900Y444500D02*
D03*
X833120Y1013460D02*
D03*
X842010Y995680D02*
D03*
X833120Y906780D02*
D03*
X842010Y889000D02*
D03*
Y853440D02*
D03*
X833120Y835660D02*
D03*
Y764540D02*
D03*
X842010Y746760D02*
D03*
X833120Y728980D02*
D03*
X842010Y568960D02*
D03*
X833120Y551180D02*
D03*
X842010Y533400D02*
D03*
X833120Y444500D02*
D03*
X824230Y995680D02*
D03*
Y924560D02*
D03*
X815340Y906780D02*
D03*
X824230Y853440D02*
D03*
X815340Y835660D02*
D03*
X824230Y817880D02*
D03*
Y746760D02*
D03*
X815340Y728980D02*
D03*
Y515620D02*
D03*
X824230Y497840D02*
D03*
X815340Y444500D02*
D03*
X806450Y1066800D02*
D03*
X797560Y906780D02*
D03*
X806450Y853440D02*
D03*
X797560Y835660D02*
D03*
X806450Y817880D02*
D03*
X797560Y800100D02*
D03*
X806450Y604520D02*
D03*
X797560Y586740D02*
D03*
X806450Y568960D02*
D03*
X797560Y551180D02*
D03*
X806450Y533400D02*
D03*
X797560Y515620D02*
D03*
X806450Y497840D02*
D03*
X797560Y444500D02*
D03*
X788670Y1066800D02*
D03*
Y924560D02*
D03*
X779780Y906780D02*
D03*
X788670Y853440D02*
D03*
X779780Y835660D02*
D03*
X788670Y817880D02*
D03*
Y782320D02*
D03*
X779780Y622300D02*
D03*
Y586740D02*
D03*
X788670Y568960D02*
D03*
X779780Y551180D02*
D03*
X788670Y533400D02*
D03*
X779780Y515620D02*
D03*
X788670Y497840D02*
D03*
X779780Y444500D02*
D03*
X770890Y1066800D02*
D03*
X762000Y1013460D02*
D03*
Y906780D02*
D03*
Y871220D02*
D03*
X770890Y853440D02*
D03*
X762000Y835660D02*
D03*
Y764540D02*
D03*
Y622300D02*
D03*
Y551180D02*
D03*
X770890Y533400D02*
D03*
X762000Y515620D02*
D03*
Y444500D02*
D03*
X744220Y1013460D02*
D03*
Y906780D02*
D03*
X753110Y853440D02*
D03*
X744220Y728980D02*
D03*
X753110Y711200D02*
D03*
X744220Y551180D02*
D03*
X753110Y533400D02*
D03*
X744220Y515620D02*
D03*
Y444500D02*
D03*
X735330Y1031240D02*
D03*
X726440Y1013460D02*
D03*
X735330Y960120D02*
D03*
X726440Y906780D02*
D03*
X735330Y853440D02*
D03*
X726440Y764540D02*
D03*
X735330Y746760D02*
D03*
X726440Y728980D02*
D03*
Y551180D02*
D03*
X735330Y533400D02*
D03*
X726440Y515620D02*
D03*
Y444500D02*
D03*
X717550Y1102360D02*
D03*
X708660Y1084580D02*
D03*
X717550Y1031240D02*
D03*
X708660Y1013460D02*
D03*
Y977900D02*
D03*
Y906780D02*
D03*
X717550Y711200D02*
D03*
X708660Y586740D02*
D03*
X717550Y568960D02*
D03*
X708660Y551180D02*
D03*
X717550Y533400D02*
D03*
X708660Y515620D02*
D03*
X717550Y497840D02*
D03*
X708660Y480060D02*
D03*
X717550Y462280D02*
D03*
X708660Y444500D02*
D03*
X699770Y1102360D02*
D03*
Y1031240D02*
D03*
X690880Y1013460D02*
D03*
Y977900D02*
D03*
X699770Y960120D02*
D03*
Y924560D02*
D03*
X690880Y906780D02*
D03*
Y800100D02*
D03*
X699770Y782320D02*
D03*
Y711200D02*
D03*
X690880Y693420D02*
D03*
X699770Y675640D02*
D03*
X690880Y622300D02*
D03*
X699770Y604520D02*
D03*
X690880Y586740D02*
D03*
X699770Y568960D02*
D03*
X690880Y551180D02*
D03*
X699770Y533400D02*
D03*
X690880Y515620D02*
D03*
X699770Y497840D02*
D03*
X690880Y480060D02*
D03*
X699770Y462280D02*
D03*
X690880Y444500D02*
D03*
X681990Y1102360D02*
D03*
X673100Y1013460D02*
D03*
X681990Y782320D02*
D03*
Y711200D02*
D03*
Y675640D02*
D03*
Y640080D02*
D03*
Y604520D02*
D03*
Y568960D02*
D03*
Y533400D02*
D03*
Y497840D02*
D03*
Y462280D02*
D03*
X655320Y1084580D02*
D03*
Y1049020D02*
D03*
X664210Y1031240D02*
D03*
X655320Y942340D02*
D03*
X637540Y1084580D02*
D03*
X646430Y1031240D02*
D03*
X619760Y1084580D02*
D03*
X628650Y1031240D02*
D03*
X782320Y1026160D02*
D03*
X894080Y957580D02*
D03*
X809200Y957997D02*
D03*
D78*
X820420Y609600D02*
D03*
X817880Y635000D02*
D03*
X866593Y647247D02*
D03*
X845820Y720725D02*
D03*
X919480Y955040D02*
D03*
X929005Y947420D02*
D03*
X822960Y1061720D02*
D03*
X840246Y1061226D02*
D03*
M02*
