M48
;Layer_Color=9474304
;FILE_FORMAT=4:4
METRIC,LZ
;TYPE=PLATED
T01F00S00C0.3810
T02F00S00C0.6350
T03F00S00C0.6500
T04F00S00C0.7112
T05F00S00C0.7620
T06F00S00C1.1000
%
T01
X0082042Y006096
X0081788Y00635
X00866593Y00647247
X0084582Y00720725
X0091948Y0095504
X00929005Y0094742
X00840246Y01061226
X0082296Y0106172
T02
X0079756Y004445
X0081534
X0083312
X008509
X0086868
X0088646
X0090424
X0092202
X0094869Y0049784
X0096647
Y0056896
X0098425
X0097536Y0058674
X0095758
X009398
X0092202
X0093091Y0056896
X0094869
Y0060452
X0096647
X0098425
X0097536Y006223
X0098425Y0064008
X0089535
Y0056896
X0091313
X0092202Y0055118
X0090424
X0088646
X0086868
X008509
X0083312
X0084201Y0056896
Y005334
X0080645
X0081534Y0051562
X0079756
X0080645Y0049784
X0082423
X0085979
X0087757
X0089535
X0088646Y0051562
X0089535Y005334
X0091313
X0086868Y0058674
X0079756
X0080645Y0060452
Y0056896
X0079756Y0055118
X0081534Y0072898
X0083312
X0084201Y0074676
X0085979
X0087757
X0089535
X0090424Y0076454
X0088646
X0086868
X008509
X0083312
X0082423Y0074676
X0085979Y007112
X0091313
X0093091
X0095758Y0072898
X0094869Y0074676
X0095758Y0076454
X0094869Y0078232
X0078867
X00762Y0076454
X0072644
X0073533Y0074676
X0074422Y0072898
X0072644
X0071755Y007112
X0069977
X0068199
X0069088Y0069342
X0069977Y0067564
X0068199
Y0064008
X0069088Y006223
X0069977Y0060452
X0068199
X0069088Y0058674
X0070866
X0071755Y0056896
X0069977
X0068199
X0069088Y0055118
X0070866
X0072644
X0074422
X00762
X0077978
X0078867Y0056896
X0077978Y0058674
Y006223
X00762
X0077089Y005334
X0078867
X0077978Y0051562
X00762
X0074422
X0072644
X0070866
X0069088
X0069977Y005334
X0071755
X0073533
X0075311
X0078867Y0049784
X0077978Y004445
X00762
X0074422
X0072644
X0070866
X0069088
X0069977Y0046228
X0071755
X0070866Y0048006
X0069088
X0069977Y0049784
X0071755
X0068199
Y005334
Y0046228
X0075311Y007112
X0069977Y0078232
X0068199
X0069088Y008001
X0073533Y0085344
X0075311
X0077089
X0078867
X0077978Y0083566
X00762
Y0087122
Y0090678
X0077978
X0078867Y0092456
X0074422Y0090678
X0072644
X0070866
X0069088
X0069977Y0092456
Y0096012
X0070866Y009779
X0069088
Y0101346
X0070866
X0072644
X0074422
X00762
X0078232Y0102616
X0078867Y010668
X0077089
X0073533Y0103124
X0071755
X0069977
X0066421
X0064643
X0062865
X0065532Y0104902
Y0108458
X0063754
X0061976
X0068199Y0110236
X0069977
X0071755
X0070866Y0108458
X006731Y0101346
X0065532Y0094234
X0073533Y0096012
X0078867Y0081788
X0080645
X0082423
X0083312Y0083566
X008509
X0086868
X0088646
X0087757Y0085344
X0085979
X0084201
X0082423
X0080645
X0081534Y0083566
X0079756
Y008001
Y0090678
X0081534
X0083312
X008509
X0086868
X0088646
X0090424
X0095758
X0097536
X0098425Y0092456
X0096647
X0097536Y0094234
X0095758
X0096647Y0096012
X0098425
X0097536Y009779
X0098425Y0099568
X0096647
X0097536Y0101346
X0095758Y0104902
X009398
X0093091Y010668
X0091313
X0089535
X0087757
X0088646Y0104902
X0090424Y0108458
X0092202
X0080645Y010668
X0083312Y0101346
X008509
X0085979Y0099568
X0084201
X0082423
X008092Y00957997
X0082423Y0092456
X0084201Y00889
X0089408Y0095758
X0096647Y00889
X0098425
X0097536Y0087122
X0095758
X0098425Y0085344
X0095758Y008001
T03
X0084582Y0059182
X0087122Y0056642
X0089662Y0059182
T04
X0079502Y0073914
X0079375Y0075565
X00781264Y00746826
X0078105Y0073025
T05
X0077978Y0107823
Y0109601
X0079756
X0081534
X0083312
X008509
X0086868
X0088646
Y0107823
X0086868
X008509
X0083312
X0081534
X0079756
T06
X0070856Y0064262
X0073406
X0075956
X0075946Y0069342
X0073396
X0070846
M30
